solid IoBlaster_sketchup
facet normal 4.379745350194359e-05 -1.6563123730800088e-05 0.9999999989037232
  outer loop
    vertex 218.30537565377617 252.92447458353206 112.63906304460254
    vertex 218.1136059746662 255.1608352345834 112.63861836163079
    vertex 218.1136055540937 255.1259765186102 112.63861775756013
  endloop
endfacet
facet normal 4.379745350194359e-05 -1.6563123730800088e-05 0.9999999989037232
  outer loop
    vertex 218.1136059746662 255.1608352345834 112.63861836163079
    vertex 218.30537565377617 252.92447458353206 112.63906304460254
    vertex 218.3054291967986 257.3623325248311 112.63913994874771
  endloop
endfacet
facet normal 4.379745350194359e-05 -1.6563123730800088e-05 0.9999999989037232
  outer loop
    vertex 218.3054291967986 257.3623325248311 112.63913994874771
    vertex 218.30537565377617 252.92447458353206 112.63906304460254
    vertex 218.8747053561475 250.78923498611883 112.6394792859419
  endloop
endfacet
facet normal 4.379745350194359e-05 -1.6563123730800088e-05 0.9999999989037232
  outer loop
    vertex 218.3054291967986 257.3623325248311 112.63913994874771
    vertex 218.8747053561475 250.78923498611883 112.6394792859419
    vertex 218.874810422592 259.4975583679192 112.63963019346852
  endloop
endfacet
facet normal 4.379745350194359e-05 -1.6563123730800088e-05 0.9999999989037232
  outer loop
    vertex 218.874810422592 259.4975583679192 112.63963019346852
    vertex 218.8747053561475 250.78923498611883 112.6394792859419
    vertex 219.80446331006 248.7845079124534 112.63985395671504
  endloop
endfacet
facet normal 4.379745350194359e-05 -1.6563123730800088e-05 0.9999999989037232
  outer loop
    vertex 218.874810422592 259.4975583679192 112.63963019346852
    vertex 219.80446331006 248.7845079124534 112.63985395671504
    vertex 219.80461675053863 261.50226299164 112.6400743441397
  endloop
endfacet
facet normal 4.379745350194359e-05 -1.6563123730800088e-05 0.9999999989037232
  outer loop
    vertex 219.80461675053863 261.50226299164 112.6400743441397
    vertex 219.80446331006 248.7845079124534 112.63985395671504
    vertex 221.06667273875678 246.97061637626032 112.64017578293112
  endloop
endfacet
facet normal 4.379745350194359e-05 -1.6563123730800088e-05 0.9999999989037232
  outer loop
    vertex 219.80461675053863 261.50226299164 112.6400743441397
    vertex 221.06667273875678 246.97061637626032 112.64017578293112
    vertex 220.37122632627995 255.150539064119 112.63882035626688
  endloop
endfacet
facet normal 4.379745350194359e-05 -1.6563123730800088e-05 0.9999999989037232
  outer loop
    vertex 220.37122632627995 255.150539064119 112.63882035626688
    vertex 221.06667273875678 246.97061637626032 112.64017578293112
    vertex 220.52988097509703 253.31487864661497 112.63889191320847
  endloop
endfacet
facet normal 4.379745350194359e-05 -1.6563123730800088e-05 0.9999999989037232
  outer loop
    vertex 220.52988097509703 253.31487864661497 112.63889191320847
    vertex 221.06667273875678 246.97061637626032 112.64017578293112
    vertex 220.99827627354418 251.55818795524146 112.63923436063286
  endloop
endfacet
facet normal 4.379745350194359e-05 -1.6563123730800088e-05 0.9999999989037232
  outer loop
    vertex 220.99827627354418 251.55818795524146 112.63923436063286
    vertex 221.06667273875678 246.97061637626032 112.64017578293112
    vertex 221.7632007801038 249.90887174217983 112.63954260737975
  endloop
endfacet
facet normal 4.379745350194359e-05 -1.6563123730800088e-05 0.9999999989037232
  outer loop
    vertex 221.7632007801038 249.90887174217983 112.63954260737975
    vertex 221.06667273875678 246.97061637626032 112.64017578293112
    vertex 222.62335327190266 245.4021410760448 112.6404350807165
  endloop
endfacet
facet normal 4.379745350194359e-05 -1.6563123730800088e-05 0.9999999989037232
  outer loop
    vertex 221.7632007801038 249.90887174217983 112.63954260737975
    vertex 222.62335327190266 245.4021410760448 112.6404350807165
    vertex 222.80163759317085 248.41655857823528 112.63980737815861
  endloop
endfacet
facet normal 4.379745350194359e-05 -1.6563123730800088e-05 0.9999999989037232
  outer loop
    vertex 222.80163759317085 248.41655857823528 112.63980737815861
    vertex 222.62335327190266 245.4021410760448 112.6404350807165
    vertex 224.4276637896235 244.1262780407882 112.64062404770193
  endloop
endfacet
facet normal 4.379745350194359e-05 -1.6563123730800088e-05 0.9999999989037232
  outer loop
    vertex 222.80163759317085 248.41655857823528 112.63980737815861
    vertex 224.4276637896235 244.1262780407882 112.64062404770193
    vertex 224.08233971982136 247.12615273720783 112.64002070596007
  endloop
endfacet
facet normal 4.379745350194359e-05 -1.6563123730800088e-05 0.9999999989037232
  outer loop
    vertex 224.08233971982136 247.12615273720783 112.64002070596007
    vertex 224.4276637896235 244.1262780407882 112.64062404770193
    vertex 225.14275550506156 246.3763121254633 112.6401317642124
  endloop
endfacet
facet normal 4.379745350194359e-05 -1.6563123730800088e-05 0.9999999989037232
  outer loop
    vertex 225.14275550506156 246.3763121254633 112.6401317642124
    vertex 224.4276637896235 244.1262780407882 112.64062404770193
    vertex 248.17309400603105 244.12741115336812 112.63965480185081
  endloop
endfacet
facet normal 4.379745350194359e-05 -1.6563123730800088e-05 0.9999999989037232
  outer loop
    vertex 225.14275550506156 246.3763121254633 112.6401317642124
    vertex 248.17309400603105 244.12741115336812 112.63965480185081
    vertex 247.22591589107535 246.37736591588157 112.63923036923343
  endloop
endfacet
facet normal 4.379745350194359e-05 -1.6563123730800088e-05 0.9999999989037232
  outer loop
    vertex 247.22591589107535 246.37736591588157 112.63923036923343
    vertex 248.17309400603105 244.12741115336812 112.63965480185081
    vertex 247.89927646007172 247.06635833137628 112.63906108213625
  endloop
endfacet
facet normal 4.379745350194359e-05 -1.6563123730800088e-05 0.9999999989037232
  outer loop
    vertex 247.89927646007172 247.06635833137628 112.63906108213625
    vertex 248.17309400603105 244.12741115336812 112.63965480185081
    vertex 248.93592145702524 248.4786225526163 112.63872810626071
  endloop
endfacet
facet normal 4.379745350194359e-05 -1.6563123730800088e-05 0.9999999989037232
  outer loop
    vertex 248.93592145702524 248.4786225526163 112.63872810626071
    vertex 248.17309400603105 244.12741115336812 112.63965480185081
    vertex 249.6192433614593 245.60713239550694 112.63929123077843
  endloop
endfacet
facet normal 4.379745350194359e-05 -1.6563123730800088e-05 0.9999999989037232
  outer loop
    vertex 248.93592145702524 248.4786225526163 112.63872810626071
    vertex 249.6192433614593 245.60713239550694 112.63929123077843
    vertex 249.764237716641 250.02232533704432 112.63837657931886
  endloop
endfacet
facet normal 4.379745350194359e-05 -1.6563123730800088e-05 0.9999999989037232
  outer loop
    vertex 249.764237716641 250.02232533704432 112.63837657931886
    vertex 249.6192433614593 245.60713239550694 112.63929123077843
    vertex 250.84355457761768 247.2750620448336 112.63889797553118
  endloop
endfacet
facet normal 4.379745350194359e-05 -1.6563123730800088e-05 0.9999999989037232
  outer loop
    vertex 249.764237716641 250.02232533704432 112.63837657931886
    vertex 250.84355457761768 247.2750620448336 112.63889797553118
    vertex 250.36784926158063 251.6669473999783 112.63801345095469
  endloop
endfacet
facet normal 4.379745350194359e-05 -1.6563123730800088e-05 0.9999999989037232
  outer loop
    vertex 250.36784926158063 251.6669473999783 112.63801345095469
    vertex 250.84355457761768 247.2750620448336 112.63889797553118
    vertex 250.7348225692534 253.3799742582937 112.63764590039776
  endloop
endfacet
facet normal 4.379745350194359e-05 -1.6563123730800088e-05 0.9999999989037232
  outer loop
    vertex 250.7348225692534 253.3799742582937 112.63764590039776
    vertex 250.84355457761768 247.2750620448336 112.63889797553118
    vertex 250.8589922017175 255.14301094749865 112.63807682141383
  endloop
endfacet
facet normal 4.379745350194359e-05 -1.6563123730800088e-05 0.9999999989037232
  outer loop
    vertex 250.8589922017175 255.14301094749865 112.63807682141383
    vertex 250.84355457761768 247.2750620448336 112.63889797553118
    vertex 251.82182280030452 249.09822483047597 112.63848281083553
  endloop
endfacet
facet normal 4.379745350194359e-05 -1.6563123730800088e-05 0.9999999989037232
  outer loop
    vertex 220.37122632627995 255.150539064119 112.63882035626688
    vertex 221.06686994828829 263.3161240577965 112.64045903609328
    vertex 219.80461675053863 261.50226299164 112.6400743441397
  endloop
endfacet
facet normal 4.379745350194359e-05 -1.6563123730800088e-05 0.9999999989037232
  outer loop
    vertex 221.06686994828829 263.3161240577965 112.64045903609328
    vertex 220.37122632627995 255.150539064119 112.63882035626688
    vertex 220.52992509702642 256.971874789766 112.63895817558206
  endloop
endfacet
facet normal 4.379745350194359e-05 -1.6563123730800088e-05 0.9999999989037232
  outer loop
    vertex 221.06686994828829 263.3161240577965 112.64045903609328
    vertex 220.52992509702642 256.971874789766 112.63895817558206
    vertex 220.99836278453822 258.72855416591585 112.63935861672465
  endloop
endfacet
facet normal 4.379745350194359e-05 -1.6563123730800088e-05 0.9999999989037232
  outer loop
    vertex 221.06686994828829 263.3161240577965 112.64045903609328
    vertex 220.99836278453822 258.72855416591585 112.63935861672465
    vertex 221.76332708906585 260.3778519090868 112.63972402552804
  endloop
endfacet
facet normal 4.379745350194359e-05 -1.6563123730800088e-05 0.9999999989037232
  outer loop
    vertex 221.06686994828829 263.3161240577965 112.64045903609328
    vertex 221.76332708906585 260.3778519090868 112.63972402552804
    vertex 222.62358832847826 264.8845617847392 112.64077269380142
  endloop
endfacet
facet normal 4.379745350194359e-05 -1.6563123730800088e-05 0.9999999989037232
  outer loop
    vertex 222.62358832847826 264.8845617847392 112.64077269380142
    vertex 221.76332708906585 260.3778519090868 112.63972402552804
    vertex 222.80179991151624 261.8701400049053 112.64004051680168
  endloop
endfacet
facet normal 4.379745350194359e-05 -1.6563123730800088e-05 0.9999999989037232
  outer loop
    vertex 222.62358832847826 264.8845617847392 112.64077269380142
    vertex 222.80179991151624 261.8701400049053 112.64004051680168
    vertex 224.42792963240194 266.16038127407904 112.64100587918357
  endloop
endfacet
facet normal 4.379745350194359e-05 -1.6563123730800088e-05 0.9999999989037232
  outer loop
    vertex 224.42792963240194 266.16038127407904 112.64100587918357
    vertex 222.80179991151624 261.8701400049053 112.64004051680168
    vertex 224.08253317542938 263.16051493387937 112.64029856724677
  endloop
endfacet
facet normal 4.379745350194359e-05 -1.6563123730800088e-05 0.9999999989037232
  outer loop
    vertex 224.42792963240194 266.16038127407904 112.64100587918357
    vertex 224.08253317542938 263.16051493387937 112.64029856724677
    vertex 225.14296705407148 263.9103299531224 112.64043561320216
  endloop
endfacet
facet normal 4.379745350194359e-05 -1.6563123730800088e-05 0.9999999989037232
  outer loop
    vertex 224.42792963240194 266.16038127407904 112.64100587918357
    vertex 225.14296705407148 263.9103299531224 112.64043561320216
    vertex 248.1733598145547 266.15867521501065 112.6400365841321
  endloop
endfacet
facet normal 4.379745350194359e-05 -1.6563123730800088e-05 0.9999999989037232
  outer loop
    vertex 248.1733598145547 266.15867521501065 112.6400365841321
    vertex 225.14296705407148 263.9103299531224 112.64043561320216
    vertex 247.22612740815396 263.90874332463414 112.6395341724671
  endloop
endfacet
facet normal 4.379745350194359e-05 -1.6563123730800088e-05 0.9999999989037232
  outer loop
    vertex 248.1733598145547 266.15867521501065 112.6400365841321
    vertex 247.22612740815396 263.90874332463414 112.6395341724671
    vertex 247.89947135145002 263.21973466738456 112.63934100583246
  endloop
endfacet
facet normal 4.379745350194359e-05 -1.6563123730800088e-05 0.9999999989037232
  outer loop
    vertex 248.1733598145547 266.15867521501065 112.6400365841321
    vertex 247.89947135145002 263.21973466738456 112.63934100583246
    vertex 248.93608226998816 261.80744544458867 112.638959082949
  endloop
endfacet
facet normal 4.379745350194359e-05 -1.6563123730800088e-05 0.9999999989037232
  outer loop
    vertex 248.1733598145547 266.15867521501065 112.6400365841321
    vertex 248.93608226998816 261.80744544458867 112.638959082949
    vertex 249.6194734637109 264.67891909103383 112.6396217279397
  endloop
endfacet
facet normal 4.379745350194359e-05 -1.6563123730800088e-05 0.9999999989037232
  outer loop
    vertex 249.6194734637109 264.67891909103383 112.6396217279397
    vertex 248.93608226998816 261.80744544458867 112.638959082949
    vertex 249.76436127962273 260.26372268636254 112.63855405365867
  endloop
endfacet
facet normal 4.379745350194359e-05 -1.6563123730800088e-05 0.9999999989037232
  outer loop
    vertex 249.6194734637109 264.67891909103383 112.6396217279397
    vertex 249.76436127962273 260.26372268636254 112.63855405365867
    vertex 250.84374443217027 263.01095991404793 112.63917066469551
  endloop
endfacet
facet normal 4.379745350194359e-05 -1.6563123730800088e-05 0.9999999989037232
  outer loop
    vertex 250.84374443217027 263.01095991404793 112.63917066469551
    vertex 249.76436127962273 260.26372268636254 112.63855405365867
    vertex 250.36793313945398 258.61908607227394 112.63813392535664
  endloop
endfacet
facet normal 4.379745350194359e-05 -1.6563123730800088e-05 0.9999999989037232
  outer loop
    vertex 250.84374443217027 263.01095991404793 112.63917066469551
    vertex 250.36793313945398 258.61908607227394 112.63813392535664
    vertex 250.73486511151555 256.90605037301503 112.63770749208378
  endloop
endfacet
facet normal 4.379745350194359e-05 -1.6563123730800088e-05 0.9999999989037232
  outer loop
    vertex 250.84374443217027 263.01095991404793 112.63917066469551
    vertex 250.73486511151555 256.90605037301503 112.63770749208378
    vertex 250.7907868762934 256.1117652828853 112.63751767303208
  endloop
endfacet
facet normal 4.379745350194359e-05 -1.6563123730800088e-05 0.9999999989037232
  outer loop
    vertex 250.84374443217027 263.01095991404793 112.63917066469551
    vertex 250.7907868762934 256.1117652828853 112.63751767303208
    vertex 250.8589922017175 255.14301094749865 112.63807682141383
  endloop
endfacet
facet normal 4.379745350194359e-05 -1.6563123730800088e-05 0.9999999989037232
  outer loop
    vertex 250.84374443217027 263.01095991404793 112.63917066469551
    vertex 250.8589922017175 255.14301094749865 112.63807682141383
    vertex 251.8219686614355 261.18777353868984 112.63869231200049
  endloop
endfacet
facet normal 4.379745350194359e-05 -1.6563123730800088e-05 0.9999999989037232
  outer loop
    vertex 251.8219686614355 261.18777353868984 112.63869231200049
    vertex 250.8589922017175 255.14301094749865 112.63807682141383
    vertex 251.82182280030452 249.09822483047597 112.63848281083553
  endloop
endfacet
facet normal 4.379745350194359e-05 -1.6563123730800088e-05 0.9999999989037232
  outer loop
    vertex 251.8219686614355 261.18777353868984 112.63869231200049
    vertex 251.82182280030452 249.09822483047597 112.63848281083553
    vertex 252.5347074897918 251.04057649437263 112.63805394457138
  endloop
endfacet
facet normal 4.379745350194359e-05 -1.6563123730800088e-05 0.9999999989037232
  outer loop
    vertex 251.8219686614355 261.18777353868984 112.63869231200049
    vertex 252.5347074897918 251.04057649437263 112.63805394457138
    vertex 252.53480648153658 259.24540468939693 112.63819612697263
  endloop
endfacet
facet normal 4.379745350194359e-05 -1.6563123730800088e-05 0.9999999989037232
  outer loop
    vertex 252.53480648153658 259.24540468939693 112.63819612697263
    vertex 252.5347074897918 251.04057649437263 112.63805394457138
    vertex 252.96811478681977 253.0637163927722 112.63761985550244
  endloop
endfacet
facet normal 4.379745350194359e-05 -1.6563123730800088e-05 0.9999999989037232
  outer loop
    vertex 252.53480648153658 259.24540468939693 112.63819612697263
    vertex 252.96811478681977 253.0637163927722 112.63761985550244
    vertex 252.9681649598298 257.2222543496755 112.63769191927982
  endloop
endfacet
facet normal 4.379745350194359e-05 -1.6563123730800088e-05 0.9999999989037232
  outer loop
    vertex 252.9681649598298 257.2222543496755 112.63769191927982
    vertex 252.96811478681977 253.0637163927722 112.63761985550244
    vertex 253.11347615072188 255.12764668391762 112.63718912564886
  endloop
endfacet
facet normal 4.379745350194359e-05 -1.6563123730800088e-05 0.9999999989037232
  outer loop
    vertex 252.9681649598298 257.2222543496755 112.63769191927982
    vertex 253.11347615072188 255.12764668391762 112.63718912564886
    vertex 253.04082074031692 256.1902874586933 112.63744078823991
  endloop
endfacet
facet normal 4.379745350194359e-05 -1.6563123730800088e-05 0.9999999989037232
  outer loop
    vertex 253.04082074031692 256.1902874586933 112.63744078823991
    vertex 253.11347615072188 255.12764668391762 112.63718912564886
    vertex 253.113476520804 255.15832056771134 112.6371896572001
  endloop
endfacet
facet normal -4.379745350167535e-05 1.6563123732450007e-05 -0.9999999989037232
  outer loop
    vertex 221.0667823832278 263.31615717219546 110.64117563303168
    vertex 220.37113876121936 255.1505721785176 110.6395369532052
    vertex 219.80452918547795 261.5022961060386 110.64079094107802
  endloop
endfacet
facet normal -4.379745350167535e-05 1.6563123732450007e-05 -0.9999999989037232
  outer loop
    vertex 220.37113876121936 255.1505721785176 110.6395369532052
    vertex 221.0667823832278 263.31615717219546 110.64117563303168
    vertex 220.52984111323775 256.9719074697928 110.63895817761234
  endloop
endfacet
facet normal -4.379745350167535e-05 1.6563123732450007e-05 -0.9999999989037232
  outer loop
    vertex 220.52984111323775 256.9719074697928 110.63895817761234
    vertex 221.0667823832278 263.31615717219546 110.64117563303168
    vertex 220.9982788007496 258.72858684594235 110.63935861875494
  endloop
endfacet
facet normal -4.379745350167535e-05 1.6563123732450007e-05 -0.9999999989037232
  outer loop
    vertex 220.9982788007496 258.72858684594235 110.63935861875494
    vertex 221.0667823832278 263.31615717219546 110.64117563303168
    vertex 221.7632431052772 260.3778845891133 110.63972402755843
  endloop
endfacet
facet normal -4.379745350167535e-05 1.6563123732450007e-05 -0.9999999989037232
  outer loop
    vertex 221.7632431052772 260.3778845891133 110.63972402755843
    vertex 221.0667823832278 263.31615717219546 110.64117563303168
    vertex 222.62350076341764 264.884594899138 110.64148929073983
  endloop
endfacet
facet normal -4.379745350167535e-05 1.6563123732450007e-05 -0.9999999989037232
  outer loop
    vertex 221.7632431052772 260.3778845891133 110.63972402755843
    vertex 222.62350076341764 264.884594899138 110.64148929073983
    vertex 222.80171592772766 261.8701726849318 110.64004051883197
  endloop
endfacet
facet normal -4.379745350167535e-05 1.6563123732450007e-05 -0.9999999989037232
  outer loop
    vertex 222.80171592772766 261.8701726849318 110.64004051883197
    vertex 222.62350076341764 264.884594899138 110.64148929073983
    vertex 224.42784206734132 266.1604143884775 110.64172247612188
  endloop
endfacet
facet normal -4.379745350167535e-05 1.6563123732450007e-05 -0.9999999989037232
  outer loop
    vertex 222.80171592772766 261.8701726849318 110.64004051883197
    vertex 224.42784206734132 266.1604143884775 110.64172247612188
    vertex 224.08244919164076 263.16054761390643 110.64029856927705
  endloop
endfacet
facet normal -4.379745350167535e-05 1.6563123732450007e-05 -0.9999999989037232
  outer loop
    vertex 224.08244919164076 263.16054761390643 110.64029856927705
    vertex 224.42784206734132 266.1604143884775 110.64172247612188
    vertex 225.14288307028278 263.9103626331489 110.64043561523245
  endloop
endfacet
facet normal -4.379745350167535e-05 1.6563123732450007e-05 -0.9999999989037232
  outer loop
    vertex 225.14288307028278 263.9103626331489 110.64043561523245
    vertex 224.42784206734132 266.1604143884775 110.64172247612188
    vertex 248.17327224949412 266.1587083294091 110.64075318107042
  endloop
endfacet
facet normal -4.379745350167535e-05 1.6563123732450007e-05 -0.9999999989037232
  outer loop
    vertex 225.14288307028278 263.9103626331489 110.64043561523245
    vertex 248.17327224949412 266.1587083294091 110.64075318107042
    vertex 247.22604342436534 263.9087760046603 110.63953417449738
  endloop
endfacet
facet normal -4.379745350167535e-05 1.6563123732450007e-05 -0.9999999989037232
  outer loop
    vertex 247.22604342436534 263.9087760046603 110.63953417449738
    vertex 248.17327224949412 266.1587083294091 110.64075318107042
    vertex 247.89938736766132 263.2197673474112 110.63934100786284
  endloop
endfacet
facet normal -4.379745350167535e-05 1.6563123732450007e-05 -0.9999999989037232
  outer loop
    vertex 247.89938736766132 263.2197673474112 110.63934100786284
    vertex 248.17327224949412 266.1587083294091 110.64075318107042
    vertex 248.93599828619955 261.8074781246155 110.63895908497929
  endloop
endfacet
facet normal -4.379745350167535e-05 1.6563123732450007e-05 -0.9999999989037232
  outer loop
    vertex 248.93599828619955 261.8074781246155 110.63895908497929
    vertex 248.17327224949412 266.1587083294091 110.64075318107042
    vertex 249.61938589865042 264.6789522054326 110.64033832487812
  endloop
endfacet
facet normal -4.379745350167535e-05 1.6563123732450007e-05 -0.9999999989037232
  outer loop
    vertex 248.93599828619955 261.8074781246155 110.63895908497929
    vertex 249.61938589865042 264.6789522054326 110.64033832487812
    vertex 249.76427729583395 260.2637553663892 110.63855405568896
  endloop
endfacet
facet normal -4.379745350167535e-05 1.6563123732450007e-05 -0.9999999989037232
  outer loop
    vertex 249.76427729583395 260.2637553663892 110.63855405568896
    vertex 249.61938589865042 264.6789522054326 110.64033832487812
    vertex 250.8436568671096 263.0109930284467 110.63988726163393
  endloop
endfacet
facet normal -4.379745350167535e-05 1.6563123732450007e-05 -0.9999999989037232
  outer loop
    vertex 249.76427729583395 260.2637553663892 110.63855405568896
    vertex 250.8436568671096 263.0109930284467 110.63988726163393
    vertex 250.3678491556654 258.6191187523008 110.63813392738693
  endloop
endfacet
facet normal -4.379745350167535e-05 1.6563123732450007e-05 -0.9999999989037232
  outer loop
    vertex 250.3678491556654 258.6191187523008 110.63813392738693
    vertex 250.8436568671096 263.0109930284467 110.63988726163393
    vertex 250.73478112772693 256.90608305304136 110.63770749411407
  endloop
endfacet
facet normal -4.379745350167535e-05 1.6563123732450007e-05 -0.9999999989037232
  outer loop
    vertex 250.73478112772693 256.90608305304136 110.63770749411407
    vertex 250.8436568671096 263.0109930284467 110.63988726163393
    vertex 250.7907028925046 256.1117979629116 110.63751767506237
  endloop
endfacet
facet normal -4.379745350167535e-05 1.6563123732450007e-05 -0.9999999989037232
  outer loop
    vertex 250.7907028925046 256.1117979629116 110.63751767506237
    vertex 250.8436568671096 263.0109930284467 110.63988726163393
    vertex 250.85890821792893 255.14304362752551 110.63807682344422
  endloop
endfacet
facet normal -4.379745350167535e-05 1.6563123732450007e-05 -0.9999999989037232
  outer loop
    vertex 250.85890821792893 255.14304362752551 110.63807682344422
    vertex 250.8436568671096 263.0109930284467 110.63988726163393
    vertex 251.82188109637502 261.1878066530883 110.6394089089388
  endloop
endfacet
facet normal -4.379745350167535e-05 1.6563123732450007e-05 -0.9999999989037232
  outer loop
    vertex 250.85890821792893 255.14304362752551 110.63807682344422
    vertex 251.82188109637502 261.1878066530883 110.6394089089388
    vertex 251.82173523524403 249.0982579448742 110.63919940777393
  endloop
endfacet
facet normal -4.379745350167535e-05 1.6563123732450007e-05 -0.9999999989037232
  outer loop
    vertex 251.82173523524403 249.0982579448742 110.63919940777393
    vertex 251.82188109637502 261.1878066530883 110.6394089089388
    vertex 252.53461992473112 251.04060960877123 110.63877054150969
  endloop
endfacet
facet normal -4.379745350167535e-05 1.6563123732450007e-05 -0.9999999989037232
  outer loop
    vertex 252.53461992473112 251.04060960877123 110.63877054150969
    vertex 251.82188109637502 261.1878066530883 110.6394089089388
    vertex 252.5347189164759 259.2454378037952 110.63891272391095
  endloop
endfacet
facet normal -4.379745350167535e-05 1.6563123732450007e-05 -0.9999999989037232
  outer loop
    vertex 252.53461992473112 251.04060960877123 110.63877054150969
    vertex 252.5347189164759 259.2454378037952 110.63891272391095
    vertex 252.9680272217591 253.06374950717043 110.63833645244075
  endloop
endfacet
facet normal -4.379745350167535e-05 1.6563123732450007e-05 -0.9999999989037232
  outer loop
    vertex 252.9680272217591 253.06374950717043 110.63833645244075
    vertex 252.5347189164759 259.2454378037952 110.63891272391095
    vertex 252.96807739476932 257.22228746407393 110.63840851621813
  endloop
endfacet
facet normal -4.379745350167535e-05 1.6563123732450007e-05 -0.9999999989037232
  outer loop
    vertex 252.9680272217591 253.06374950717043 110.63833645244075
    vertex 252.96807739476932 257.22228746407393 110.63840851621813
    vertex 253.11338858566123 255.1276797983164 110.63790572258728
  endloop
endfacet
facet normal -4.379745350167535e-05 1.6563123732450007e-05 -0.9999999989037232
  outer loop
    vertex 253.11338858566123 255.1276797983164 110.63790572258728
    vertex 252.96807739476932 257.22228746407393 110.63840851621813
    vertex 253.0407331752564 256.1903205730921 110.63815738517832
  endloop
endfacet
facet normal -4.379745350167535e-05 1.6563123732450007e-05 -0.9999999989037232
  outer loop
    vertex 253.11338858566123 255.1276797983164 110.63790572258728
    vertex 253.0407331752564 256.1903205730921 110.63815738517832
    vertex 253.11338895574352 255.15835368210995 110.6379062541385
  endloop
endfacet
facet normal -4.379745350167535e-05 1.6563123732450007e-05 -0.9999999989037232
  outer loop
    vertex 218.11351840960563 255.160868348982 110.63933495856911
    vertex 218.3052880887155 252.9245076979305 110.63977964154085
    vertex 218.1135179890332 255.1260096330088 110.63933435449844
  endloop
endfacet
facet normal -4.379745350167535e-05 1.6563123732450007e-05 -0.9999999989037232
  outer loop
    vertex 218.3052880887155 252.9245076979305 110.63977964154085
    vertex 218.11351840960563 255.160868348982 110.63933495856911
    vertex 218.305341631738 257.3623656392297 110.63985654568603
  endloop
endfacet
facet normal -4.379745350167535e-05 1.6563123732450007e-05 -0.9999999989037232
  outer loop
    vertex 218.3052880887155 252.9245076979305 110.63977964154085
    vertex 218.305341631738 257.3623656392297 110.63985654568603
    vertex 218.8746177910869 250.78926810051723 110.64019588288022
  endloop
endfacet
facet normal -4.379745350167535e-05 1.6563123732450007e-05 -0.9999999989037232
  outer loop
    vertex 218.8746177910869 250.78926810051723 110.64019588288022
    vertex 218.305341631738 257.3623656392297 110.63985654568603
    vertex 218.8747228575314 259.49759148231783 110.64034679040684
  endloop
endfacet
facet normal -4.379745350167535e-05 1.6563123732450007e-05 -0.9999999989037232
  outer loop
    vertex 218.8746177910869 250.78926810051723 110.64019588288022
    vertex 218.8747228575314 259.49759148231783 110.64034679040684
    vertex 219.8043757449994 248.78454102685217 110.64057055365345
  endloop
endfacet
facet normal -4.379745350167535e-05 1.6563123732450007e-05 -0.9999999989037232
  outer loop
    vertex 219.8043757449994 248.78454102685217 110.64057055365345
    vertex 218.8747228575314 259.49759148231783 110.64034679040684
    vertex 219.80452918547795 261.5022961060386 110.64079094107802
  endloop
endfacet
facet normal -4.379745350167535e-05 1.6563123732450007e-05 -0.9999999989037232
  outer loop
    vertex 219.8043757449994 248.78454102685217 110.64057055365345
    vertex 219.80452918547795 261.5022961060386 110.64079094107802
    vertex 221.06658517369618 246.9706494906593 110.64089237986944
  endloop
endfacet
facet normal -4.379745350167535e-05 1.6563123732450007e-05 -0.9999999989037232
  outer loop
    vertex 221.06658517369618 246.9706494906593 110.64089237986944
    vertex 219.80452918547795 261.5022961060386 110.64079094107802
    vertex 220.37113876121936 255.1505721785176 110.6395369532052
  endloop
endfacet
facet normal -4.379745350167535e-05 1.6563123732450007e-05 -0.9999999989037232
  outer loop
    vertex 221.06658517369618 246.9706494906593 110.64089237986944
    vertex 220.37113876121936 255.1505721785176 110.6395369532052
    vertex 220.52979341003643 253.31491176101358 110.63960851014679
  endloop
endfacet
facet normal -4.379745350167535e-05 1.6563123732450007e-05 -0.9999999989037232
  outer loop
    vertex 221.06658517369618 246.9706494906593 110.64089237986944
    vertex 220.52979341003643 253.31491176101358 110.63960851014679
    vertex 220.99818870848367 251.5582210696399 110.63995095757117
  endloop
endfacet
facet normal -4.379745350167535e-05 1.6563123732450007e-05 -0.9999999989037232
  outer loop
    vertex 221.06658517369618 246.9706494906593 110.64089237986944
    vertex 220.99818870848367 251.5582210696399 110.63995095757117
    vertex 221.76311321504323 249.90890485657826 110.64025920431807
  endloop
endfacet
facet normal -4.379745350167535e-05 1.6563123732450007e-05 -0.9999999989037232
  outer loop
    vertex 221.06658517369618 246.9706494906593 110.64089237986944
    vertex 221.76311321504323 249.90890485657826 110.64025920431807
    vertex 222.62326570684218 245.40217419044305 110.64115167765492
  endloop
endfacet
facet normal -4.379745350167535e-05 1.6563123732450007e-05 -0.9999999989037232
  outer loop
    vertex 222.62326570684218 245.40217419044305 110.64115167765492
    vertex 221.76311321504323 249.90890485657826 110.64025920431807
    vertex 222.8015500281102 248.41659169263423 110.64052397509693
  endloop
endfacet
facet normal -4.379745350167535e-05 1.6563123732450007e-05 -0.9999999989037232
  outer loop
    vertex 222.62326570684218 245.40217419044305 110.64115167765492
    vertex 222.8015500281102 248.41659169263423 110.64052397509693
    vertex 224.4275762245629 244.1263111551866 110.64134064464025
  endloop
endfacet
facet normal -4.379745350167535e-05 1.6563123732450007e-05 -0.9999999989037232
  outer loop
    vertex 224.4275762245629 244.1263111551866 110.64134064464025
    vertex 222.8015500281102 248.41659169263423 110.64052397509693
    vertex 224.08225215476077 247.12618585160644 110.64073730289837
  endloop
endfacet
facet normal -4.379745350167535e-05 1.6563123732450007e-05 -0.9999999989037232
  outer loop
    vertex 224.4275762245629 244.1263111551866 110.64134064464025
    vertex 224.08225215476077 247.12618585160644 110.64073730289837
    vertex 225.14266794000096 246.37634523986154 110.6408483611508
  endloop
endfacet
facet normal -4.379745350167535e-05 1.6563123732450007e-05 -0.9999999989037232
  outer loop
    vertex 224.4275762245629 244.1263111551866 110.64134064464025
    vertex 225.14266794000096 246.37634523986154 110.6408483611508
    vertex 248.1730064409704 244.12744426776655 110.64037139878903
  endloop
endfacet
facet normal -4.379745350167535e-05 1.6563123732450007e-05 -0.9999999989037232
  outer loop
    vertex 248.1730064409704 244.12744426776655 110.64037139878903
    vertex 225.14266794000096 246.37634523986154 110.6408483611508
    vertex 247.22582832601478 246.3773990302798 110.63994696617185
  endloop
endfacet
facet normal -4.379745350167535e-05 1.6563123732450007e-05 -0.9999999989037232
  outer loop
    vertex 248.1730064409704 244.12744426776655 110.64037139878903
    vertex 247.22582832601478 246.3773990302798 110.63994696617185
    vertex 247.89918889501115 247.06639144577488 110.63977767907457
  endloop
endfacet
facet normal -4.379745350167535e-05 1.6563123732450007e-05 -0.9999999989037232
  outer loop
    vertex 248.1730064409704 244.12744426776655 110.64037139878903
    vertex 247.89918889501115 247.06639144577488 110.63977767907457
    vertex 248.93583389196476 248.47865566701452 110.63944470319902
  endloop
endfacet
facet normal -4.379745350167535e-05 1.6563123732450007e-05 -0.9999999989037232
  outer loop
    vertex 248.1730064409704 244.12744426776655 110.64037139878903
    vertex 248.93583389196476 248.47865566701452 110.63944470319902
    vertex 249.61915579639881 245.60716550990554 110.64000782771674
  endloop
endfacet
facet normal -4.379745350167535e-05 1.6563123732450007e-05 -0.9999999989037232
  outer loop
    vertex 249.61915579639881 245.60716550990554 110.64000782771674
    vertex 248.93583389196476 248.47865566701452 110.63944470319902
    vertex 249.76415015158048 250.02235845144276 110.63909317625718
  endloop
endfacet
facet normal -4.379745350167535e-05 1.6563123732450007e-05 -0.9999999989037232
  outer loop
    vertex 249.61915579639881 245.60716550990554 110.64000782771674
    vertex 249.76415015158048 250.02235845144276 110.63909317625718
    vertex 250.843467012557 247.27509515923236 110.6396145724695
  endloop
endfacet
facet normal -4.379745350167535e-05 1.6563123732450007e-05 -0.9999999989037232
  outer loop
    vertex 250.843467012557 247.27509515923236 110.6396145724695
    vertex 249.76415015158048 250.02235845144276 110.63909317625718
    vertex 250.36776169652012 251.66698051437655 110.638730047893
  endloop
endfacet
facet normal -4.379745350167535e-05 1.6563123732450007e-05 -0.9999999989037232
  outer loop
    vertex 250.843467012557 247.27509515923236 110.6396145724695
    vertex 250.36776169652012 251.66698051437655 110.638730047893
    vertex 250.73473500419288 253.3800073726921 110.63836249733608
  endloop
endfacet
facet normal -4.379745350167535e-05 1.6563123732450007e-05 -0.9999999989037232
  outer loop
    vertex 250.843467012557 247.27509515923236 110.6396145724695
    vertex 250.73473500419288 253.3800073726921 110.63836249733608
    vertex 250.85890821792893 255.14304362752551 110.63807682344422
  endloop
endfacet
facet normal -4.379745350167535e-05 1.6563123732450007e-05 -0.9999999989037232
  outer loop
    vertex 250.843467012557 247.27509515923236 110.6396145724695
    vertex 250.85890821792893 255.14304362752551 110.63807682344422
    vertex 251.82173523524403 249.0982579448742 110.63919940777393
  endloop
endfacet
facet normal -0.9071729959422271 0.4207578320746525 4.6701633601286e-05
  outer loop
    vertex 219.80461675053863 261.50226299164 112.6400743441397
    vertex 218.8747228575314 259.49759148231783 110.64034679040684
    vertex 218.874810422592 259.4975583679192 112.63963019346852
  endloop
endfacet
facet normal -0.9071729959422271 0.4207578320746525 4.6701633601286e-05
  outer loop
    vertex 218.8747228575314 259.49759148231783 110.64034679040684
    vertex 219.80461675053863 261.50226299164 112.6400743441397
    vertex 219.80452918547795 261.5022961060386 110.64079094107802
  endloop
endfacet
facet normal -0.9662363305784765 0.25765743012746267 4.658704890165326e-05
  outer loop
    vertex 218.874810422592 259.4975583679192 112.63963019346852
    vertex 218.305341631738 257.3623656392297 110.63985654568603
    vertex 218.3054291967986 257.3623325248311 112.63913994874771
  endloop
endfacet
facet normal -0.9662363305784765 0.25765743012746267 4.658704890165326e-05
  outer loop
    vertex 218.305341631738 257.3623656392297 110.63985654568603
    vertex 218.874810422592 259.4975583679192 112.63963019346852
    vertex 218.8747228575314 259.49759148231783 110.64034679040684
  endloop
endfacet
facet normal -0.5773374559051634 0.8165056402148847 3.881024693281935e-05
  outer loop
    vertex 222.62358832847826 264.8845617847392 112.64077269380142
    vertex 224.42784206734132 266.1604143884775 110.64172247612188
    vertex 222.62350076341764 264.884594899138 110.64148929073983
  endloop
endfacet
facet normal -0.5773374559051634 0.8165056402148847 3.881024693281935e-05
  outer loop
    vertex 224.42784206734132 266.1604143884775 110.64172247612188
    vertex 222.62358832847826 264.8845617847392 112.64077269380142
    vertex 224.42792963240194 266.16038127407904 112.64100587918357
  endloop
endfacet
facet normal 0.9387769356829587 0.3445255633125384 -3.541033872210605e-05
  outer loop
    vertex 252.5347189164759 259.2454378037952 110.63891272391095
    vertex 251.8219686614355 261.18777353868984 112.63869231200049
    vertex 252.53480648153658 259.24540468939693 112.63819612697263
  endloop
endfacet
facet normal 0.9387769356829587 0.3445255633125384 -3.541033872210605e-05
  outer loop
    vertex 251.8219686614355 261.18777353868984 112.63869231200049
    vertex 252.5347189164759 259.2454378037952 110.63891272391095
    vertex 251.82188109637502 261.1878066530883 110.6394089089388
  endloop
endfacet
facet normal 0.8811745403074984 0.4727911045773895 -3.076297678208241e-05
  outer loop
    vertex 251.82188109637502 261.1878066530883 110.6394089089388
    vertex 250.84374443217027 263.01095991404793 112.63917066469551
    vertex 251.8219686614355 261.18777353868984 112.63869231200049
  endloop
endfacet
facet normal 0.8811745403074984 0.4727911045773895 -3.076297678208241e-05
  outer loop
    vertex 250.84374443217027 263.01095991404793 112.63917066469551
    vertex 251.82188109637502 261.1878066530883 110.6394089089388
    vertex 250.8436568671096 263.0109930284467 110.63988726163393
  endloop
endfacet
facet normal 0.9999999989680755 -1.2064299557661784e-05 -4.3798422903672113e-05
  outer loop
    vertex 253.11338858566123 255.1276797983164 110.63790572258728
    vertex 253.113476520804 255.15832056771134 112.6371896572001
    vertex 253.11347615072188 255.12764668391762 112.63718912564886
  endloop
endfacet
facet normal 0.9999999989680755 -1.2064299557661784e-05 -4.3798422903672113e-05
  outer loop
    vertex 253.113476520804 255.15832056771134 112.6371896572001
    vertex 253.11338858566123 255.1276797983164 110.63790572258728
    vertex 253.11338895574352 255.15835368210995 110.6379062541385
  endloop
endfacet
facet normal -0.7097534473644506 0.7044501700804586 4.2753842396320284e-05
  outer loop
    vertex 222.62358832847826 264.8845617847392 112.64077269380142
    vertex 221.0667823832278 263.31615717219546 110.64117563303168
    vertex 221.06686994828829 263.3161240577965 112.64045903609328
  endloop
endfacet
facet normal -0.7097534473644506 0.7044501700804586 4.2753842396320284e-05
  outer loop
    vertex 221.0667823832278 263.31615717219546 110.64117563303168
    vertex 222.62358832847826 264.8845617847392 112.64077269380142
    vertex 222.62350076341764 264.884594899138 110.64148929073983
  endloop
endfacet
facet normal 0.9387686220275986 -0.3445482144838257 -4.682319573415328e-05
  outer loop
    vertex 251.82173523524403 249.0982579448742 110.63919940777393
    vertex 252.5347074897918 251.04057649437263 112.63805394457138
    vertex 251.82182280030452 249.09822483047597 112.63848281083553
  endloop
endfacet
facet normal 0.9387686220275986 -0.3445482144838257 -4.682319573415328e-05
  outer loop
    vertex 252.5347074897918 251.04057649437263 112.63805394457138
    vertex 251.82173523524403 249.0982579448742 110.63919940777393
    vertex 252.53461992473112 251.04060960877123 110.63877054150969
  endloop
endfacet
facet normal -0.8208125320163844 0.5711976761355889 4.541095403740031e-05
  outer loop
    vertex 221.06686994828829 263.3161240577965 112.64045903609328
    vertex 219.80452918547795 261.5022961060386 110.64079094107802
    vertex 219.80461675053863 261.50226299164 112.6400743441397
  endloop
endfacet
facet normal -0.8208125320163844 0.5711976761355889 4.541095403740031e-05
  outer loop
    vertex 219.80452918547795 261.5022961060386 110.64079094107802
    vertex 221.06686994828829 263.3161240577965 112.64045903609328
    vertex 221.0667823832278 263.31615717219546 110.64117563303168
  endloop
endfacet
facet normal -0.9962253933348524 0.08680416835299684 4.507065112035813e-05
  outer loop
    vertex 218.3054291967986 257.3623325248311 112.63913994874771
    vertex 218.11351840960563 255.160868348982 110.63933495856911
    vertex 218.1136059746662 255.1608352345834 112.63861836163079
  endloop
endfacet
facet normal -0.9962253933348524 0.08680416835299684 4.507065112035813e-05
  outer loop
    vertex 218.11351840960563 255.160868348982 110.63933495856911
    vertex 218.3054291967986 257.3623325248311 112.63913994874771
    vertex 218.305341631738 257.3623656392297 110.63985654568603
  endloop
endfacet
facet normal 0.806136899968257 -0.5917290735419498 -4.510825168894387e-05
  outer loop
    vertex 249.61915579639881 245.60716550990554 110.64000782771674
    vertex 250.84355457761768 247.2750620448336 112.63889797553118
    vertex 249.6192433614593 245.60713239550694 112.63929123077843
  endloop
endfacet
facet normal 0.806136899968257 -0.5917290735419498 -4.510825168894387e-05
  outer loop
    vertex 250.84355457761768 247.2750620448336 112.63889797553118
    vertex 249.61915579639881 245.60716550990554 110.64000782771674
    vertex 250.843467012557 247.27509515923236 110.6396145724695
  endloop
endfacet
facet normal 0.7151731496742585 -0.6989473257296179 -4.290007126091103e-05
  outer loop
    vertex 248.1730064409704 244.12744426776655 110.64037139878903
    vertex 249.6192433614593 245.60713239550694 112.63929123077843
    vertex 248.17309400603105 244.12741115336812 112.63965480185081
  endloop
endfacet
facet normal 0.7151731496742585 -0.6989473257296179 -4.290007126091103e-05
  outer loop
    vertex 249.6192433614593 245.60713239550694 112.63929123077843
    vertex 248.1730064409704 244.12744426776655 110.64037139878903
    vertex 249.61915579639881 245.60716550990554 110.64000782771674
  endloop
endfacet
facet normal -0.9999999989680755 1.206429995305943e-05 4.3798422881108314e-05
  outer loop
    vertex 218.1136059746662 255.1608352345834 112.63861836163079
    vertex 218.1135179890332 255.1260096330088 110.63933435449844
    vertex 218.1136055540937 255.1259765186102 112.63861775756013
  endloop
endfacet
facet normal -0.9999999989680755 1.206429995305943e-05 4.3798422881108314e-05
  outer loop
    vertex 218.1135179890332 255.1260096330088 110.63933435449844
    vertex 218.1136059746662 255.1608352345834 112.63861836163079
    vertex 218.11351840960563 255.160868348982 110.63933495856911
  endloop
endfacet
facet normal 4.7718508882435756e-05 -0.9999999987242687 -1.656522372298103e-05
  outer loop
    vertex 248.17309400603105 244.12741115336812 112.63965480185081
    vertex 224.4275762245629 244.1263111551866 110.64134064464025
    vertex 248.1730064409704 244.12744426776655 110.64037139878903
  endloop
endfacet
facet normal 4.7718508882435756e-05 -0.9999999987242687 -1.656522372298103e-05
  outer loop
    vertex 224.4275762245629 244.1263111551866 110.64134064464025
    vertex 248.17309400603105 244.12741115336812 112.63965480185081
    vertex 224.4276637896235 244.1262780407882 112.64062404770193
  endloop
endfacet
facet normal 0.9778196116114942 0.2094488137921141 -3.935763281771709e-05
  outer loop
    vertex 252.96807739476932 257.22228746407393 110.63840851621813
    vertex 252.53480648153658 259.24540468939693 112.63819612697263
    vertex 252.9681649598298 257.2222543496755 112.63769191927982
  endloop
endfacet
facet normal 0.9778196116114942 0.2094488137921141 -3.935763281771709e-05
  outer loop
    vertex 252.53480648153658 259.24540468939693 112.63819612697263
    vertex 252.96807739476932 257.22228746407393 110.63840851621813
    vertex 252.5347189164759 259.2454378037952 110.63891272391095
  endloop
endfacet
facet normal -0.577357158195715 -0.8164917095364698 1.1763556264496375e-05
  outer loop
    vertex 224.4275762245629 244.1263111551866 110.64134064464025
    vertex 222.62335327190266 245.4021410760448 112.6404350807165
    vertex 222.62326570684218 245.40217419044305 110.64115167765492
  endloop
endfacet
facet normal -0.577357158195715 -0.8164917095364698 1.1763556264496375e-05
  outer loop
    vertex 222.62335327190266 245.4021410760448 112.6404350807165
    vertex 224.4275762245629 244.1263111551866 110.64134064464025
    vertex 224.4276637896235 244.1262780407882 112.64062404770193
  endloop
endfacet
facet normal 0.7151900149841613 0.6989300695183949 -1.9747579545628568e-05
  outer loop
    vertex 249.61938589865042 264.6789522054326 110.64033832487812
    vertex 248.1733598145547 266.15867521501065 112.6400365841321
    vertex 249.6194734637109 264.67891909103383 112.6396217279397
  endloop
endfacet
facet normal 0.7151900149841613 0.6989300695183949 -1.9747579545628568e-05
  outer loop
    vertex 248.1733598145547 266.15867521501065 112.6400365841321
    vertex 249.61938589865042 264.6789522054326 110.64033832487812
    vertex 248.17327224949412 266.1587083294091 110.64075318107042
  endloop
endfacet
facet normal 0.997529037167109 -0.07025537699429893 -4.485364859935338e-05
  outer loop
    vertex 252.9680272217591 253.06374950717043 110.63833645244075
    vertex 253.11347615072188 255.12764668391762 112.63718912564886
    vertex 252.96811478681977 253.0637163927722 112.63761985550244
  endloop
endfacet
facet normal 0.997529037167109 -0.07025537699429893 -4.485364859935338e-05
  outer loop
    vertex 253.11347615072188 255.12764668391762 112.63718912564886
    vertex 252.9680272217591 253.06374950717043 110.63833645244075
    vertex 253.11338858566123 255.1276797983164 110.63790572258728
  endloop
endfacet
facet normal -0.7097704456997321 -0.7044330443939322 1.941906553156997e-05
  outer loop
    vertex 221.06667273875678 246.97061637626032 112.64017578293112
    vertex 222.62326570684218 245.40217419044305 110.64115167765492
    vertex 222.62335327190266 245.4021410760448 112.6404350807165
  endloop
endfacet
facet normal -0.7097704456997321 -0.7044330443939322 1.941906553156997e-05
  outer loop
    vertex 222.62326570684218 245.40217419044305 110.64115167765492
    vertex 221.06667273875678 246.97061637626032 112.64017578293112
    vertex 221.06658517369618 246.9706494906593 110.64089237986944
  endloop
endfacet
facet normal 7.184856632224318e-05 0.9999999972817752 1.6559986873648954e-05
  outer loop
    vertex 224.42784206734132 266.1604143884775 110.64172247612188
    vertex 248.1733598145547 266.15867521501065 112.6400365841321
    vertex 248.17327224949412 266.1587083294091 110.64075318107042
  endloop
endfacet
facet normal 7.184856632224318e-05 0.9999999972817752 1.6559986873648954e-05
  outer loop
    vertex 248.1733598145547 266.15867521501065 112.6400365841321
    vertex 224.42784206734132 266.1604143884775 110.64172247612188
    vertex 224.42792963240194 266.16038127407904 112.64100587918357
  endloop
endfacet
facet normal -0.996227487636582 -0.08678013077215141 4.2195642870562914e-05
  outer loop
    vertex 218.1136055540937 255.1259765186102 112.63861775756013
    vertex 218.3052880887155 252.9245076979305 110.63977964154085
    vertex 218.30537565377617 252.92447458353206 112.63906304460254
  endloop
endfacet
facet normal -0.996227487636582 -0.08678013077215141 4.2195642870562914e-05
  outer loop
    vertex 218.3052880887155 252.9245076979305 110.63977964154085
    vertex 218.1136055540937 255.1259765186102 112.63861775756013
    vertex 218.1135179890332 255.1260096330088 110.63933435449844
  endloop
endfacet
facet normal 0.9975307321410017 0.07023130801648511 -4.2526822981556736e-05
  outer loop
    vertex 253.0407331752564 256.1903205730921 110.63815738517832
    vertex 252.9681649598298 257.2222543496755 112.63769191927982
    vertex 253.04082074031692 256.1902874586933 112.63744078823991
  endloop
endfacet
facet normal 0.9975307321410017 0.07023130801648511 -4.2526822981556736e-05
  outer loop
    vertex 252.9681649598298 257.2222543496755 112.63769191927982
    vertex 253.0407331752564 256.1903205730921 110.63815738517832
    vertex 252.96807739476932 257.22228746407393 110.63840851621813
  endloop
endfacet
facet normal 0.9975307321410022 0.070231308016479 -4.25268229783863e-05
  outer loop
    vertex 253.11338895574352 255.15835368210995 110.6379062541385
    vertex 253.04082074031692 256.1902874586933 112.63744078823991
    vertex 253.113476520804 255.15832056771134 112.6371896572001
  endloop
endfacet
facet normal 0.9975307321410022 0.070231308016479 -4.25268229783863e-05
  outer loop
    vertex 253.04082074031692 256.1902874586933 112.63744078823991
    vertex 253.11338895574352 255.15835368210995 110.6379062541385
    vertex 253.0407331752564 256.1903205730921 110.63815738517832
  endloop
endfacet
facet normal 0.9778145573304969 -0.20947240708322273 -4.629605969936641e-05
  outer loop
    vertex 252.53461992473112 251.04060960877123 110.63877054150969
    vertex 252.96811478681977 253.0637163927722 112.63761985550244
    vertex 252.5347074897918 251.04057649437263 112.63805394457138
  endloop
endfacet
facet normal 0.9778145573304969 -0.20947240708322273 -4.629605969936641e-05
  outer loop
    vertex 252.96811478681977 253.0637163927722 112.63761985550244
    vertex 252.53461992473112 251.04060960877123 110.63877054150969
    vertex 252.9680272217591 253.06374950717043 110.63833645244075
  endloop
endfacet
facet normal -0.8208263149000299 -0.5711778707774875 2.649023848557146e-05
  outer loop
    vertex 219.80446331006 248.7845079124534 112.63985395671504
    vertex 221.06658517369618 246.9706494906593 110.64089237986944
    vertex 221.06667273875678 246.97061637626032 112.64017578293112
  endloop
endfacet
facet normal -0.8208263149000299 -0.5711778707774875 2.649023848557146e-05
  outer loop
    vertex 221.06658517369618 246.9706494906593 110.64089237986944
    vertex 219.80446331006 248.7845079124534 112.63985395671504
    vertex 219.8043757449994 248.78454102685217 110.64057055365345
  endloop
endfacet
facet normal 0.8061511780917416 0.5917096225435824 -2.550742344051962e-05
  outer loop
    vertex 250.8436568671096 263.0109930284467 110.63988726163393
    vertex 249.6194734637109 264.67891909103383 112.6396217279397
    vertex 250.84374443217027 263.01095991404793 112.63917066469551
  endloop
endfacet
facet normal 0.8061511780917416 0.5917096225435824 -2.550742344051962e-05
  outer loop
    vertex 249.6194734637109 264.67891909103383 112.6396217279397
    vertex 250.8436568671096 263.0109930284467 110.63988726163393
    vertex 249.61938589865042 264.6789522054326 110.64033832487812
  endloop
endfacet
facet normal 0.8811631316433673 -0.47281236582518366 -4.642463392937544e-05
  outer loop
    vertex 250.843467012557 247.27509515923236 110.6396145724695
    vertex 251.82182280030452 249.09822483047597 112.63848281083553
    vertex 250.84355457761768 247.2750620448336 112.63889797553118
  endloop
endfacet
facet normal 0.8811631316433673 -0.47281236582518366 -4.642463392937544e-05
  outer loop
    vertex 251.82182280030452 249.09822483047597 112.63848281083553
    vertex 250.843467012557 247.27509515923236 110.6396145724695
    vertex 251.82173523524403 249.0982579448742 110.63919940777393
  endloop
endfacet
facet normal -0.907183148642192 -0.42073594301668493 3.276430422154814e-05
  outer loop
    vertex 218.8747053561475 250.78923498611883 112.6394792859419
    vertex 219.8043757449994 248.78454102685217 110.64057055365345
    vertex 219.80446331006 248.7845079124534 112.63985395671504
  endloop
endfacet
facet normal -0.907183148642192 -0.42073594301668493 3.276430422154814e-05
  outer loop
    vertex 219.8043757449994 248.78454102685217 110.64057055365345
    vertex 218.8747053561475 250.78923498611883 112.6394792859419
    vertex 218.8746177910869 250.78926810051723 110.64019588288022
  endloop
endfacet
facet normal -0.9662425476066753 -0.25763411603778563 3.805247839135386e-05
  outer loop
    vertex 218.30537565377617 252.92447458353206 112.63906304460254
    vertex 218.8746177910869 250.78926810051723 110.64019588288022
    vertex 218.8747053561475 250.78923498611883 112.6394792859419
  endloop
endfacet
facet normal -0.9662425476066753 -0.25763411603778563 3.805247839135386e-05
  outer loop
    vertex 218.8746177910869 250.78926810051723 110.64019588288022
    vertex 218.30537565377617 252.92447458353206 112.63906304460254
    vertex 218.3052880887155 252.9245076979305 110.63977964154085
  endloop
endfacet
facet normal -0.9662363303517186 0.257657432948873 3.398001564645703e-05
  outer loop
    vertex 220.52984111323775 256.9719074697928 110.63895817761234
    vertex 220.99809850128472 258.7284382306646 106.63935862557926
    vertex 220.52966081377286 256.9717588545151 106.63895818443676
  endloop
endfacet
facet normal -0.9662363303517186 0.257657432948873 3.398001564645703e-05
  outer loop
    vertex 220.99809850128472 258.7284382306646 106.63935862557926
    vertex 220.52984111323775 256.9719074697928 110.63895817761234
    vertex 220.9982788007496 258.72858684594235 110.63935861875494
  endloop
endfacet
facet normal -0.9071729948287652 0.42075783630901753 2.525794074764419e-05
  outer loop
    vertex 220.9982788007496 258.72858684594235 110.63935861875494
    vertex 221.76306280581232 260.3777359738355 106.63972403438267
    vertex 220.99809850128472 258.7284382306646 106.63935862557926
  endloop
endfacet
facet normal -0.9071729948287652 0.42075783630901753 2.525794074764419e-05
  outer loop
    vertex 221.76306280581232 260.3777359738355 106.63972403438267
    vertex 220.9982788007496 258.72858684594235 110.63935861875494
    vertex 221.7632431052772 260.3778845891133 110.63972402755843
  endloop
endfacet
facet normal -0.8208125298146646 0.5711976808867253 1.5775839502468332e-05
  outer loop
    vertex 221.7632431052772 260.3778845891133 110.63972402755843
    vertex 222.80153562826277 261.87002406965405 106.6400405256563
    vertex 221.76306280581232 260.3777359738355 106.63972403438267
  endloop
endfacet
facet normal -0.8208125298146646 0.5711976808867253 1.5775839502468332e-05
  outer loop
    vertex 222.80153562826277 261.87002406965405 106.6400405256563
    vertex 221.7632431052772 260.3778845891133 110.63972402755843
    vertex 222.80171592772766 261.8701726849318 110.64004051883197
  endloop
endfacet
facet normal -0.7097534443079178 0.7044501744333566 5.819026939094291e-06
  outer loop
    vertex 222.80171592772766 261.8701726849318 110.64004051883197
    vertex 224.0822688921758 263.1603989986281 106.64029857610139
    vertex 222.80153562826277 261.87002406965405 106.6400405256563
  endloop
endfacet
facet normal -0.7097534443079178 0.7044501744333566 5.819026939094291e-06
  outer loop
    vertex 224.0822688921758 263.1603989986281 106.64029857610139
    vertex 222.80171592772766 261.8701726849318 110.64004051883197
    vertex 224.08244919164076 263.16054761390643 110.64029856927705
  endloop
endfacet
facet normal -4.507431866642664e-05 -3.7153827909032334e-05 -0.9999999982939496
  outer loop
    vertex 220.52966081377286 256.9717588545151 106.63895818443676
    vertex 220.52961311057166 253.31476314573547 106.63960851697111
    vertex 220.37095846175453 255.15042356323966 106.63953696002952
  endloop
endfacet
facet normal -4.507431866642664e-05 -3.7153827909032334e-05 -0.9999999982939496
  outer loop
    vertex 220.52961311057166 253.31476314573547 106.63960851697111
    vertex 220.52966081377286 256.9717588545151 106.63895818443676
    vertex 220.99800840901864 251.55807245436216 106.6399509643955
  endloop
endfacet
facet normal -4.507431866642664e-05 -3.7153827909032334e-05 -0.9999999982939496
  outer loop
    vertex 220.99800840901864 251.55807245436216 106.6399509643955
    vertex 220.52966081377286 256.9717588545151 106.63895818443676
    vertex 220.99809850128472 258.7284382306646 106.63935862557926
  endloop
endfacet
facet normal -4.507431866642664e-05 -3.7153827909032334e-05 -0.9999999982939496
  outer loop
    vertex 220.99800840901864 251.55807245436216 106.6399509643955
    vertex 220.99809850128472 258.7284382306646 106.63935862557926
    vertex 221.76293291557835 249.9087562413007 106.64025921114239
  endloop
endfacet
facet normal -4.507431866642664e-05 -3.7153827909032334e-05 -0.9999999982939496
  outer loop
    vertex 221.76293291557835 249.9087562413007 106.64025921114239
    vertex 220.99809850128472 258.7284382306646 106.63935862557926
    vertex 221.76306280581232 260.3777359738355 106.63972403438267
  endloop
endfacet
facet normal -4.507431866642664e-05 -3.7153827909032334e-05 -0.9999999982939496
  outer loop
    vertex 221.76293291557835 249.9087562413007 106.64025921114239
    vertex 221.76306280581232 260.3777359738355 106.63972403438267
    vertex 222.8013697286454 248.41644307735578 106.64052398192116
  endloop
endfacet
facet normal -4.507431866642664e-05 -3.7153827909032334e-05 -0.9999999982939496
  outer loop
    vertex 222.8013697286454 248.41644307735578 106.64052398192116
    vertex 221.76306280581232 260.3777359738355 106.63972403438267
    vertex 222.80153562826277 261.87002406965405 106.6400405256563
  endloop
endfacet
facet normal -4.507431866642664e-05 -3.7153827909032334e-05 -0.9999999982939496
  outer loop
    vertex 222.8013697286454 248.41644307735578 106.64052398192116
    vertex 222.80153562826277 261.87002406965405 106.6400405256563
    vertex 224.08207185529594 247.1260372363287 106.64073730972271
  endloop
endfacet
facet normal -4.507431866642664e-05 -3.7153827909032334e-05 -0.9999999982939496
  outer loop
    vertex 224.08207185529594 247.1260372363287 106.64073730972271
    vertex 222.80153562826277 261.87002406965405 106.6400405256563
    vertex 224.0822688921758 263.1603989986281 106.64029857610139
  endloop
endfacet
facet normal -4.507431866642664e-05 -3.7153827909032334e-05 -0.9999999982939496
  outer loop
    vertex 224.08207185529594 247.1260372363287 106.64073730972271
    vertex 224.0822688921758 263.1603989986281 106.64029857610139
    vertex 225.14248764053607 246.37619662458363 106.64084836797504
  endloop
endfacet
facet normal -4.507431866642664e-05 -3.7153827909032334e-05 -0.9999999982939496
  outer loop
    vertex 225.14248764053607 246.37619662458363 106.64084836797504
    vertex 224.0822688921758 263.1603989986281 106.64029857610139
    vertex 225.14270277081792 263.91021401787117 106.64043562205677
  endloop
endfacet
facet normal -4.507431866642664e-05 -3.7153827909032334e-05 -0.9999999982939496
  outer loop
    vertex 225.14248764053607 246.37619662458363 106.64084836797504
    vertex 225.14270277081792 263.91021401787117 106.64043562205677
    vertex 247.2256480265499 246.37725041500224 106.63994697299617
  endloop
endfacet
facet normal -4.507431866642664e-05 -3.7153827909032334e-05 -0.9999999982939496
  outer loop
    vertex 247.2256480265499 246.37725041500224 106.63994697299617
    vertex 225.14270277081792 263.91021401787117 106.64043562205677
    vertex 247.22586312490046 263.9086273893825 106.63953418132172
  endloop
endfacet
facet normal -4.507431866642664e-05 -3.7153827909032334e-05 -0.9999999982939496
  outer loop
    vertex 247.2256480265499 246.37725041500224 106.63994697299617
    vertex 247.22586312490046 263.9086273893825 106.63953418132172
    vertex 247.89900859554626 247.0662428304975 106.63977768589889
  endloop
endfacet
facet normal -4.507431866642664e-05 -3.7153827909032334e-05 -0.9999999982939496
  outer loop
    vertex 247.89900859554626 247.0662428304975 106.63977768589889
    vertex 247.22586312490046 263.9086273893825 106.63953418132172
    vertex 247.89920706819643 263.2196187321338 106.63934101468708
  endloop
endfacet
facet normal -4.507431866642664e-05 -3.7153827909032334e-05 -0.9999999982939496
  outer loop
    vertex 247.89900859554626 247.0662428304975 106.63977768589889
    vertex 247.89920706819643 263.2196187321338 106.63934101468708
    vertex 248.9356535924998 248.4785070517366 106.63944471002335
  endloop
endfacet
facet normal -4.507431866642664e-05 -3.7153827909032334e-05 -0.9999999982939496
  outer loop
    vertex 248.9356535924998 248.4785070517366 106.63944471002335
    vertex 247.89920706819643 263.2196187321338 106.63934101468708
    vertex 248.93581798673475 261.80732950933776 106.63895909180361
  endloop
endfacet
facet normal -4.507431866642664e-05 -3.7153827909032334e-05 -0.9999999982939496
  outer loop
    vertex 248.9356535924998 248.4785070517366 106.63944471002335
    vertex 248.93581798673475 261.80732950933776 106.63895909180361
    vertex 249.7639698521155 250.02220983616482 106.6390931830815
  endloop
endfacet
facet normal -4.507431866642664e-05 -3.7153827909032334e-05 -0.9999999982939496
  outer loop
    vertex 249.7639698521155 250.02220983616482 106.6390931830815
    vertex 248.93581798673475 261.80732950933776 106.63895909180361
    vertex 249.76409699636915 260.26360675111073 106.63855406251328
  endloop
endfacet
facet normal -4.507431866642664e-05 -3.7153827909032334e-05 -0.9999999982939496
  outer loop
    vertex 249.7639698521155 250.02220983616482 106.6390931830815
    vertex 249.76409699636915 260.26360675111073 106.63855406251328
    vertex 250.36758139705515 251.66683189909915 106.63873005471733
  endloop
endfacet
facet normal -4.507431866642664e-05 -3.7153827909032334e-05 -0.9999999982939496
  outer loop
    vertex 250.36758139705515 251.66683189909915 106.63873005471733
    vertex 249.76409699636915 260.26360675111073 106.63855406251328
    vertex 250.3676688562006 258.6189701370232 106.63813393421127
  endloop
endfacet
facet normal -4.507431866642664e-05 -3.7153827909032334e-05 -0.9999999982939496
  outer loop
    vertex 250.36758139705515 251.66683189909915 106.63873005471733
    vertex 250.3676688562006 258.6189701370232 106.63813393421127
    vertex 250.7345547047279 253.37985875741452 106.63836250416031
  endloop
endfacet
facet normal -4.507431866642664e-05 -3.7153827909032334e-05 -0.9999999982939496
  outer loop
    vertex 250.7345547047279 253.37985875741452 106.63836250416031
    vertex 250.3676688562006 258.6189701370232 106.63813393421127
    vertex 250.73460082826213 256.9059344377638 106.63770750093839
  endloop
endfacet
facet normal -4.507431866642664e-05 -3.7153827909032334e-05 -0.9999999982939496
  outer loop
    vertex 250.7345547047279 253.37985875741452 106.63836250416031
    vertex 250.73460082826213 256.9059344377638 106.63770750093839
    vertex 250.7905225930398 256.1116493476337 106.63751768188669
  endloop
endfacet
facet normal -4.507431866642664e-05 -3.7153827909032334e-05 -0.9999999982939496
  outer loop
    vertex 250.7345547047279 253.37985875741452 106.63836250416031
    vertex 250.7905225930398 256.1116493476337 106.63751768188669
    vertex 250.85872791846393 255.14289501224778 106.63807683026845
  endloop
endfacet
facet normal -0.5773571604310435 -0.8164917060953796 5.63600823003451e-05
  outer loop
    vertex 225.14248764053607 246.37619662458363 106.64084836797504
    vertex 224.08225215476077 247.12618585160644 110.64073730289837
    vertex 224.08207185529594 247.1260372363287 106.64073730972271
  endloop
endfacet
facet normal -0.5773571604310435 -0.8164917060953796 5.63600823003451e-05
  outer loop
    vertex 224.08225215476077 247.12618585160644 110.64073730289837
    vertex 225.14248764053607 246.37619662458363 106.64084836797504
    vertex 225.14266794000096 246.37634523986154 110.6408483611508
  endloop
endfacet
facet normal 0.9975307312814963 0.07023131698765178 -4.757292599329109e-05
  outer loop
    vertex 250.73460082826213 256.9059344377638 106.63770750093839
    vertex 250.7907028925046 256.1117979629116 110.63751767506237
    vertex 250.7905225930398 256.1116493476337 106.63751768188669
  endloop
endfacet
facet normal 0.9975307312814963 0.07023131698765178 -4.757292599329109e-05
  outer loop
    vertex 250.7907028925046 256.1117979629116 110.63751767506237
    vertex 250.73460082826213 256.9059344377638 106.63770750093839
    vertex 250.73478112772693 256.90608305304136 110.63770749411407
  endloop
endfacet
facet normal 0.9975307320961004 0.07023130541741944 -4.7572925624218994e-05
  outer loop
    vertex 250.7905225930398 256.1116493476337 106.63751768188669
    vertex 250.85890821792893 255.14304362752551 110.63807682344422
    vertex 250.85872791846393 255.14289501224778 106.63807683026845
  endloop
endfacet
facet normal 0.9975307320961004 0.07023130541741944 -4.7572925624218994e-05
  outer loop
    vertex 250.85890821792893 255.14304362752551 110.63807682344422
    vertex 250.7905225930398 256.1116493476337 106.63751768188669
    vertex 250.7907028925046 256.1117979629116 110.63751767506237
  endloop
endfacet
facet normal 0.8061369041640917 -0.5917290693710832 -1.435151815901312e-05
  outer loop
    vertex 248.9356535924998 248.4785070517366 106.63944471002335
    vertex 247.89918889501115 247.06639144577488 110.63977767907457
    vertex 247.89900859554626 247.0662428304975 106.63977768589889
  endloop
endfacet
facet normal 0.8061369041640917 -0.5917290693710832 -1.435151815901312e-05
  outer loop
    vertex 247.89918889501115 247.06639144577488 110.63977767907457
    vertex 248.9356535924998 248.4785070517366 106.63944471002335
    vertex 248.93583389196476 248.47865566701452 110.63944470319902
  endloop
endfacet
facet normal 0.9778196104169509 0.20944881664717863 -5.185691170044949e-05
  outer loop
    vertex 250.3676688562006 258.6189701370232 106.63813393421127
    vertex 250.73478112772693 256.90608305304136 110.63770749411407
    vertex 250.73460082826213 256.9059344377638 106.63770750093839
  endloop
endfacet
facet normal 0.9778196104169509 0.20944881664717863 -5.185691170044949e-05
  outer loop
    vertex 250.73478112772693 256.90608305304136 110.63770749411407
    vertex 250.3676688562006 258.6189701370232 106.63813393421127
    vertex 250.3678491556654 258.6191187523008 110.63813392738693
  endloop
endfacet
facet normal 7.184637357737101e-05 0.9999999967287259 -3.715705784509286e-05
  outer loop
    vertex 225.14270277081792 263.91021401787117 106.64043562205677
    vertex 247.22604342436534 263.9087760046603 110.63953417449738
    vertex 247.22586312490046 263.9086273893825 106.63953418132172
  endloop
endfacet
facet normal 7.184637357737101e-05 0.9999999967287259 -3.715705784509286e-05
  outer loop
    vertex 247.22604342436534 263.9087760046603 110.63953417449738
    vertex 225.14270277081792 263.91021401787117 106.64043562205677
    vertex 225.14288307028278 263.9103626331489 110.64043561523245
  endloop
endfacet
facet normal -0.9071831493748506 -0.4207359389159263 5.6523106304213026e-05
  outer loop
    vertex 221.76311321504323 249.90890485657826 110.64025920431807
    vertex 220.99800840901864 251.55807245436216 106.6399509643955
    vertex 221.76293291557835 249.9087562413007 106.64025921114239
  endloop
endfacet
facet normal -0.9071831493748506 -0.4207359389159263 5.6523106304213026e-05
  outer loop
    vertex 220.99800840901864 251.55807245436216 106.6399509643955
    vertex 221.76311321504323 249.90890485657826 110.64025920431807
    vertex 220.99818870848367 251.5582210696399 110.63995095757117
  endloop
endfacet
facet normal -0.9662425476736375 -0.25763411311947093 5.312534500148124e-05
  outer loop
    vertex 220.99818870848367 251.5582210696399 110.63995095757117
    vertex 220.52961311057166 253.31476314573547 106.63960851697111
    vertex 220.99800840901864 251.55807245436216 106.6399509643955
  endloop
endfacet
facet normal -0.9662425476736375 -0.25763411311947093 5.312534500148124e-05
  outer loop
    vertex 220.52961311057166 253.31476314573547 106.63960851697111
    vertex 220.99818870848367 251.5582210696399 110.63995095757117
    vertex 220.52979341003643 253.31491176101358 110.63960851014679
  endloop
endfacet
facet normal 0.9975288933089353 -0.07025742110312311 -4.2353149976574304e-05
  outer loop
    vertex 250.85872791846393 255.14289501224778 106.63807683026845
    vertex 250.73473500419288 253.3800073726921 110.63836249733608
    vertex 250.7345547047279 253.37985875741452 106.63836250416031
  endloop
endfacet
facet normal 0.9975288933089353 -0.07025742110312311 -4.2353149976574304e-05
  outer loop
    vertex 250.73473500419288 253.3800073726921 110.63836249733608
    vertex 250.85872791846393 255.14289501224778 106.63807683026845
    vertex 250.85890821792893 255.14304362752551 110.63807682344422
  endloop
endfacet
facet normal 0.9387769332173874 0.34452556744197993 -5.511568549720026e-05
  outer loop
    vertex 249.76409699636915 260.26360675111073 106.63855406251328
    vertex 250.3678491556654 258.6191187523008 110.63813392738693
    vertex 250.3676688562006 258.6189701370232 106.63813393421127
  endloop
endfacet
facet normal 0.9387769332173874 0.34452556744197993 -5.511568549720026e-05
  outer loop
    vertex 250.3678491556654 258.6191187523008 110.63813392738693
    vertex 249.76409699636915 260.26360675111073 106.63855406251328
    vertex 249.76427729583395 260.2637553663892 110.63855405568896
  endloop
endfacet
facet normal 0.9778145581739934 -0.20947240511789925 -3.629216058043889e-05
  outer loop
    vertex 250.7345547047279 253.37985875741452 106.63836250416031
    vertex 250.36776169652012 251.66698051437655 110.638730047893
    vertex 250.36758139705515 251.66683189909915 106.63873005471733
  endloop
endfacet
facet normal 0.9778145581739934 -0.20947240511789925 -3.629216058043889e-05
  outer loop
    vertex 250.36776169652012 251.66698051437655 110.638730047893
    vertex 250.7345547047279 253.37985875741452 106.63836250416031
    vertex 250.73473500419288 253.3800073726921 110.63836249733608
  endloop
endfacet
facet normal 0.8811745363802589 0.47279110942728775 -5.728481997705868e-05
  outer loop
    vertex 248.93581798673475 261.80732950933776 106.63895909180361
    vertex 249.76427729583395 260.2637553663892 110.63855405568896
    vertex 249.76409699636915 260.26360675111073 106.63855406251328
  endloop
endfacet
facet normal 0.8811745363802589 0.47279110942728775 -5.728481997705868e-05
  outer loop
    vertex 249.76427729583395 260.2637553663892 110.63855405568896
    vertex 248.93581798673475 261.80732950933776 106.63895909180361
    vertex 248.93599828619955 261.8074781246155 110.63895908497929
  endloop
endfacet
facet normal 4.7720701494700914e-05 -0.9999999981712442 3.715166842876535e-05
  outer loop
    vertex 247.22582832601478 246.3773990302798 110.63994696617185
    vertex 225.14248764053607 246.37619662458363 106.64084836797504
    vertex 247.2256480265499 246.37725041500224 106.63994697299617
  endloop
endfacet
facet normal 4.7720701494700914e-05 -0.9999999981712442 3.715166842876535e-05
  outer loop
    vertex 225.14248764053607 246.37619662458363 106.64084836797504
    vertex 247.22582832601478 246.3773990302798 110.63994696617185
    vertex 225.14266794000096 246.37634523986154 110.6408483611508
  endloop
endfacet
facet normal -0.9962252110651826 0.08680626187637108 4.167953399903734e-05
  outer loop
    vertex 220.37113876121936 255.1505721785176 110.6395369532052
    vertex 220.52966081377286 256.9717588545151 106.63895818443676
    vertex 220.37095846175453 255.15042356323966 106.63953696002952
  endloop
endfacet
facet normal -0.9962252110651826 0.08680626187637108 4.167953399903734e-05
  outer loop
    vertex 220.52966081377286 256.9717588545151 106.63895818443676
    vertex 220.37113876121936 255.1505721785176 110.6395369532052
    vertex 220.52984111323775 256.9719074697928 110.63895817761234
  endloop
endfacet
facet normal 4.1991399142975404e-05 -1.6340005626906773e-05 0.9999999989848634
  outer loop
    vertex 220.52988097509703 253.31487864661497 112.63889191320847
    vertex 220.52992509702642 256.971874789766 112.63895817558206
    vertex 220.37122632627995 255.150539064119 112.63882035626688
  endloop
endfacet
facet normal 4.1991399142975404e-05 -1.6340005626906773e-05 0.9999999989848634
  outer loop
    vertex 220.52992509702642 256.971874789766 112.63895817558206
    vertex 220.52988097509703 253.31487864661497 112.63889191320847
    vertex 220.99827627354418 251.55818795524146 112.63923436063286
  endloop
endfacet
facet normal 4.1991399142975404e-05 -1.6340005626906773e-05 0.9999999989848634
  outer loop
    vertex 220.52992509702642 256.971874789766 112.63895817558206
    vertex 220.99827627354418 251.55818795524146 112.63923436063286
    vertex 220.99836278453822 258.72855416591585 112.63935861672465
  endloop
endfacet
facet normal 4.1991399142975404e-05 -1.6340005626906773e-05 0.9999999989848634
  outer loop
    vertex 220.99836278453822 258.72855416591585 112.63935861672465
    vertex 220.99827627354418 251.55818795524146 112.63923436063286
    vertex 221.7632007801038 249.90887174217983 112.63954260737975
  endloop
endfacet
facet normal 4.1991399142975404e-05 -1.6340005626906773e-05 0.9999999989848634
  outer loop
    vertex 220.99836278453822 258.72855416591585 112.63935861672465
    vertex 221.7632007801038 249.90887174217983 112.63954260737975
    vertex 221.76332708906585 260.3778519090868 112.63972402552804
  endloop
endfacet
facet normal 4.1991399142975404e-05 -1.6340005626906773e-05 0.9999999989848634
  outer loop
    vertex 221.76332708906585 260.3778519090868 112.63972402552804
    vertex 221.7632007801038 249.90887174217983 112.63954260737975
    vertex 222.80163759317085 248.41655857823528 112.63980737815861
  endloop
endfacet
facet normal 4.1991399142975404e-05 -1.6340005626906773e-05 0.9999999989848634
  outer loop
    vertex 221.76332708906585 260.3778519090868 112.63972402552804
    vertex 222.80163759317085 248.41655857823528 112.63980737815861
    vertex 222.80179991151624 261.8701400049053 112.64004051680168
  endloop
endfacet
facet normal 4.1991399142975404e-05 -1.6340005626906773e-05 0.9999999989848634
  outer loop
    vertex 222.80179991151624 261.8701400049053 112.64004051680168
    vertex 222.80163759317085 248.41655857823528 112.63980737815861
    vertex 224.08233971982136 247.12615273720783 112.64002070596007
  endloop
endfacet
facet normal 4.1991399142975404e-05 -1.6340005626906773e-05 0.9999999989848634
  outer loop
    vertex 222.80179991151624 261.8701400049053 112.64004051680168
    vertex 224.08233971982136 247.12615273720783 112.64002070596007
    vertex 224.08253317542938 263.16051493387937 112.64029856724677
  endloop
endfacet
facet normal 4.1991399142975404e-05 -1.6340005626906773e-05 0.9999999989848634
  outer loop
    vertex 224.08253317542938 263.16051493387937 112.64029856724677
    vertex 224.08233971982136 247.12615273720783 112.64002070596007
    vertex 225.14275550506156 246.3763121254633 112.6401317642124
  endloop
endfacet
facet normal 4.1991399142975404e-05 -1.6340005626906773e-05 0.9999999989848634
  outer loop
    vertex 224.08253317542938 263.16051493387937 112.64029856724677
    vertex 225.14275550506156 246.3763121254633 112.6401317642124
    vertex 225.14296705407148 263.9103299531224 112.64043561320216
  endloop
endfacet
facet normal 4.1991399142975404e-05 -1.6340005626906773e-05 0.9999999989848634
  outer loop
    vertex 225.14296705407148 263.9103299531224 112.64043561320216
    vertex 225.14275550506156 246.3763121254633 112.6401317642124
    vertex 247.22591589107535 246.37736591588157 112.63923036923343
  endloop
endfacet
facet normal 4.1991399142975404e-05 -1.6340005626906773e-05 0.9999999989848634
  outer loop
    vertex 225.14296705407148 263.9103299531224 112.64043561320216
    vertex 247.22591589107535 246.37736591588157 112.63923036923343
    vertex 247.22612740815396 263.90874332463414 112.6395341724671
  endloop
endfacet
facet normal 4.1991399142975404e-05 -1.6340005626906773e-05 0.9999999989848634
  outer loop
    vertex 247.22612740815396 263.90874332463414 112.6395341724671
    vertex 247.22591589107535 246.37736591588157 112.63923036923343
    vertex 247.89927646007172 247.06635833137628 112.63906108213625
  endloop
endfacet
facet normal 4.1991399142975404e-05 -1.6340005626906773e-05 0.9999999989848634
  outer loop
    vertex 247.22612740815396 263.90874332463414 112.6395341724671
    vertex 247.89927646007172 247.06635833137628 112.63906108213625
    vertex 247.89947135145002 263.21973466738456 112.63934100583246
  endloop
endfacet
facet normal 4.1991399142975404e-05 -1.6340005626906773e-05 0.9999999989848634
  outer loop
    vertex 247.89947135145002 263.21973466738456 112.63934100583246
    vertex 247.89927646007172 247.06635833137628 112.63906108213625
    vertex 248.93592145702524 248.4786225526163 112.63872810626071
  endloop
endfacet
facet normal 4.1991399142975404e-05 -1.6340005626906773e-05 0.9999999989848634
  outer loop
    vertex 247.89947135145002 263.21973466738456 112.63934100583246
    vertex 248.93592145702524 248.4786225526163 112.63872810626071
    vertex 248.93608226998816 261.80744544458867 112.638959082949
  endloop
endfacet
facet normal 4.1991399142975404e-05 -1.6340005626906773e-05 0.9999999989848634
  outer loop
    vertex 248.93608226998816 261.80744544458867 112.638959082949
    vertex 248.93592145702524 248.4786225526163 112.63872810626071
    vertex 249.764237716641 250.02232533704432 112.63837657931886
  endloop
endfacet
facet normal 4.1991399142975404e-05 -1.6340005626906773e-05 0.9999999989848634
  outer loop
    vertex 248.93608226998816 261.80744544458867 112.638959082949
    vertex 249.764237716641 250.02232533704432 112.63837657931886
    vertex 249.76436127962273 260.26372268636254 112.63855405365867
  endloop
endfacet
facet normal 4.1991399142975404e-05 -1.6340005626906773e-05 0.9999999989848634
  outer loop
    vertex 249.76436127962273 260.26372268636254 112.63855405365867
    vertex 249.764237716641 250.02232533704432 112.63837657931886
    vertex 250.36784926158063 251.6669473999783 112.63801345095469
  endloop
endfacet
facet normal 4.1991399142975404e-05 -1.6340005626906773e-05 0.9999999989848634
  outer loop
    vertex 249.76436127962273 260.26372268636254 112.63855405365867
    vertex 250.36784926158063 251.6669473999783 112.63801345095469
    vertex 250.36793313945398 258.61908607227394 112.63813392535664
  endloop
endfacet
facet normal 4.1991399142975404e-05 -1.6340005626906773e-05 0.9999999989848634
  outer loop
    vertex 250.36793313945398 258.61908607227394 112.63813392535664
    vertex 250.36784926158063 251.6669473999783 112.63801345095469
    vertex 250.7348225692534 253.3799742582937 112.63764590039776
  endloop
endfacet
facet normal 4.1991399142975404e-05 -1.6340005626906773e-05 0.9999999989848634
  outer loop
    vertex 250.36793313945398 258.61908607227394 112.63813392535664
    vertex 250.7348225692534 253.3799742582937 112.63764590039776
    vertex 250.73486511151555 256.90605037301503 112.63770749208378
  endloop
endfacet
facet normal 4.1991399142975404e-05 -1.6340005626906773e-05 0.9999999989848634
  outer loop
    vertex 250.73486511151555 256.90605037301503 112.63770749208378
    vertex 250.7348225692534 253.3799742582937 112.63764590039776
    vertex 250.7907868762934 256.1117652828853 112.63751767303208
  endloop
endfacet
facet normal 4.1991399142975404e-05 -1.6340005626906773e-05 0.9999999989848634
  outer loop
    vertex 250.7907868762934 256.1117652828853 112.63751767303208
    vertex 250.7348225692534 253.3799742582937 112.63764590039776
    vertex 250.8589922017175 255.14301094749865 112.63807682141383
  endloop
endfacet
facet normal 0.715190008522576 0.6989300739856985 -5.820501579326862e-05
  outer loop
    vertex 247.22586312490046 263.9086273893825 106.63953418132172
    vertex 247.89938736766132 263.2197673474112 110.63934100786284
    vertex 247.89920706819643 263.2196187321338 106.63934101468708
  endloop
endfacet
facet normal 0.715190008522576 0.6989300739856985 -5.820501579326862e-05
  outer loop
    vertex 247.89938736766132 263.2197673474112 110.63934100786284
    vertex 247.22586312490046 263.9086273893825 106.63953418132172
    vertex 247.22604342436534 263.9087760046603 110.63953417449738
  endloop
endfacet
facet normal -0.9962857922452801 -0.08610817531419804 4.810669647266816e-05
  outer loop
    vertex 220.52979341003643 253.31491176101358 110.63960851014679
    vertex 220.37095846175453 255.15042356323966 106.63953696002952
    vertex 220.52961311057166 253.31476314573547 106.63960851697111
  endloop
endfacet
facet normal -0.9962857922452801 -0.08610817531419804 4.810669647266816e-05
  outer loop
    vertex 220.37095846175453 255.15042356323966 106.63953696002952
    vertex 220.52979341003643 253.31491176101358 110.63960851014679
    vertex 220.37113876121936 255.1505721785176 110.6395369532052
  endloop
endfacet
facet normal -0.5773374526175653 0.8165056434504663 -4.3128948644393025e-06
  outer loop
    vertex 224.08244919164076 263.16054761390643 110.64029856927705
    vertex 225.14270277081792 263.91021401787117 106.64043562205677
    vertex 224.0822688921758 263.1603989986281 106.64029857610139
  endloop
endfacet
facet normal -0.5773374526175653 0.8165056434504663 -4.3128948644393025e-06
  outer loop
    vertex 225.14270277081792 263.91021401787117 106.64043562205677
    vertex 224.08244919164076 263.16054761390643 110.64029856927705
    vertex 225.14288307028278 263.9103626331489 110.64043561523245
  endloop
endfacet
facet normal -0.7097704478355182 -0.7044330401082697 5.8165186113016914e-05
  outer loop
    vertex 224.08225215476077 247.12618585160644 110.64073730289837
    vertex 222.8013697286454 248.41644307735578 106.64052398192116
    vertex 224.08207185529594 247.1260372363287 106.64073730972271
  endloop
endfacet
facet normal -0.7097704478355182 -0.7044330401082697 5.8165186113016914e-05
  outer loop
    vertex 222.8013697286454 248.41644307735578 106.64052398192116
    vertex 224.08225215476077 247.12618585160644 110.64073730289837
    vertex 222.8015500281102 248.41659169263423 110.64052397509693
  endloop
endfacet
facet normal 0.8811631346803455 -0.47281236192555015 -2.215152532859045e-05
  outer loop
    vertex 249.7639698521155 250.02220983616482 106.6390931830815
    vertex 248.93583389196476 248.47865566701452 110.63944470319902
    vertex 248.9356535924998 248.4785070517366 106.63944471002335
  endloop
endfacet
facet normal 0.8811631346803455 -0.47281236192555015 -2.215152532859045e-05
  outer loop
    vertex 248.93583389196476 248.47865566701452 110.63944470319902
    vertex 249.7639698521155 250.02220983616482 106.6390931830815
    vertex 249.76415015158048 250.02235845144276 110.63909317625718
  endloop
endfacet
facet normal -0.8208263164370722 -0.5711778662157442 5.822007584137863e-05
  outer loop
    vertex 222.8015500281102 248.41659169263423 110.64052397509693
    vertex 221.76293291557835 249.9087562413007 106.64025921114239
    vertex 222.8013697286454 248.41644307735578 106.64052398192116
  endloop
endfacet
facet normal -0.8208263164370722 -0.5711778662157442 5.822007584137863e-05
  outer loop
    vertex 221.76293291557835 249.9087562413007 106.64025921114239
    vertex 222.8015500281102 248.41659169263423 110.64052397509693
    vertex 221.76311321504323 249.90890485657826 110.64025920431807
  endloop
endfacet
facet normal 0.8061511727496463 0.5917096274972896 -5.832142898926235e-05
  outer loop
    vertex 247.89920706819643 263.2196187321338 106.63934101468708
    vertex 248.93599828619955 261.8074781246155 110.63895908497929
    vertex 248.93581798673475 261.80732950933776 106.63895909180361
  endloop
endfacet
facet normal 0.8061511727496463 0.5917096274972896 -5.832142898926235e-05
  outer loop
    vertex 248.93599828619955 261.8074781246155 110.63895908497929
    vertex 247.89920706819643 263.2196187321338 106.63934101468708
    vertex 247.89938736766132 263.2197673474112 110.63934100786284
  endloop
endfacet
facet normal 0.9387686238838064 -0.3445482113438595 -2.9513588182052976e-05
  outer loop
    vertex 250.36758139705515 251.66683189909915 106.63873005471733
    vertex 249.76415015158048 250.02235845144276 110.63909317625718
    vertex 249.7639698521155 250.02220983616482 106.6390931830815
  endloop
endfacet
facet normal 0.9387686238838064 -0.3445482113438595 -2.9513588182052976e-05
  outer loop
    vertex 249.76415015158048 250.02235845144276 110.63909317625718
    vertex 250.36758139705515 251.66683189909915 106.63873005471733
    vertex 250.36776169652012 251.66698051437655 110.638730047893
  endloop
endfacet
facet normal 0.7151731548176926 -0.6989473217552407 -6.267771747792344e-06
  outer loop
    vertex 247.89900859554626 247.0662428304975 106.63977768589889
    vertex 247.22582832601478 246.3773990302798 110.63994696617185
    vertex 247.2256480265499 246.37725041500224 106.63994697299617
  endloop
endfacet
facet normal 0.7151731548176926 -0.6989473217552407 -6.267771747792344e-06
  outer loop
    vertex 247.22582832601478 246.3773990302798 110.63994696617185
    vertex 247.89900859554626 247.0662428304975 106.63977768589889
    vertex 247.89918889501115 247.06639144577488 110.63977767907457
  endloop
endfacet
endsolid IoBlaster_sketchup
