solid IoBlaster_sketchup
facet normal 0.9238795325116055 -0.0 -0.38268343236432034
  outer loop
    vertex 183.03073255956883 187.50868705238867 96.99659840214144
    vertex 183.1306329820732 185.5086870523882 97.23777935703887
    vertex 183.03073255956883 185.5086870523882 96.99659840214144
  endloop
endfacet
facet normal 0.9238795325116055 -0.0 -0.38268343236432034
  outer loop
    vertex 183.1306329820732 185.5086870523882 97.23777935703887
    vertex 183.03073255956883 187.50868705238867 96.99659840214144
    vertex 183.1306329820732 187.50868705238867 97.23777935703887
  endloop
endfacet
facet normal -1.3928366796396532e-13 -0.4685971610227085 0.8834119654393742
  outer loop
    vertex 194.4966583858578 187.5086870523882 106.2377793570389
    vertex 173.49665838585867 193.50868705238855 109.42042015898359
    vertex 173.4966583858585 187.5086870523903 106.23777935703386
  endloop
endfacet
facet normal -1.3928366796396532e-13 -0.4685971610227085 0.8834119654393742
  outer loop
    vertex 173.49665838585867 193.50868705238855 109.42042015898359
    vertex 194.4966583858578 187.5086870523882 106.2377793570389
    vertex 194.4966583858578 193.508687052388 109.42042015898376
  endloop
endfacet
facet normal -3.968617435822991e-14 -0.25477721071882586 0.9669997791614717
  outer loop
    vertex 173.49665838585867 193.50868705238855 109.42042015898359
    vertex 194.4966583858571 195.1139136590704 109.84335216603897
    vertex 173.4966583858584 195.11391365906886 109.84335216603716
  endloop
endfacet
facet normal -3.968617435822991e-14 -0.25477721071882586 0.9669997791614717
  outer loop
    vertex 194.4966583858571 195.1139136590704 109.84335216603897
    vertex 173.49665838585867 193.50868705238855 109.42042015898359
    vertex 194.4966583858578 193.508687052388 109.42042015898376
  endloop
endfacet
facet normal 0.991444861373775 -0.0 -0.13052619222032122
  outer loop
    vertex 182.9966583858578 187.50868705238867 96.7377793570389
    vertex 183.03073255956883 185.5086870523882 96.99659840214144
    vertex 182.9966583858578 185.5086870523882 96.7377793570389
  endloop
endfacet
facet normal 0.991444861373775 -0.0 -0.13052619222032122
  outer loop
    vertex 183.03073255956883 185.5086870523882 96.99659840214144
    vertex 182.9966583858578 187.50868705238867 96.7377793570389
    vertex 183.03073255956883 187.50868705238867 96.99659840214144
  endloop
endfacet
facet normal 0.0 -1.0 0.0
  outer loop
    vertex 194.4966583858578 185.5086870523882 90.73777935703892
    vertex 184.49665838585784 185.5086870523882 95.87175395325451
    vertex 173.4966583858576 185.5086870523882 90.73777935703892
  endloop
endfacet
facet normal 0.0 -1.0 0.0
  outer loop
    vertex 184.49665838585784 185.5086870523882 95.87175395325451
    vertex 194.4966583858578 185.5086870523882 90.73777935703892
    vertex 184.70376516704437 185.5086870523882 96.0306725758524
  endloop
endfacet
facet normal 0.0 -1.0 0.0
  outer loop
    vertex 184.70376516704437 185.5086870523882 96.0306725758524
    vertex 194.4966583858578 185.5086870523882 90.73777935703892
    vertex 194.4966583858578 185.5086870523882 104.73777935703889
  endloop
endfacet
facet normal 0.0 -1.0 0.0
  outer loop
    vertex 173.4966583858576 185.5086870523882 90.73777935703892
    vertex 184.49665838585784 185.5086870523882 95.87175395325451
    vertex 184.2554774309603 185.5086870523882 95.77185353074987
  endloop
endfacet
facet normal 0.0 -1.0 0.0
  outer loop
    vertex 173.4966583858576 185.5086870523882 90.73777935703892
    vertex 184.2554774309603 185.5086870523882 95.77185353074987
    vertex 183.9966583858576 185.5086870523882 95.73777935703895
  endloop
endfacet
facet normal 0.0 -1.0 0.0
  outer loop
    vertex 184.70376516704437 185.5086870523882 96.0306725758524
    vertex 194.4966583858578 185.5086870523882 104.73777935703889
    vertex 184.86268378964198 185.5086870523882 96.23777935703893
  endloop
endfacet
facet normal 0.0 -1.0 0.0
  outer loop
    vertex 184.86268378964198 185.5086870523882 96.23777935703893
    vertex 194.4966583858578 185.5086870523882 104.73777935703889
    vertex 184.9625842121467 185.5086870523882 96.47896031193638
  endloop
endfacet
facet normal 0.0 -1.0 0.0
  outer loop
    vertex 184.9625842121467 185.5086870523882 96.47896031193638
    vertex 194.4966583858578 185.5086870523882 104.73777935703889
    vertex 184.99665838585773 185.5086870523882 96.7377793570389
  endloop
endfacet
facet normal 0.0 -1.0 0.0
  outer loop
    vertex 184.99665838585773 185.5086870523882 96.7377793570389
    vertex 194.4966583858578 185.5086870523882 104.73777935703889
    vertex 184.9625842121467 185.5086870523882 96.99659840214144
  endloop
endfacet
facet normal 0.0 -1.0 0.0
  outer loop
    vertex 184.9625842121467 185.5086870523882 96.99659840214144
    vertex 194.4966583858578 185.5086870523882 104.73777935703889
    vertex 184.86268378964198 185.5086870523882 97.23777935703887
  endloop
endfacet
facet normal 0.0 -1.0 0.0
  outer loop
    vertex 184.86268378964198 185.5086870523882 97.23777935703887
    vertex 194.4966583858578 185.5086870523882 104.73777935703889
    vertex 184.70376516704437 185.5086870523882 97.44488613822541
  endloop
endfacet
facet normal 0.0 -1.0 0.0
  outer loop
    vertex 184.70376516704437 185.5086870523882 97.44488613822541
    vertex 194.4966583858578 185.5086870523882 104.73777935703889
    vertex 184.49665838585747 185.5086870523882 97.6038047608233
  endloop
endfacet
facet normal 0.0 -1.0 0.0
  outer loop
    vertex 184.49665838585747 185.5086870523882 97.6038047608233
    vertex 194.4966583858578 185.5086870523882 104.73777935703889
    vertex 184.2554774309603 185.5086870523882 97.70370518332794
  endloop
endfacet
facet normal 0.0 -1.0 0.0
  outer loop
    vertex 184.2554774309603 185.5086870523882 97.70370518332794
    vertex 194.4966583858578 185.5086870523882 104.73777935703889
    vertex 183.9966583858576 185.5086870523882 97.73777935703886
  endloop
endfacet
facet normal 0.0 -1.0 0.0
  outer loop
    vertex 183.9966583858576 185.5086870523882 97.73777935703886
    vertex 194.4966583858578 185.5086870523882 104.73777935703889
    vertex 173.4966583858576 185.5086870523882 104.73777935703455
  endloop
endfacet
facet normal 0.0 -1.0 0.0
  outer loop
    vertex 173.4966583858576 185.5086870523882 90.73777935703892
    vertex 183.28955160467117 185.5086870523882 96.0306725758524
    vertex 173.4966583858576 185.5086870523882 104.73777935703455
  endloop
endfacet
facet normal 0.0 -1.0 0.0
  outer loop
    vertex 183.28955160467117 185.5086870523882 96.0306725758524
    vertex 173.4966583858576 185.5086870523882 90.73777935703892
    vertex 183.4966583858577 185.5086870523882 95.87175395325451
  endloop
endfacet
facet normal 0.0 -1.0 0.0
  outer loop
    vertex 183.4966583858577 185.5086870523882 95.87175395325451
    vertex 173.4966583858576 185.5086870523882 90.73777935703892
    vertex 183.73783934075524 185.5086870523882 95.77185353074987
  endloop
endfacet
facet normal 0.0 -1.0 0.0
  outer loop
    vertex 183.73783934075524 185.5086870523882 95.77185353074987
    vertex 173.4966583858576 185.5086870523882 90.73777935703892
    vertex 183.9966583858576 185.5086870523882 95.73777935703895
  endloop
endfacet
facet normal 0.0 -1.0 0.0
  outer loop
    vertex 173.4966583858576 185.5086870523882 104.73777935703455
    vertex 183.28955160467117 185.5086870523882 96.0306725758524
    vertex 183.1306329820732 185.5086870523882 96.23777935703893
  endloop
endfacet
facet normal 0.0 -1.0 0.0
  outer loop
    vertex 173.4966583858576 185.5086870523882 104.73777935703455
    vertex 183.1306329820732 185.5086870523882 96.23777935703893
    vertex 183.03073255956883 185.5086870523882 96.47896031193638
  endloop
endfacet
facet normal 0.0 -1.0 0.0
  outer loop
    vertex 173.4966583858576 185.5086870523882 104.73777935703455
    vertex 183.03073255956883 185.5086870523882 96.47896031193638
    vertex 182.9966583858578 185.5086870523882 96.7377793570389
  endloop
endfacet
facet normal 0.0 -1.0 0.0
  outer loop
    vertex 173.4966583858576 185.5086870523882 104.73777935703455
    vertex 182.9966583858578 185.5086870523882 96.7377793570389
    vertex 183.03073255956883 185.5086870523882 96.99659840214144
  endloop
endfacet
facet normal 0.0 -1.0 0.0
  outer loop
    vertex 173.4966583858576 185.5086870523882 104.73777935703455
    vertex 183.03073255956883 185.5086870523882 96.99659840214144
    vertex 183.1306329820732 185.5086870523882 97.23777935703887
  endloop
endfacet
facet normal 0.0 -1.0 0.0
  outer loop
    vertex 173.4966583858576 185.5086870523882 104.73777935703455
    vertex 183.1306329820732 185.5086870523882 97.23777935703887
    vertex 183.28955160467117 185.5086870523882 97.44488613822541
  endloop
endfacet
facet normal 0.0 -1.0 0.0
  outer loop
    vertex 173.4966583858576 185.5086870523882 104.73777935703455
    vertex 183.28955160467117 185.5086870523882 97.44488613822541
    vertex 183.4966583858577 185.5086870523882 97.6038047608233
  endloop
endfacet
facet normal 0.0 -1.0 0.0
  outer loop
    vertex 173.4966583858576 185.5086870523882 104.73777935703455
    vertex 183.4966583858577 185.5086870523882 97.6038047608233
    vertex 183.73783934075524 185.5086870523882 97.70370518332794
  endloop
endfacet
facet normal 0.0 -1.0 0.0
  outer loop
    vertex 173.4966583858576 185.5086870523882 104.73777935703455
    vertex 183.73783934075524 185.5086870523882 97.70370518332794
    vertex 183.9966583858576 185.5086870523882 97.73777935703886
  endloop
endfacet
facet normal 0.991444861373775 -0.0 0.13052619222032122
  outer loop
    vertex 183.03073255956883 187.50868705238867 96.47896031193638
    vertex 182.9966583858578 185.5086870523882 96.7377793570389
    vertex 183.03073255956883 185.5086870523882 96.47896031193638
  endloop
endfacet
facet normal 0.991444861373775 -0.0 0.13052619222032122
  outer loop
    vertex 182.9966583858578 185.5086870523882 96.7377793570389
    vertex 183.03073255956883 187.50868705238867 96.47896031193638
    vertex 182.9966583858578 187.50868705238867 96.7377793570389
  endloop
endfacet
facet normal -0.7933533402917204 0.0 -0.6087614290080882
  outer loop
    vertex 184.70376516704437 187.50868705238867 97.44488613822541
    vertex 184.86268378964198 185.5086870523882 97.23777935703887
    vertex 184.70376516704437 185.5086870523882 97.44488613822541
  endloop
endfacet
facet normal -0.7933533402917204 0.0 -0.6087614290080882
  outer loop
    vertex 184.86268378964198 185.5086870523882 97.23777935703887
    vertex 184.70376516704437 187.50868705238867 97.44488613822541
    vertex 184.86268378964198 187.50868705238867 97.23777935703887
  endloop
endfacet
facet normal -0.0 1.0 -0.0
  outer loop
    vertex 173.4966583858576 187.5086870523882 90.73777935703892
    vertex 183.4966583858577 187.50868705238867 95.87175395325451
    vertex 194.4966583858578 187.5086870523882 90.73777935703892
  endloop
endfacet
facet normal -0.0 1.0 -0.0
  outer loop
    vertex 183.4966583858577 187.50868705238867 95.87175395325451
    vertex 173.4966583858576 187.5086870523882 90.73777935703892
    vertex 173.4966583858576 187.5086870523882 100.7377793570389
  endloop
endfacet
facet normal -0.0 1.0 -0.0
  outer loop
    vertex 194.4966583858578 187.5086870523882 90.73777935703892
    vertex 183.4966583858577 187.50868705238867 95.87175395325451
    vertex 183.73783934075524 187.50868705238867 95.77185353074987
  endloop
endfacet
facet normal -0.0 1.0 -0.0
  outer loop
    vertex 194.4966583858578 187.5086870523882 90.73777935703892
    vertex 183.73783934075524 187.50868705238867 95.77185353074987
    vertex 183.9966583858576 187.50868705238867 95.73777935703895
  endloop
endfacet
facet normal -0.0 1.0 -0.0
  outer loop
    vertex 183.4966583858577 187.50868705238867 95.87175395325451
    vertex 173.4966583858576 187.5086870523882 100.7377793570389
    vertex 183.28955160467117 187.50868705238867 96.0306725758524
  endloop
endfacet
facet normal -0.0 1.0 -0.0
  outer loop
    vertex 183.28955160467117 187.50868705238867 96.0306725758524
    vertex 173.4966583858576 187.5086870523882 100.7377793570389
    vertex 183.1306329820732 187.50868705238867 96.23777935703893
  endloop
endfacet
facet normal -0.0 1.0 -0.0
  outer loop
    vertex 183.1306329820732 187.50868705238867 96.23777935703893
    vertex 173.4966583858576 187.5086870523882 100.7377793570389
    vertex 183.03073255956883 187.50868705238867 96.47896031193638
  endloop
endfacet
facet normal -0.0 1.0 -0.0
  outer loop
    vertex 183.03073255956883 187.50868705238867 96.47896031193638
    vertex 173.4966583858576 187.5086870523882 100.7377793570389
    vertex 182.9966583858578 187.50868705238867 96.7377793570389
  endloop
endfacet
facet normal -0.0 1.0 -0.0
  outer loop
    vertex 182.9966583858578 187.50868705238867 96.7377793570389
    vertex 173.4966583858576 187.5086870523882 100.7377793570389
    vertex 183.03073255956883 187.50868705238867 96.99659840214144
  endloop
endfacet
facet normal -0.0 1.0 -0.0
  outer loop
    vertex 183.03073255956883 187.50868705238867 96.99659840214144
    vertex 173.4966583858576 187.5086870523882 100.7377793570389
    vertex 183.1306329820732 187.50868705238867 97.23777935703887
  endloop
endfacet
facet normal -0.0 1.0 -0.0
  outer loop
    vertex 183.1306329820732 187.50868705238867 97.23777935703887
    vertex 173.4966583858576 187.5086870523882 100.7377793570389
    vertex 183.28955160467117 187.50868705238867 97.44488613822541
  endloop
endfacet
facet normal -0.0 1.0 -0.0
  outer loop
    vertex 183.28955160467117 187.50868705238867 97.44488613822541
    vertex 173.4966583858576 187.5086870523882 100.7377793570389
    vertex 183.4966583858577 187.50868705238867 97.6038047608233
  endloop
endfacet
facet normal -0.0 1.0 -0.0
  outer loop
    vertex 183.4966583858577 187.50868705238867 97.6038047608233
    vertex 173.4966583858576 187.5086870523882 100.7377793570389
    vertex 183.73783934075524 187.50868705238867 97.70370518332794
  endloop
endfacet
facet normal -0.0 1.0 -0.0
  outer loop
    vertex 183.73783934075524 187.50868705238867 97.70370518332794
    vertex 173.4966583858576 187.5086870523882 100.7377793570389
    vertex 183.9966583858576 187.50868705238867 97.73777935703886
  endloop
endfacet
facet normal -0.0 1.0 -0.0
  outer loop
    vertex 194.4966583858578 187.5086870523882 90.73777935703892
    vertex 184.49665838585784 187.50868705238867 95.87175395325451
    vertex 194.4966583858578 187.5086870523882 100.7377793570389
  endloop
endfacet
facet normal -0.0 1.0 -0.0
  outer loop
    vertex 184.49665838585784 187.50868705238867 95.87175395325451
    vertex 194.4966583858578 187.5086870523882 90.73777935703892
    vertex 184.2554774309603 187.50868705238867 95.77185353074987
  endloop
endfacet
facet normal -0.0 1.0 -0.0
  outer loop
    vertex 184.2554774309603 187.50868705238867 95.77185353074987
    vertex 194.4966583858578 187.5086870523882 90.73777935703892
    vertex 183.9966583858576 187.50868705238867 95.73777935703895
  endloop
endfacet
facet normal -0.0 1.0 -0.0
  outer loop
    vertex 194.4966583858578 187.5086870523882 100.7377793570389
    vertex 184.49665838585784 187.50868705238867 95.87175395325451
    vertex 184.70376516704437 187.50868705238867 96.0306725758524
  endloop
endfacet
facet normal -0.0 1.0 -0.0
  outer loop
    vertex 194.4966583858578 187.5086870523882 100.7377793570389
    vertex 184.70376516704437 187.50868705238867 96.0306725758524
    vertex 184.86268378964198 187.50868705238867 96.23777935703893
  endloop
endfacet
facet normal -0.0 1.0 -0.0
  outer loop
    vertex 194.4966583858578 187.5086870523882 100.7377793570389
    vertex 184.86268378964198 187.50868705238867 96.23777935703893
    vertex 184.9625842121467 187.50868705238867 96.47896031193638
  endloop
endfacet
facet normal -0.0 1.0 -0.0
  outer loop
    vertex 194.4966583858578 187.5086870523882 100.7377793570389
    vertex 184.9625842121467 187.50868705238867 96.47896031193638
    vertex 184.99665838585773 187.50868705238867 96.7377793570389
  endloop
endfacet
facet normal -0.0 1.0 -0.0
  outer loop
    vertex 194.4966583858578 187.5086870523882 100.7377793570389
    vertex 184.99665838585773 187.50868705238867 96.7377793570389
    vertex 184.9625842121467 187.50868705238867 96.99659840214144
  endloop
endfacet
facet normal -0.0 1.0 -0.0
  outer loop
    vertex 194.4966583858578 187.5086870523882 100.7377793570389
    vertex 184.9625842121467 187.50868705238867 96.99659840214144
    vertex 184.86268378964198 187.50868705238867 97.23777935703887
  endloop
endfacet
facet normal -0.0 1.0 -0.0
  outer loop
    vertex 194.4966583858578 187.5086870523882 100.7377793570389
    vertex 184.86268378964198 187.50868705238867 97.23777935703887
    vertex 184.70376516704437 187.50868705238867 97.44488613822541
  endloop
endfacet
facet normal -0.0 1.0 -0.0
  outer loop
    vertex 194.4966583858578 187.5086870523882 100.7377793570389
    vertex 184.70376516704437 187.50868705238867 97.44488613822541
    vertex 184.49665838585747 187.50868705238867 97.6038047608233
  endloop
endfacet
facet normal -0.0 1.0 -0.0
  outer loop
    vertex 194.4966583858578 187.5086870523882 100.7377793570389
    vertex 184.49665838585747 187.50868705238867 97.6038047608233
    vertex 184.2554774309603 187.50868705238867 97.70370518332794
  endloop
endfacet
facet normal -0.0 1.0 -0.0
  outer loop
    vertex 194.4966583858578 187.5086870523882 100.7377793570389
    vertex 184.2554774309603 187.50868705238867 97.70370518332794
    vertex 183.9966583858576 187.50868705238867 97.73777935703886
  endloop
endfacet
facet normal -0.0 1.0 -0.0
  outer loop
    vertex 194.4966583858578 187.5086870523882 100.7377793570389
    vertex 183.9966583858576 187.50868705238867 97.73777935703886
    vertex 173.4966583858576 187.5086870523882 100.7377793570389
  endloop
endfacet
facet normal -0.991444861373775 0.0 -0.13052619222032122
  outer loop
    vertex 184.9625842121467 187.50868705238867 96.99659840214144
    vertex 184.99665838585773 185.5086870523882 96.7377793570389
    vertex 184.9625842121467 185.5086870523882 96.99659840214144
  endloop
endfacet
facet normal -0.991444861373775 0.0 -0.13052619222032122
  outer loop
    vertex 184.99665838585773 185.5086870523882 96.7377793570389
    vertex 184.9625842121467 187.50868705238867 96.99659840214144
    vertex 184.99665838585773 187.50868705238867 96.7377793570389
  endloop
endfacet
facet normal 0.6087614290087409 -0.0 0.7933533402912198
  outer loop
    vertex 183.4966583858577 185.5086870523882 95.87175395325451
    vertex 183.28955160467117 187.50868705238867 96.0306725758524
    vertex 183.28955160467117 185.5086870523882 96.0306725758524
  endloop
endfacet
facet normal 0.6087614290087409 -0.0 0.7933533402912198
  outer loop
    vertex 183.28955160467117 187.50868705238867 96.0306725758524
    vertex 183.4966583858577 185.5086870523882 95.87175395325451
    vertex 183.4966583858577 187.50868705238867 95.87175395325451
  endloop
endfacet
facet normal -0.7933533402917204 0.0 0.6087614290080882
  outer loop
    vertex 184.86268378964198 187.50868705238867 96.23777935703893
    vertex 184.70376516704437 185.5086870523882 96.0306725758524
    vertex 184.86268378964198 185.5086870523882 96.23777935703893
  endloop
endfacet
facet normal -0.7933533402917204 0.0 0.6087614290080882
  outer loop
    vertex 184.70376516704437 185.5086870523882 96.0306725758524
    vertex 184.86268378964198 187.50868705238867 96.23777935703893
    vertex 184.70376516704437 187.50868705238867 96.0306725758524
  endloop
endfacet
facet normal -0.3826834323655723 0.0 -0.9238795325110871
  outer loop
    vertex 184.49665838585747 187.50868705238867 97.6038047608233
    vertex 184.2554774309603 185.5086870523882 97.70370518332794
    vertex 184.2554774309603 187.50868705238867 97.70370518332794
  endloop
endfacet
facet normal -0.3826834323655723 0.0 -0.9238795325110871
  outer loop
    vertex 184.2554774309603 185.5086870523882 97.70370518332794
    vertex 184.49665838585747 187.50868705238867 97.6038047608233
    vertex 184.49665838585747 185.5086870523882 97.6038047608233
  endloop
endfacet
facet normal -0.13052619221989198 -0.0 0.9914448613738315
  outer loop
    vertex 184.2554774309603 185.5086870523882 95.77185353074987
    vertex 183.9966583858576 187.50868705238867 95.73777935703895
    vertex 183.9966583858576 185.5086870523882 95.73777935703895
  endloop
endfacet
facet normal -0.13052619221989198 -0.0 0.9914448613738315
  outer loop
    vertex 183.9966583858576 187.50868705238867 95.73777935703895
    vertex 184.2554774309603 185.5086870523882 95.77185353074987
    vertex 184.2554774309603 187.50868705238867 95.77185353074987
  endloop
endfacet
facet normal 0.13052619222007092 -0.0 0.9914448613738079
  outer loop
    vertex 183.9966583858576 185.5086870523882 95.73777935703895
    vertex 183.73783934075524 187.50868705238867 95.77185353074987
    vertex 183.73783934075524 185.5086870523882 95.77185353074987
  endloop
endfacet
facet normal 0.13052619222007092 -0.0 0.9914448613738079
  outer loop
    vertex 183.73783934075524 187.50868705238867 95.77185353074987
    vertex 183.9966583858576 185.5086870523882 95.73777935703895
    vertex 183.9966583858576 187.50868705238867 95.73777935703895
  endloop
endfacet
facet normal 2.1055749736357413e-13 4.511946372075099e-14 -1.0
  outer loop
    vertex 194.49665838585747 195.50868705238818 104.7377793570388
    vertex 173.4966583858576 193.50868705238855 104.73777935703428
    vertex 173.4966583858576 195.50868705238602 104.73777935703455
  endloop
endfacet
facet normal 2.1055749736357413e-13 4.511946372075099e-14 -1.0
  outer loop
    vertex 173.4966583858576 193.50868705238855 104.73777935703428
    vertex 194.49665838585747 195.50868705238818 104.7377793570388
    vertex 194.4966583858578 193.508687052388 104.73777935703889
  endloop
endfacet
facet normal 0.38268343236508334 -0.0 0.9238795325112895
  outer loop
    vertex 183.73783934075524 185.5086870523882 95.77185353074987
    vertex 183.4966583858577 187.50868705238867 95.87175395325451
    vertex 183.4966583858577 185.5086870523882 95.87175395325451
  endloop
endfacet
facet normal 0.38268343236508334 -0.0 0.9238795325112895
  outer loop
    vertex 183.4966583858577 187.50868705238867 95.87175395325451
    vertex 183.73783934075524 185.5086870523882 95.77185353074987
    vertex 183.73783934075524 187.50868705238867 95.77185353074987
  endloop
endfacet
facet normal -0.9238795325111167 0.0 0.38268343236550056
  outer loop
    vertex 184.9625842121467 187.50868705238867 96.47896031193638
    vertex 184.86268378964198 185.5086870523882 96.23777935703893
    vertex 184.9625842121467 185.5086870523882 96.47896031193638
  endloop
endfacet
facet normal -0.9238795325111167 0.0 0.38268343236550056
  outer loop
    vertex 184.86268378964198 185.5086870523882 96.23777935703893
    vertex 184.9625842121467 187.50868705238867 96.47896031193638
    vertex 184.86268378964198 187.50868705238867 96.23777935703893
  endloop
endfacet
facet normal 1.0 -0.0 -0.0
  outer loop
    vertex 194.4966583858578 187.5086870523882 90.73777935703892
    vertex 194.4966583858578 185.5086870523882 104.73777935703889
    vertex 194.4966583858578 185.5086870523882 90.73777935703892
  endloop
endfacet
facet normal 1.0 -0.0 -0.0
  outer loop
    vertex 194.4966583858578 185.5086870523882 104.73777935703889
    vertex 194.4966583858578 187.5086870523882 90.73777935703892
    vertex 194.4966583858578 187.5086870523882 106.2377793570389
  endloop
endfacet
facet normal 1.0 -0.0 -0.0
  outer loop
    vertex 194.4966583858578 187.5086870523882 106.2377793570389
    vertex 194.4966583858578 187.5086870523882 90.73777935703892
    vertex 194.4966583858578 187.5086870523882 100.7377793570389
  endloop
endfacet
facet normal 1.0 -0.0 -0.0
  outer loop
    vertex 194.4966583858578 187.5086870523882 106.2377793570389
    vertex 194.4966583858578 187.5086870523882 100.7377793570389
    vertex 194.4966583858578 187.5086870523882 104.73777935703889
  endloop
endfacet
facet normal -0.6087614290080731 0.0 -0.7933533402917321
  outer loop
    vertex 184.70376516704437 187.50868705238867 97.44488613822541
    vertex 184.49665838585747 185.5086870523882 97.6038047608233
    vertex 184.49665838585747 187.50868705238867 97.6038047608233
  endloop
endfacet
facet normal -0.6087614290080731 0.0 -0.7933533402917321
  outer loop
    vertex 184.49665838585747 185.5086870523882 97.6038047608233
    vertex 184.70376516704437 187.50868705238867 97.44488613822541
    vertex 184.70376516704437 185.5086870523882 97.44488613822541
  endloop
endfacet
facet normal 0.7933533402910528 -0.0 -0.6087614290089585
  outer loop
    vertex 183.1306329820732 187.50868705238867 97.23777935703887
    vertex 183.28955160467117 185.5086870523882 97.44488613822541
    vertex 183.1306329820732 185.5086870523882 97.23777935703887
  endloop
endfacet
facet normal 0.7933533402910528 -0.0 -0.6087614290089585
  outer loop
    vertex 183.28955160467117 185.5086870523882 97.44488613822541
    vertex 183.1306329820732 187.50868705238867 97.23777935703887
    vertex 183.28955160467117 187.50868705238867 97.44488613822541
  endloop
endfacet
facet normal -0.6087614290087409 -0.0 0.7933533402912198
  outer loop
    vertex 184.70376516704437 185.5086870523882 96.0306725758524
    vertex 184.49665838585784 187.50868705238867 95.87175395325451
    vertex 184.49665838585784 185.5086870523882 95.87175395325451
  endloop
endfacet
facet normal -0.6087614290087409 -0.0 0.7933533402912198
  outer loop
    vertex 184.49665838585784 187.50868705238867 95.87175395325451
    vertex 184.70376516704437 185.5086870523882 96.0306725758524
    vertex 184.70376516704437 187.50868705238867 96.0306725758524
  endloop
endfacet
facet normal 2.2794669477996837e-13 -0.44721359549993994 -0.8944271909999251
  outer loop
    vertex 174.49665838585756 197.29754143438603 103.84335216603483
    vertex 194.49665838585747 195.50868705238818 104.7377793570388
    vertex 173.4966583858576 195.50868705238602 104.73777935703455
  endloop
endfacet
facet normal 2.2794669477996837e-13 -0.44721359549993994 -0.8944271909999251
  outer loop
    vertex 194.49665838585747 195.50868705238818 104.7377793570388
    vertex 174.49665838585756 197.29754143438603 103.84335216603483
    vertex 193.49665838585742 197.297541434388 103.84335216603871
  endloop
endfacet
facet normal -0.38268343236508334 -0.0 0.9238795325112895
  outer loop
    vertex 184.49665838585784 185.5086870523882 95.87175395325451
    vertex 184.2554774309603 187.50868705238867 95.77185353074987
    vertex 184.2554774309603 185.5086870523882 95.77185353074987
  endloop
endfacet
facet normal -0.38268343236508334 -0.0 0.9238795325112895
  outer loop
    vertex 184.2554774309603 187.50868705238867 95.77185353074987
    vertex 184.49665838585784 185.5086870523882 95.87175395325451
    vertex 184.49665838585784 187.50868705238867 95.87175395325451
  endloop
endfacet
facet normal 0.0 0.0 -1.0
  outer loop
    vertex 194.4966583858578 187.5086870523882 90.73777935703892
    vertex 173.4966583858576 185.5086870523882 90.73777935703892
    vertex 173.4966583858576 187.5086870523882 90.73777935703892
  endloop
endfacet
facet normal 0.0 0.0 -1.0
  outer loop
    vertex 173.4966583858576 185.5086870523882 90.73777935703892
    vertex 194.4966583858578 187.5086870523882 90.73777935703892
    vertex 194.4966583858578 185.5086870523882 90.73777935703892
  endloop
endfacet
facet normal 1.0 1.7739158112825245e-13 3.747694043866425e-14
  outer loop
    vertex 194.49665838585747 195.50868705238818 104.7377793570388
    vertex 194.4966583858578 193.508687052388 109.42042015898376
    vertex 194.4966583858578 193.508687052388 104.73777935703889
  endloop
endfacet
facet normal 1.0 1.7739158112825245e-13 3.747694043866425e-14
  outer loop
    vertex 194.4966583858578 193.508687052388 109.42042015898376
    vertex 194.49665838585747 195.50868705238818 104.7377793570388
    vertex 194.4966583858571 195.1139136590704 109.84335216603897
  endloop
endfacet
facet normal 1.0 1.7739158112825245e-13 3.747694043866425e-14
  outer loop
    vertex 194.4966583858571 195.1139136590704 109.84335216603897
    vertex 194.49665838585747 195.50868705238818 104.7377793570388
    vertex 194.49665838585693 198.06147345688828 109.84335216603888
  endloop
endfacet
facet normal -7.519910620127676e-14 -4.5922186638089996e-14 1.0
  outer loop
    vertex 173.4966583858584 195.11391365906886 109.84335216603716
    vertex 194.49665838585693 198.06147345688828 109.84335216603888
    vertex 173.49665838585767 198.06147345688612 109.84335216603753
  endloop
endfacet
facet normal -7.519910620127676e-14 -4.5922186638089996e-14 1.0
  outer loop
    vertex 194.49665838585693 198.06147345688828 109.84335216603888
    vertex 173.4966583858584 195.11391365906886 109.84335216603716
    vertex 194.4966583858571 195.1139136590704 109.84335216603897
  endloop
endfacet
facet normal 9.832949971773979e-14 0.5547001962250024 -0.8320502943379948
  outer loop
    vertex 194.4966583858578 193.508687052388 104.73777935703889
    vertex 173.4966583858576 187.5086870523882 100.7377793570389
    vertex 173.4966583858576 193.50868705238855 104.73777935703428
  endloop
endfacet
facet normal 9.832949971773979e-14 0.5547001962250024 -0.8320502943379948
  outer loop
    vertex 173.4966583858576 187.5086870523882 100.7377793570389
    vertex 194.4966583858578 193.508687052388 104.73777935703889
    vertex 194.4966583858578 187.5086870523882 100.7377793570389
  endloop
endfacet
facet normal 1.0 -0.0 -0.0
  outer loop
    vertex 194.4966583858578 193.508687052388 104.73777935703889
    vertex 194.4966583858578 187.5086870523882 104.73777935703889
    vertex 194.4966583858578 187.5086870523882 100.7377793570389
  endloop
endfacet
facet normal 0.9238795325116055 -0.0 0.38268343236432034
  outer loop
    vertex 183.1306329820732 187.50868705238867 96.23777935703893
    vertex 183.03073255956883 185.5086870523882 96.47896031193638
    vertex 183.1306329820732 185.5086870523882 96.23777935703893
  endloop
endfacet
facet normal 0.9238795325116055 -0.0 0.38268343236432034
  outer loop
    vertex 183.03073255956883 185.5086870523882 96.47896031193638
    vertex 183.1306329820732 187.50868705238867 96.23777935703893
    vertex 183.03073255956883 187.50868705238867 96.47896031193638
  endloop
endfacet
facet normal 0.7933533402910528 -0.0 0.6087614290089585
  outer loop
    vertex 183.28955160467117 187.50868705238867 96.0306725758524
    vertex 183.1306329820732 185.5086870523882 96.23777935703893
    vertex 183.28955160467117 185.5086870523882 96.0306725758524
  endloop
endfacet
facet normal 0.7933533402910528 -0.0 0.6087614290089585
  outer loop
    vertex 183.1306329820732 185.5086870523882 96.23777935703893
    vertex 183.28955160467117 187.50868705238867 96.0306725758524
    vertex 183.1306329820732 187.50868705238867 96.23777935703893
  endloop
endfacet
facet normal 0.8944271909999029 0.4000000000000646 -0.19999999999992976
  outer loop
    vertex 193.49665838585742 197.297541434388 103.84335216603871
    vertex 194.49665838585693 198.06147345688828 109.84335216603888
    vertex 194.49665838585747 195.50868705238818 104.7377793570388
  endloop
endfacet
facet normal 0.8944271909999029 0.4000000000000646 -0.19999999999992976
  outer loop
    vertex 194.49665838585693 198.06147345688828 109.84335216603888
    vertex 193.49665838585742 197.297541434388 103.84335216603871
    vertex 193.4966583858567 200.29754143438805 109.84335216603888
  endloop
endfacet
facet normal -3.3305140302593756e-14 -3.2284860156149297e-13 1.0
  outer loop
    vertex 194.49665838585693 198.06147345688828 109.84335216603888
    vertex 174.49665838585756 200.29754143438805 109.84335216603897
    vertex 173.49665838585767 198.06147345688612 109.84335216603753
  endloop
endfacet
facet normal -3.3305140302593756e-14 -3.2284860156149297e-13 1.0
  outer loop
    vertex 174.49665838585756 200.29754143438805 109.84335216603897
    vertex 194.49665838585693 198.06147345688828 109.84335216603888
    vertex 193.4966583858567 200.29754143438805 109.84335216603888
  endloop
endfacet
facet normal -0.8944271909999968 0.39999999999987723 -0.19999999999988413
  outer loop
    vertex 173.49665838585767 198.06147345688612 109.84335216603753
    vertex 174.49665838585756 197.29754143438603 103.84335216603483
    vertex 173.4966583858576 195.50868705238602 104.73777935703455
  endloop
endfacet
facet normal -0.8944271909999968 0.39999999999987723 -0.19999999999988413
  outer loop
    vertex 174.49665838585756 197.29754143438603 103.84335216603483
    vertex 173.49665838585767 198.06147345688612 109.84335216603753
    vertex 174.49665838585756 200.29754143438805 109.84335216603897
  endloop
endfacet
facet normal 0.13052619222007092 0.0 -0.9914448613738079
  outer loop
    vertex 183.9966583858576 187.50868705238867 97.73777935703886
    vertex 183.73783934075524 185.5086870523882 97.70370518332794
    vertex 183.73783934075524 187.50868705238867 97.70370518332794
  endloop
endfacet
facet normal 0.13052619222007092 0.0 -0.9914448613738079
  outer loop
    vertex 183.73783934075524 185.5086870523882 97.70370518332794
    vertex 183.9966583858576 187.50868705238867 97.73777935703886
    vertex 183.9966583858576 185.5086870523882 97.73777935703886
  endloop
endfacet
facet normal 0.6087614290087409 0.0 -0.7933533402912198
  outer loop
    vertex 183.4966583858577 187.50868705238867 97.6038047608233
    vertex 183.28955160467117 185.5086870523882 97.44488613822541
    vertex 183.28955160467117 187.50868705238867 97.44488613822541
  endloop
endfacet
facet normal 0.6087614290087409 0.0 -0.7933533402912198
  outer loop
    vertex 183.28955160467117 185.5086870523882 97.44488613822541
    vertex 183.4966583858577 187.50868705238867 97.6038047608233
    vertex 183.4966583858577 185.5086870523882 97.6038047608233
  endloop
endfacet
facet normal -1.0 0.0 0.0
  outer loop
    vertex 173.4966583858576 193.50868705238855 104.73777935703428
    vertex 173.4966583858576 187.5086870523882 100.7377793570389
    vertex 173.4966583858576 187.5086870523882 104.73777935703455
  endloop
endfacet
facet normal -2.1295934417412567e-15 0.8944271909999187 -0.4472135954999526
  outer loop
    vertex 174.49665838585756 200.29754143438805 109.84335216603897
    vertex 193.49665838585742 197.297541434388 103.84335216603871
    vertex 174.49665838585756 197.29754143438603 103.84335216603483
  endloop
endfacet
facet normal -2.1295934417412567e-15 0.8944271909999187 -0.4472135954999526
  outer loop
    vertex 193.49665838585742 197.297541434388 103.84335216603871
    vertex 174.49665838585756 200.29754143438805 109.84335216603897
    vertex 193.4966583858567 200.29754143438805 109.84335216603888
  endloop
endfacet
facet normal -2.0841003054095741e-13 -0.5999999999997142 0.8000000000002143
  outer loop
    vertex 194.4966583858578 185.5086870523882 104.73777935703889
    vertex 173.4966583858585 187.5086870523903 106.23777935703386
    vertex 173.4966583858576 185.5086870523882 104.73777935703455
  endloop
endfacet
facet normal -2.0841003054095741e-13 -0.5999999999997142 0.8000000000002143
  outer loop
    vertex 173.4966583858585 187.5086870523903 106.23777935703386
    vertex 194.4966583858578 185.5086870523882 104.73777935703889
    vertex 194.4966583858578 187.5086870523882 106.2377793570389
  endloop
endfacet
facet normal -1.0 -1.978926003679302e-13 1.7433849008552625e-13
  outer loop
    vertex 173.4966583858584 195.11391365906886 109.84335216603716
    vertex 173.4966583858576 193.50868705238855 104.73777935703428
    vertex 173.49665838585867 193.50868705238855 109.42042015898359
  endloop
endfacet
facet normal -1.0 -1.978926003679302e-13 1.7433849008552625e-13
  outer loop
    vertex 173.4966583858576 193.50868705238855 104.73777935703428
    vertex 173.4966583858584 195.11391365906886 109.84335216603716
    vertex 173.4966583858576 195.50868705238602 104.73777935703455
  endloop
endfacet
facet normal -1.0 -1.978926003679302e-13 1.7433849008552625e-13
  outer loop
    vertex 173.4966583858576 195.50868705238602 104.73777935703455
    vertex 173.4966583858584 195.11391365906886 109.84335216603716
    vertex 173.49665838585767 198.06147345688612 109.84335216603753
  endloop
endfacet
facet normal -1.0 5.344217109058539e-29 6.015928496104995e-13
  outer loop
    vertex 173.4966583858585 187.5086870523903 106.23777935703386
    vertex 173.4966583858576 187.5086870523882 104.73777935703455
    vertex 173.4966583858576 185.5086870523882 104.73777935703455
  endloop
endfacet
facet normal 0.38268343236508334 0.0 -0.9238795325112895
  outer loop
    vertex 183.73783934075524 187.50868705238867 97.70370518332794
    vertex 183.4966583858577 185.5086870523882 97.6038047608233
    vertex 183.4966583858577 187.50868705238867 97.6038047608233
  endloop
endfacet
facet normal 0.38268343236508334 0.0 -0.9238795325112895
  outer loop
    vertex 183.4966583858577 185.5086870523882 97.6038047608233
    vertex 183.73783934075524 187.50868705238867 97.70370518332794
    vertex 183.73783934075524 185.5086870523882 97.70370518332794
  endloop
endfacet
facet normal -1.0 0.0 0.0
  outer loop
    vertex 173.4966583858576 187.5086870523882 104.73777935703455
    vertex 173.4966583858576 185.5086870523882 90.73777935703892
    vertex 173.4966583858576 185.5086870523882 104.73777935703455
  endloop
endfacet
facet normal -1.0 0.0 0.0
  outer loop
    vertex 173.4966583858576 185.5086870523882 90.73777935703892
    vertex 173.4966583858576 187.5086870523882 104.73777935703455
    vertex 173.4966583858576 187.5086870523882 90.73777935703892
  endloop
endfacet
facet normal -1.0 0.0 0.0
  outer loop
    vertex 173.4966583858576 187.5086870523882 90.73777935703892
    vertex 173.4966583858576 187.5086870523882 104.73777935703455
    vertex 173.4966583858576 187.5086870523882 100.7377793570389
  endloop
endfacet
facet normal -0.991444861373775 0.0 0.13052619222032122
  outer loop
    vertex 184.99665838585773 187.50868705238867 96.7377793570389
    vertex 184.9625842121467 185.5086870523882 96.47896031193638
    vertex 184.99665838585773 185.5086870523882 96.7377793570389
  endloop
endfacet
facet normal -0.991444861373775 0.0 0.13052619222032122
  outer loop
    vertex 184.9625842121467 185.5086870523882 96.47896031193638
    vertex 184.99665838585773 187.50868705238867 96.7377793570389
    vertex 184.9625842121467 187.50868705238867 96.47896031193638
  endloop
endfacet
facet normal 1.0 -0.0 -0.0
  outer loop
    vertex 194.4966583858578 193.508687052388 104.73777935703889
    vertex 194.4966583858578 187.5086870523882 106.2377793570389
    vertex 194.4966583858578 187.5086870523882 104.73777935703889
  endloop
endfacet
facet normal 1.0 -0.0 -0.0
  outer loop
    vertex 194.4966583858578 187.5086870523882 106.2377793570389
    vertex 194.4966583858578 193.508687052388 104.73777935703889
    vertex 194.4966583858578 193.508687052388 109.42042015898376
  endloop
endfacet
facet normal -0.9238795325111167 0.0 -0.38268343236550056
  outer loop
    vertex 184.86268378964198 187.50868705238867 97.23777935703887
    vertex 184.9625842121467 185.5086870523882 96.99659840214144
    vertex 184.86268378964198 185.5086870523882 97.23777935703887
  endloop
endfacet
facet normal -0.9238795325111167 0.0 -0.38268343236550056
  outer loop
    vertex 184.9625842121467 185.5086870523882 96.99659840214144
    vertex 184.86268378964198 187.50868705238867 97.23777935703887
    vertex 184.9625842121467 187.50868705238867 96.99659840214144
  endloop
endfacet
facet normal -0.13052619221989198 0.0 -0.9914448613738315
  outer loop
    vertex 184.2554774309603 187.50868705238867 97.70370518332794
    vertex 183.9966583858576 185.5086870523882 97.73777935703886
    vertex 183.9966583858576 187.50868705238867 97.73777935703886
  endloop
endfacet
facet normal -0.13052619221989198 0.0 -0.9914448613738315
  outer loop
    vertex 183.9966583858576 185.5086870523882 97.73777935703886
    vertex 184.2554774309603 187.50868705238867 97.70370518332794
    vertex 184.2554774309603 185.5086870523882 97.70370518332794
  endloop
endfacet
facet normal -1.0 -5.5433534448753836e-14 2.65716529414883e-13
  outer loop
    vertex 173.4966583858585 187.5086870523903 106.23777935703386
    vertex 173.4966583858576 193.50868705238855 104.73777935703428
    vertex 173.4966583858576 187.5086870523882 104.73777935703455
  endloop
endfacet
facet normal -1.0 -5.5433534448753836e-14 2.65716529414883e-13
  outer loop
    vertex 173.4966583858576 193.50868705238855 104.73777935703428
    vertex 173.4966583858585 187.5086870523903 106.23777935703386
    vertex 173.49665838585867 193.50868705238855 109.42042015898359
  endloop
endfacet
endsolid IoBlaster_sketchup
