solid IoBlaster_sketchup
facet normal 0.0 0.0 -1.0
  outer loop
    vertex 324.9792911505592 264.11144942975295 106.86161442491513
    vertex 323.4895405687692 251.5472520332973 106.86161442491513
    vertex 321.8946297597544 262.8337408463527 106.86161442491513
  endloop
endfacet
facet normal 0.0 0.0 -1.0
  outer loop
    vertex 323.4895405687692 251.5472520332973 106.86161442491513
    vertex 324.9792911505592 264.11144942975295 106.86161442491513
    vertex 323.6530966025816 252.78958344978946 106.86161442491513
  endloop
endfacet
facet normal 0.0 0.0 -1.0
  outer loop
    vertex 323.6530966025816 252.78958344978946 106.86161442491513
    vertex 324.9792911505592 264.11144942975295 106.86161442491513
    vertex 324.13261863060376 253.9472520332973 106.86161442491513
  endloop
endfacet
facet normal 0.0 0.0 -1.0
  outer loop
    vertex 324.13261863060376 253.9472520332973 106.86161442491513
    vertex 324.9792911505592 264.11144942975295 106.86161442491513
    vertex 324.8954280190736 254.94136458299266 106.86161442491513
  endloop
endfacet
facet normal 0.0 0.0 -1.0
  outer loop
    vertex 324.8954280190736 254.94136458299266 106.86161442491513
    vertex 324.9792911505592 264.11144942975295 106.86161442491513
    vertex 325.889540568769 255.7041739714627 106.86161442491513
  endloop
endfacet
facet normal 0.0 0.0 -1.0
  outer loop
    vertex 325.889540568769 255.7041739714627 106.86161442491513
    vertex 324.9792911505592 264.11144942975295 106.86161442491513
    vertex 328.2895405687693 264.54725203329747 106.86161442491513
  endloop
endfacet
facet normal 0.0 0.0 -1.0
  outer loop
    vertex 325.889540568769 255.7041739714627 106.86161442491513
    vertex 328.2895405687693 264.54725203329747 106.86161442491513
    vertex 327.047209152277 256.1836959994848 106.86161442491513
  endloop
endfacet
facet normal 0.0 0.0 -1.0
  outer loop
    vertex 327.047209152277 256.1836959994848 106.86161442491513
    vertex 328.2895405687693 264.54725203329747 106.86161442491513
    vertex 328.2895405687693 256.3472520332973 106.86161442491513
  endloop
endfacet
facet normal 0.0 0.0 -1.0
  outer loop
    vertex 331.5997899869789 264.11144942975295 106.86161442491513
    vertex 328.2895405687693 256.3472520332973 106.86161442491513
    vertex 328.2895405687693 264.54725203329747 106.86161442491513
  endloop
endfacet
facet normal 0.0 0.0 -1.0
  outer loop
    vertex 328.2895405687693 256.3472520332973 106.86161442491513
    vertex 331.5997899869789 264.11144942975295 106.86161442491513
    vertex 329.53187198526115 256.1836959994848 106.86161442491513
  endloop
endfacet
facet normal 0.0 0.0 -1.0
  outer loop
    vertex 329.53187198526115 256.1836959994848 106.86161442491513
    vertex 331.5997899869789 264.11144942975295 106.86161442491513
    vertex 330.68954056876896 255.7041739714627 106.86161442491513
  endloop
endfacet
facet normal 0.0 0.0 -1.0
  outer loop
    vertex 330.68954056876896 255.7041739714627 106.86161442491513
    vertex 331.5997899869789 264.11144942975295 106.86161442491513
    vertex 331.6836531184645 254.94136458299266 106.86161442491513
  endloop
endfacet
facet normal 0.0 0.0 -1.0
  outer loop
    vertex 331.6836531184645 254.94136458299266 106.86161442491513
    vertex 331.5997899869789 264.11144942975295 106.86161442491513
    vertex 334.6844513777839 262.8337408463527 106.86161442491513
  endloop
endfacet
facet normal 0.0 0.0 -1.0
  outer loop
    vertex 331.6836531184645 254.94136458299266 106.86161442491513
    vertex 334.6844513777839 262.8337408463527 106.86161442491513
    vertex 332.4464625069344 253.9472520332973 106.86161442491513
  endloop
endfacet
facet normal 0.0 0.0 -1.0
  outer loop
    vertex 332.4464625069344 253.9472520332973 106.86161442491513
    vertex 334.6844513777839 262.8337408463527 106.86161442491513
    vertex 332.9259845349567 252.78958344978946 106.86161442491513
  endloop
endfacet
facet normal 0.0 0.0 -1.0
  outer loop
    vertex 332.9259845349567 252.78958344978946 106.86161442491513
    vertex 334.6844513777839 262.8337408463527 106.86161442491513
    vertex 333.08954056876917 251.5472520332973 106.86161442491513
  endloop
endfacet
facet normal 0.0 0.0 -1.0
  outer loop
    vertex 340.196991777566 256.43056007895973 106.86161442491513
    vertex 339.6157423496472 245.9658106920434 106.86161442491513
    vertex 339.3658509998541 258.1523412242827 106.86161442491513
  endloop
endfacet
facet normal 0.0 0.0 -1.0
  outer loop
    vertex 339.6157423496472 245.9658106920434 106.86161442491513
    vertex 340.196991777566 256.43056007895973 106.86161442491513
    vertex 340.1969917775662 247.0843007515764 106.86161442491513
  endloop
endfacet
facet normal 0.0 0.0 -1.0
  outer loop
    vertex 340.1969917775662 247.0843007515764 106.86161442491513
    vertex 340.196991777566 256.43056007895973 106.86161442491513
    vertex 340.8581746011397 254.13544927639896 106.86161442491513
  endloop
endfacet
facet normal 0.0 0.0 -1.0
  outer loop
    vertex 340.1969917775662 247.0843007515764 106.86161442491513
    vertex 340.8581746011397 254.13544927639896 106.86161442491513
    vertex 340.8581746011397 249.37941155413714 106.86161442491513
  endloop
endfacet
facet normal 0.0 0.0 -1.0
  outer loop
    vertex 340.8581746011397 249.37941155413714 106.86161442491513
    vertex 340.8581746011397 254.13544927639896 106.86161442491513
    vertex 341.0811602919927 251.75743041526798 106.86161442491513
  endloop
endfacet
facet normal 0.0 0.0 -1.0
  outer loop
    vertex 315.93552155428426 255.0676798334779 106.86161442491513
    vertex 315.93552155428426 248.447180997058 106.86161442491513
    vertex 315.49971895073975 251.75743041526798 106.86161442491513
  endloop
endfacet
facet normal 0.0 0.0 -1.0
  outer loop
    vertex 315.93552155428426 248.447180997058 106.86161442491513
    vertex 315.93552155428426 255.0676798334779 106.86161442491513
    vertex 317.2132301376842 258.1523412242827 106.86161442491513
  endloop
endfacet
facet normal 0.0 0.0 -1.0
  outer loop
    vertex 315.93552155428426 248.447180997058 106.86161442491513
    vertex 317.2132301376842 258.1523412242827 106.86161442491513
    vertex 316.96333878789136 245.9658106920434 106.86161442491513
  endloop
endfacet
facet normal 0.0 0.0 -1.0
  outer loop
    vertex 316.96333878789136 245.9658106920434 106.86161442491513
    vertex 317.2132301376842 258.1523412242827 106.86161442491513
    vertex 316.96333878789136 243.9658106920433 106.86161442491513
  endloop
endfacet
facet normal 0.0 0.0 -1.0
  outer loop
    vertex 316.96333878789136 243.9658106920433 106.86161442491513
    vertex 317.2132301376842 258.1523412242827 106.86161442491513
    vertex 324.8954280190736 248.15313948360193 106.86161442491513
  endloop
endfacet
facet normal 0.0 0.0 -1.0
  outer loop
    vertex 316.96333878789136 243.9658106920433 106.86161442491513
    vertex 324.8954280190736 248.15313948360193 106.86161442491513
    vertex 325.889540568769 247.39033009513207 106.86161442491513
  endloop
endfacet
facet normal 0.0 0.0 -1.0
  outer loop
    vertex 316.96333878789136 243.9658106920433 106.86161442491513
    vertex 325.889540568769 247.39033009513207 106.86161442491513
    vertex 327.047209152277 246.91080806710977 106.86161442491513
  endloop
endfacet
facet normal 0.0 0.0 -1.0
  outer loop
    vertex 316.96333878789136 243.9658106920433 106.86161442491513
    vertex 327.047209152277 246.91080806710977 106.86161442491513
    vertex 339.6157423496472 243.9658106920433 106.86161442491513
  endloop
endfacet
facet normal 0.0 0.0 -1.0
  outer loop
    vertex 324.8954280190736 248.15313948360193 106.86161442491513
    vertex 317.2132301376842 258.1523412242827 106.86161442491513
    vertex 324.13261863060376 249.1472520332973 106.86161442491513
  endloop
endfacet
facet normal 0.0 0.0 -1.0
  outer loop
    vertex 324.13261863060376 249.1472520332973 106.86161442491513
    vertex 317.2132301376842 258.1523412242827 106.86161442491513
    vertex 319.24577097249426 260.80120001154273 106.86161442491513
  endloop
endfacet
facet normal 0.0 0.0 -1.0
  outer loop
    vertex 324.13261863060376 249.1472520332973 106.86161442491513
    vertex 319.24577097249426 260.80120001154273 106.86161442491513
    vertex 323.6530966025816 250.30492061680513 106.86161442491513
  endloop
endfacet
facet normal 0.0 0.0 -1.0
  outer loop
    vertex 323.6530966025816 250.30492061680513 106.86161442491513
    vertex 319.24577097249426 260.80120001154273 106.86161442491513
    vertex 321.8946297597544 262.8337408463527 106.86161442491513
  endloop
endfacet
facet normal 0.0 0.0 -1.0
  outer loop
    vertex 323.6530966025816 250.30492061680513 106.86161442491513
    vertex 321.8946297597544 262.8337408463527 106.86161442491513
    vertex 323.4895405687692 251.5472520332973 106.86161442491513
  endloop
endfacet
facet normal 0.0 0.0 -1.0
  outer loop
    vertex 339.6157423496472 243.9658106920433 106.86161442491513
    vertex 327.047209152277 246.91080806710977 106.86161442491513
    vertex 328.2895405687693 246.74725203329731 106.86161442491513
  endloop
endfacet
facet normal 0.0 0.0 -1.0
  outer loop
    vertex 339.6157423496472 243.9658106920433 106.86161442491513
    vertex 328.2895405687693 246.74725203329731 106.86161442491513
    vertex 329.53187198526115 246.91080806710977 106.86161442491513
  endloop
endfacet
facet normal 0.0 0.0 -1.0
  outer loop
    vertex 339.6157423496472 243.9658106920433 106.86161442491513
    vertex 329.53187198526115 246.91080806710977 106.86161442491513
    vertex 330.68954056876896 247.39033009513207 106.86161442491513
  endloop
endfacet
facet normal 0.0 0.0 -1.0
  outer loop
    vertex 339.6157423496472 243.9658106920433 106.86161442491513
    vertex 330.68954056876896 247.39033009513207 106.86161442491513
    vertex 331.6836531184645 248.15313948360193 106.86161442491513
  endloop
endfacet
facet normal 0.0 0.0 -1.0
  outer loop
    vertex 339.6157423496472 243.9658106920433 106.86161442491513
    vertex 331.6836531184645 248.15313948360193 106.86161442491513
    vertex 332.4464625069344 249.1472520332973 106.86161442491513
  endloop
endfacet
facet normal 0.0 0.0 -1.0
  outer loop
    vertex 339.6157423496472 243.9658106920433 106.86161442491513
    vertex 332.4464625069344 249.1472520332973 106.86161442491513
    vertex 332.9259845349567 250.30492061680513 106.86161442491513
  endloop
endfacet
facet normal 0.0 0.0 -1.0
  outer loop
    vertex 339.6157423496472 243.9658106920433 106.86161442491513
    vertex 332.9259845349567 250.30492061680513 106.86161442491513
    vertex 333.08954056876917 251.5472520332973 106.86161442491513
  endloop
endfacet
facet normal 0.0 0.0 -1.0
  outer loop
    vertex 339.6157423496472 243.9658106920433 106.86161442491513
    vertex 333.08954056876917 251.5472520332973 106.86161442491513
    vertex 334.6844513777839 262.8337408463527 106.86161442491513
  endloop
endfacet
facet normal 0.0 0.0 -1.0
  outer loop
    vertex 339.6157423496472 243.9658106920433 106.86161442491513
    vertex 334.6844513777839 262.8337408463527 106.86161442491513
    vertex 337.3333101650443 260.8012000115429 106.86161442491513
  endloop
endfacet
facet normal 0.0 0.0 -1.0
  outer loop
    vertex 339.6157423496472 243.9658106920433 106.86161442491513
    vertex 337.3333101650443 260.8012000115429 106.86161442491513
    vertex 339.3658509998541 258.1523412242827 106.86161442491513
  endloop
endfacet
facet normal 0.0 0.0 -1.0
  outer loop
    vertex 339.6157423496472 243.9658106920433 106.86161442491513
    vertex 339.3658509998541 258.1523412242827 106.86161442491513
    vertex 339.6157423496472 245.9658106920434 106.86161442491513
  endloop
endfacet
facet normal -0.7933533402912322 0.6087614290087249 0.0
  outer loop
    vertex 317.8193542170394 262.2276167669975 117.86161442491498
    vertex 315.4662335319739 259.1609701848627 115.86161442491506
    vertex 315.4662335319739 259.1609701848627 117.86161442491498
  endloop
endfacet
facet normal -0.7933533402912322 0.6087614290087249 0.0
  outer loop
    vertex 315.4662335319739 259.1609701848627 115.86161442491506
    vertex 317.8193542170394 262.2276167669975 117.86161442491498
    vertex 317.8193542170394 262.2276167669975 115.86161442491506
  endloop
endfacet
facet normal 0.960920352207713 0.2768249929341732 -0.0
  outer loop
    vertex 342.07187016583225 257.1472265789668 115.86161442491506
    vertex 342.8319307998379 254.50888917891274 117.86161442491498
    vertex 342.8319307998379 254.50888917891274 115.86161442491506
  endloop
endfacet
facet normal 0.960920352207713 0.2768249929341732 -0.0
  outer loop
    vertex 342.8319307998379 254.50888917891274 117.86161442491498
    vertex 342.07187016583225 257.1472265789668 115.86161442491506
    vertex 342.07187016583225 257.1472265789668 117.86161442491498
  endloop
endfacet
facet normal 0.0 0.0 -1.0
  outer loop
    vertex 323.6530966025816 252.78958344978946 101.861614424915
    vertex 323.6530966025816 250.30492061680513 101.861614424915
    vertex 323.4895405687692 251.5472520332973 101.861614424915
  endloop
endfacet
facet normal 0.0 0.0 -1.0
  outer loop
    vertex 323.6530966025816 250.30492061680513 101.861614424915
    vertex 323.6530966025816 252.78958344978946 101.861614424915
    vertex 324.13261863060376 253.9472520332973 101.861614424915
  endloop
endfacet
facet normal 0.0 0.0 -1.0
  outer loop
    vertex 323.6530966025816 250.30492061680513 101.861614424915
    vertex 324.13261863060376 253.9472520332973 101.861614424915
    vertex 324.13261863060376 249.1472520332973 101.861614424915
  endloop
endfacet
facet normal 0.0 0.0 -1.0
  outer loop
    vertex 324.13261863060376 249.1472520332973 101.861614424915
    vertex 324.13261863060376 253.9472520332973 101.861614424915
    vertex 324.8954280190736 254.94136458299266 101.861614424915
  endloop
endfacet
facet normal 0.0 0.0 -1.0
  outer loop
    vertex 324.13261863060376 249.1472520332973 101.861614424915
    vertex 324.8954280190736 254.94136458299266 101.861614424915
    vertex 324.8954280190736 248.15313948360193 101.861614424915
  endloop
endfacet
facet normal 0.0 0.0 -1.0
  outer loop
    vertex 324.8954280190736 248.15313948360193 101.861614424915
    vertex 324.8954280190736 254.94136458299266 101.861614424915
    vertex 325.889540568769 255.7041739714627 101.861614424915
  endloop
endfacet
facet normal 0.0 0.0 -1.0
  outer loop
    vertex 324.8954280190736 248.15313948360193 101.861614424915
    vertex 325.889540568769 255.7041739714627 101.861614424915
    vertex 325.889540568769 247.39033009513207 101.861614424915
  endloop
endfacet
facet normal 0.0 0.0 -1.0
  outer loop
    vertex 325.889540568769 247.39033009513207 101.861614424915
    vertex 325.889540568769 255.7041739714627 101.861614424915
    vertex 327.047209152277 256.1836959994848 101.861614424915
  endloop
endfacet
facet normal 0.0 0.0 -1.0
  outer loop
    vertex 325.889540568769 247.39033009513207 101.861614424915
    vertex 327.047209152277 256.1836959994848 101.861614424915
    vertex 327.047209152277 246.91080806710977 101.861614424915
  endloop
endfacet
facet normal 0.0 0.0 -1.0
  outer loop
    vertex 327.047209152277 246.91080806710977 101.861614424915
    vertex 327.047209152277 256.1836959994848 101.861614424915
    vertex 328.2895405687693 256.3472520332973 101.861614424915
  endloop
endfacet
facet normal 0.0 0.0 -1.0
  outer loop
    vertex 327.047209152277 246.91080806710977 101.861614424915
    vertex 328.2895405687693 256.3472520332973 101.861614424915
    vertex 328.2895405687693 246.74725203329731 101.861614424915
  endloop
endfacet
facet normal 0.0 0.0 -1.0
  outer loop
    vertex 328.2895405687693 246.74725203329731 101.861614424915
    vertex 328.2895405687693 256.3472520332973 101.861614424915
    vertex 329.53187198526115 256.1836959994848 101.861614424915
  endloop
endfacet
facet normal 0.0 0.0 -1.0
  outer loop
    vertex 328.2895405687693 246.74725203329731 101.861614424915
    vertex 329.53187198526115 256.1836959994848 101.861614424915
    vertex 329.53187198526115 246.91080806710977 101.861614424915
  endloop
endfacet
facet normal 0.0 0.0 -1.0
  outer loop
    vertex 329.53187198526115 246.91080806710977 101.861614424915
    vertex 329.53187198526115 256.1836959994848 101.861614424915
    vertex 330.68954056876896 255.7041739714627 101.861614424915
  endloop
endfacet
facet normal 0.0 0.0 -1.0
  outer loop
    vertex 329.53187198526115 246.91080806710977 101.861614424915
    vertex 330.68954056876896 255.7041739714627 101.861614424915
    vertex 330.68954056876896 247.39033009513207 101.861614424915
  endloop
endfacet
facet normal 0.0 0.0 -1.0
  outer loop
    vertex 330.68954056876896 247.39033009513207 101.861614424915
    vertex 330.68954056876896 255.7041739714627 101.861614424915
    vertex 331.6836531184645 254.94136458299266 101.861614424915
  endloop
endfacet
facet normal 0.0 0.0 -1.0
  outer loop
    vertex 330.68954056876896 247.39033009513207 101.861614424915
    vertex 331.6836531184645 254.94136458299266 101.861614424915
    vertex 331.6836531184645 248.15313948360193 101.861614424915
  endloop
endfacet
facet normal 0.0 0.0 -1.0
  outer loop
    vertex 331.6836531184645 248.15313948360193 101.861614424915
    vertex 331.6836531184645 254.94136458299266 101.861614424915
    vertex 332.4464625069344 253.9472520332973 101.861614424915
  endloop
endfacet
facet normal 0.0 0.0 -1.0
  outer loop
    vertex 331.6836531184645 248.15313948360193 101.861614424915
    vertex 332.4464625069344 253.9472520332973 101.861614424915
    vertex 332.4464625069344 249.1472520332973 101.861614424915
  endloop
endfacet
facet normal 0.0 0.0 -1.0
  outer loop
    vertex 332.4464625069344 249.1472520332973 101.861614424915
    vertex 332.4464625069344 253.9472520332973 101.861614424915
    vertex 332.9259845349567 252.78958344978946 101.861614424915
  endloop
endfacet
facet normal 0.0 0.0 -1.0
  outer loop
    vertex 332.4464625069344 249.1472520332973 101.861614424915
    vertex 332.9259845349567 252.78958344978946 101.861614424915
    vertex 332.9259845349567 250.30492061680513 101.861614424915
  endloop
endfacet
facet normal 0.0 0.0 -1.0
  outer loop
    vertex 332.9259845349567 250.30492061680513 101.861614424915
    vertex 332.9259845349567 252.78958344978946 101.861614424915
    vertex 333.08954056876917 251.5472520332973 101.861614424915
  endloop
endfacet
facet normal 0.9005647239892254 0.43472195470922637 -0.0
  outer loop
    vertex 339.3658509998541 258.1523412242827 106.86161442491513
    vertex 340.196991777566 256.43056007895973 115.86161442491506
    vertex 340.196991777566 256.43056007895973 106.86161442491513
  endloop
endfacet
facet normal 0.9005647239892254 0.43472195470922637 -0.0
  outer loop
    vertex 340.196991777566 256.43056007895973 115.86161442491506
    vertex 339.3658509998541 258.1523412242827 106.86161442491513
    vertex 339.3658509998541 258.1523412242827 115.86161442491506
  endloop
endfacet
facet normal 0.3826834323651227 0.9238795325112731 -0.0
  outer loop
    vertex 331.5997899869789 264.11144942975295 115.86161442491506
    vertex 334.6844513777839 262.8337408463527 106.86161442491513
    vertex 331.5997899869789 264.11144942975295 106.86161442491513
  endloop
endfacet
facet normal 0.3826834323651227 0.9238795325112731 -0.0
  outer loop
    vertex 334.6844513777839 262.8337408463527 106.86161442491513
    vertex 331.5997899869789 264.11144942975295 115.86161442491506
    vertex 334.6844513777839 262.8337408463527 115.86161442491506
  endloop
endfacet
facet normal 0.9238795325112517 -0.38268343236517505 -0.0
  outer loop
    vertex 332.9259845349567 250.30492061680513 101.861614424915
    vertex 332.4464625069344 249.1472520332973 106.86161442491513
    vertex 332.4464625069344 249.1472520332973 101.861614424915
  endloop
endfacet
facet normal 0.9238795325112517 -0.38268343236517505 -0.0
  outer loop
    vertex 332.4464625069344 249.1472520332973 106.86161442491513
    vertex 332.9259845349567 250.30492061680513 101.861614424915
    vertex 332.9259845349567 250.30492061680513 106.86161442491513
  endloop
endfacet
facet normal -0.6087614290087102 0.7933533402912433 -0.0
  outer loop
    vertex 317.8193542170394 262.2276167669975 117.86161442491498
    vertex 320.88600079917427 264.580737452063 115.86161442491506
    vertex 317.8193542170394 262.2276167669975 115.86161442491506
  endloop
endfacet
facet normal -0.6087614290087102 0.7933533402912433 -0.0
  outer loop
    vertex 320.88600079917427 264.580737452063 115.86161442491506
    vertex 317.8193542170394 262.2276167669975 117.86161442491498
    vertex 320.88600079917427 264.580737452063 117.86161442491498
  endloop
endfacet
facet normal 0.7933533402912304 -0.608761429008727 -0.0
  outer loop
    vertex 332.4464625069344 249.1472520332973 101.861614424915
    vertex 331.6836531184645 248.15313948360193 106.86161442491513
    vertex 331.6836531184645 248.15313948360193 101.861614424915
  endloop
endfacet
facet normal 0.7933533402912304 -0.608761429008727 -0.0
  outer loop
    vertex 331.6836531184645 248.15313948360193 106.86161442491513
    vertex 332.4464625069344 249.1472520332973 101.861614424915
    vertex 332.4464625069344 249.1472520332973 106.86161442491513
  endloop
endfacet
facet normal -1.0 0.0 0.0
  outer loop
    vertex 316.96333878789136 245.9658106920434 115.86161442491506
    vertex 316.96333878789136 243.9658106920433 106.86161442491513
    vertex 316.96333878789136 243.9658106920433 115.86161442491506
  endloop
endfacet
facet normal -1.0 0.0 0.0
  outer loop
    vertex 316.96333878789136 243.9658106920433 106.86161442491513
    vertex 316.96333878789136 245.9658106920434 115.86161442491506
    vertex 316.96333878789136 245.9658106920434 106.86161442491513
  endloop
endfacet
facet normal -0.13052619222001943 0.9914448613738147 -0.0
  outer loop
    vertex 327.047209152277 256.1836959994848 106.86161442491513
    vertex 328.2895405687693 256.3472520332973 101.861614424915
    vertex 327.047209152277 256.1836959994848 101.861614424915
  endloop
endfacet
facet normal -0.13052619222001943 0.9914448613738147 -0.0
  outer loop
    vertex 328.2895405687693 256.3472520332973 101.861614424915
    vertex 327.047209152277 256.1836959994848 106.86161442491513
    vertex 328.2895405687693 256.3472520332973 106.86161442491513
  endloop
endfacet
facet normal -0.9914448613738105 -0.130526192220051 0.0
  outer loop
    vertex 315.49971895073975 251.75743041526798 115.86161442491506
    vertex 315.93552155428426 248.447180997058 106.86161442491513
    vertex 315.93552155428426 248.447180997058 115.86161442491506
  endloop
endfacet
facet normal -0.9914448613738105 -0.130526192220051 0.0
  outer loop
    vertex 315.93552155428426 248.447180997058 106.86161442491513
    vertex 315.49971895073975 251.75743041526798 115.86161442491506
    vertex 315.49971895073975 251.75743041526798 106.86161442491513
  endloop
endfacet
facet normal -0.13052619222004397 0.9914448613738114 -0.0
  outer loop
    vertex 324.9792911505592 264.11144942975295 115.86161442491506
    vertex 328.2895405687693 264.54725203329747 106.86161442491513
    vertex 324.9792911505592 264.11144942975295 106.86161442491513
  endloop
endfacet
facet normal -0.13052619222004397 0.9914448613738114 -0.0
  outer loop
    vertex 328.2895405687693 264.54725203329747 106.86161442491513
    vertex 324.9792911505592 264.11144942975295 115.86161442491506
    vertex 328.2895405687693 264.54725203329747 115.86161442491506
  endloop
endfacet
facet normal 0.382683432365052 0.9238795325113024 -0.0
  outer loop
    vertex 329.53187198526115 256.1836959994848 106.86161442491513
    vertex 330.68954056876896 255.7041739714627 101.861614424915
    vertex 329.53187198526115 256.1836959994848 101.861614424915
  endloop
endfacet
facet normal 0.382683432365052 0.9238795325113024 -0.0
  outer loop
    vertex 330.68954056876896 255.7041739714627 101.861614424915
    vertex 329.53187198526115 256.1836959994848 106.86161442491513
    vertex 330.68954056876896 255.7041739714627 106.86161442491513
  endloop
endfacet
facet normal 0.9914448613738123 -0.13052619222003808 -0.0
  outer loop
    vertex 333.08954056876917 251.5472520332973 101.861614424915
    vertex 332.9259845349567 250.30492061680513 106.86161442491513
    vertex 332.9259845349567 250.30492061680513 101.861614424915
  endloop
endfacet
facet normal 0.9914448613738123 -0.13052619222003808 -0.0
  outer loop
    vertex 332.9259845349567 250.30492061680513 106.86161442491513
    vertex 333.08954056876917 251.5472520332973 101.861614424915
    vertex 333.08954056876917 251.5472520332973 106.86161442491513
  endloop
endfacet
facet normal 0.38268343236517505 -0.9238795325112517 0.0
  outer loop
    vertex 330.68954056876896 247.39033009513207 106.86161442491513
    vertex 329.53187198526115 246.91080806710977 101.861614424915
    vertex 330.68954056876896 247.39033009513207 101.861614424915
  endloop
endfacet
facet normal 0.38268343236517505 -0.9238795325112517 0.0
  outer loop
    vertex 329.53187198526115 246.91080806710977 101.861614424915
    vertex 330.68954056876896 247.39033009513207 106.86161442491513
    vertex 329.53187198526115 246.91080806710977 106.86161442491513
  endloop
endfacet
facet normal -0.38268343236514185 0.9238795325112653 -0.0
  outer loop
    vertex 321.8946297597544 262.8337408463527 115.86161442491506
    vertex 324.9792911505592 264.11144942975295 106.86161442491513
    vertex 321.8946297597544 262.8337408463527 106.86161442491513
  endloop
endfacet
facet normal -0.38268343236514185 0.9238795325112653 -0.0
  outer loop
    vertex 324.9792911505592 264.11144942975295 106.86161442491513
    vertex 321.8946297597544 262.8337408463527 115.86161442491506
    vertex 324.9792911505592 264.11144942975295 115.86161442491506
  endloop
endfacet
facet normal 0.0 -1.0 0.0
  outer loop
    vertex 339.6157423496472 243.9658106920433 115.86161442491506
    vertex 316.96333878789136 243.9658106920433 106.86161442491513
    vertex 339.6157423496472 243.9658106920433 106.86161442491513
  endloop
endfacet
facet normal 0.0 -1.0 0.0
  outer loop
    vertex 316.96333878789136 243.9658106920433 106.86161442491513
    vertex 339.6157423496472 243.9658106920433 115.86161442491506
    vertex 316.96333878789136 243.9658106920433 115.86161442491506
  endloop
endfacet
facet normal 0.9609203522077246 -0.2768249929341329 -0.0
  outer loop
    vertex 340.8581746011397 249.37941155413714 106.86161442491513
    vertex 340.1969917775662 247.0843007515764 115.86161442491506
    vertex 340.1969917775662 247.0843007515764 106.86161442491513
  endloop
endfacet
facet normal 0.9609203522077246 -0.2768249929341329 -0.0
  outer loop
    vertex 340.1969917775662 247.0843007515764 115.86161442491506
    vertex 340.8581746011397 249.37941155413714 106.86161442491513
    vertex 340.8581746011397 249.37941155413714 115.86161442491506
  endloop
endfacet
facet normal 0.6087614290086649 0.793353340291278 -0.0
  outer loop
    vertex 334.6844513777839 262.8337408463527 115.86161442491506
    vertex 337.3333101650443 260.8012000115429 106.86161442491513
    vertex 334.6844513777839 262.8337408463527 106.86161442491513
  endloop
endfacet
facet normal 0.6087614290086649 0.793353340291278 -0.0
  outer loop
    vertex 337.3333101650443 260.8012000115429 106.86161442491513
    vertex 334.6844513777839 262.8337408463527 115.86161442491506
    vertex 337.3333101650443 260.8012000115429 115.86161442491506
  endloop
endfacet
facet normal -0.9238795325113024 -0.382683432365052 0.0
  outer loop
    vertex 323.6530966025816 250.30492061680513 106.86161442491513
    vertex 324.13261863060376 249.1472520332973 101.861614424915
    vertex 324.13261863060376 249.1472520332973 106.86161442491513
  endloop
endfacet
facet normal -0.9238795325113024 -0.382683432365052 0.0
  outer loop
    vertex 324.13261863060376 249.1472520332973 101.861614424915
    vertex 323.6530966025816 250.30492061680513 106.86161442491513
    vertex 323.6530966025816 250.30492061680513 101.861614424915
  endloop
endfacet
facet normal -0.608761429008727 -0.7933533402912304 0.0
  outer loop
    vertex 325.889540568769 247.39033009513207 106.86161442491513
    vertex 324.8954280190736 248.15313948360193 101.861614424915
    vertex 325.889540568769 247.39033009513207 101.861614424915
  endloop
endfacet
facet normal -0.608761429008727 -0.7933533402912304 0.0
  outer loop
    vertex 324.8954280190736 248.15313948360193 101.861614424915
    vertex 325.889540568769 247.39033009513207 106.86161442491513
    vertex 324.8954280190736 248.15313948360193 106.86161442491513
  endloop
endfacet
facet normal 1.0 -0.0 -0.0
  outer loop
    vertex 339.6157423496472 245.9658106920434 106.86161442491513
    vertex 339.6157423496472 243.9658106920433 115.86161442491506
    vertex 339.6157423496472 243.9658106920433 106.86161442491513
  endloop
endfacet
facet normal 1.0 -0.0 -0.0
  outer loop
    vertex 339.6157423496472 243.9658106920433 115.86161442491506
    vertex 339.6157423496472 245.9658106920434 106.86161442491513
    vertex 339.6157423496472 245.9658106920434 115.86161442491506
  endloop
endfacet
facet normal -0.7933533402912304 0.608761429008727 0.0
  outer loop
    vertex 324.8954280190736 254.94136458299266 106.86161442491513
    vertex 324.13261863060376 253.9472520332973 101.861614424915
    vertex 324.13261863060376 253.9472520332973 106.86161442491513
  endloop
endfacet
facet normal -0.7933533402912304 0.608761429008727 0.0
  outer loop
    vertex 324.13261863060376 253.9472520332973 101.861614424915
    vertex 324.8954280190736 254.94136458299266 106.86161442491513
    vertex 324.8954280190736 254.94136458299266 101.861614424915
  endloop
endfacet
facet normal 0.7933533402912161 0.6087614290087459 -0.0
  outer loop
    vertex 338.7597269204989 262.2276167669975 115.86161442491506
    vertex 341.07765053033603 259.2068399063503 117.86161442491498
    vertex 341.07765053033603 259.2068399063503 115.86161442491506
  endloop
endfacet
facet normal 0.7933533402912161 0.6087614290087459 -0.0
  outer loop
    vertex 341.07765053033603 259.2068399063503 117.86161442491498
    vertex 338.7597269204989 262.2276167669975 115.86161442491506
    vertex 338.7597269204989 262.2276167669975 117.86161442491498
  endloop
endfacet
facet normal 0.0 -1.0 0.0
  outer loop
    vertex 340.8303348175103 243.9658106920433 117.86161442491498
    vertex 339.6157423496472 243.9658106920433 115.86161442491506
    vertex 340.8303348175103 243.9658106920433 115.86161442491506
  endloop
endfacet
facet normal 0.0 -1.0 0.0
  outer loop
    vertex 339.6157423496472 243.9658106920433 115.86161442491506
    vertex 340.8303348175103 243.9658106920433 117.86161442491498
    vertex 316.96333878789136 243.9658106920433 115.86161442491506
  endloop
endfacet
facet normal 0.0 -1.0 0.0
  outer loop
    vertex 316.96333878789136 243.9658106920433 115.86161442491506
    vertex 340.8303348175103 243.9658106920433 117.86161442491498
    vertex 315.6269815120525 243.9658106920433 115.86161442491506
  endloop
endfacet
facet normal 0.0 -1.0 0.0
  outer loop
    vertex 315.6269815120525 243.9658106920433 115.86161442491506
    vertex 340.8303348175103 243.9658106920433 117.86161442491498
    vertex 315.6269815120525 243.9658106920433 117.86161442491498
  endloop
endfacet
facet normal -0.9238795325112962 0.3826834323650668 0.0
  outer loop
    vertex 315.4662335319739 259.1609701848627 117.86161442491498
    vertex 313.9870000299494 255.58978460235818 115.86161442491506
    vertex 313.9870000299494 255.58978460235818 117.86161442491498
  endloop
endfacet
facet normal -0.9238795325112962 0.3826834323650668 0.0
  outer loop
    vertex 313.9870000299494 255.58978460235818 115.86161442491506
    vertex 315.4662335319739 259.1609701848627 117.86161442491498
    vertex 315.4662335319739 259.1609701848627 115.86161442491506
  endloop
endfacet
facet normal -0.6087614290088176 0.7933533402911608 -0.0
  outer loop
    vertex 324.8954280190736 254.94136458299266 106.86161442491513
    vertex 325.889540568769 255.7041739714627 101.861614424915
    vertex 324.8954280190736 254.94136458299266 101.861614424915
  endloop
endfacet
facet normal -0.6087614290088176 0.7933533402911608 -0.0
  outer loop
    vertex 325.889540568769 255.7041739714627 101.861614424915
    vertex 324.8954280190736 254.94136458299266 106.86161442491513
    vertex 325.889540568769 255.7041739714627 106.86161442491513
  endloop
endfacet
facet normal -0.0 -0.0 1.0
  outer loop
    vertex 315.93552155428426 248.447180997058 117.86161442491498
    vertex 315.93552155428426 255.0676798334779 117.86161442491498
    vertex 315.49971895073975 251.75743041526798 117.86161442491498
  endloop
endfacet
facet normal -0.0 -0.0 1.0
  outer loop
    vertex 315.93552155428426 255.0676798334779 117.86161442491498
    vertex 315.93552155428426 248.447180997058 117.86161442491498
    vertex 316.96333878789136 245.9658106920434 117.86161442491498
  endloop
endfacet
facet normal -0.0 -0.0 1.0
  outer loop
    vertex 315.93552155428426 255.0676798334779 117.86161442491498
    vertex 316.96333878789136 245.9658106920434 117.86161442491498
    vertex 317.2132301376842 258.1523412242827 117.86161442491498
  endloop
endfacet
facet normal -0.0 -0.0 1.0
  outer loop
    vertex 317.2132301376842 258.1523412242827 117.86161442491498
    vertex 316.96333878789136 245.9658106920434 117.86161442491498
    vertex 339.6157423496472 245.9658106920434 117.86161442491498
  endloop
endfacet
facet normal -0.0 -0.0 1.0
  outer loop
    vertex 317.2132301376842 258.1523412242827 117.86161442491498
    vertex 339.6157423496472 245.9658106920434 117.86161442491498
    vertex 319.24577097249426 260.80120001154273 117.86161442491498
  endloop
endfacet
facet normal -0.0 -0.0 1.0
  outer loop
    vertex 319.24577097249426 260.80120001154273 117.86161442491498
    vertex 339.6157423496472 245.9658106920434 117.86161442491498
    vertex 321.8946297597544 262.8337408463527 117.86161442491498
  endloop
endfacet
facet normal -0.0 -0.0 1.0
  outer loop
    vertex 321.8946297597544 262.8337408463527 117.86161442491498
    vertex 339.6157423496472 245.9658106920434 117.86161442491498
    vertex 324.9792911505592 264.11144942975295 117.86161442491498
  endloop
endfacet
facet normal -0.0 -0.0 1.0
  outer loop
    vertex 324.9792911505592 264.11144942975295 117.86161442491498
    vertex 339.6157423496472 245.9658106920434 117.86161442491498
    vertex 328.2895405687693 264.54725203329747 117.86161442491498
  endloop
endfacet
facet normal -0.0 -0.0 1.0
  outer loop
    vertex 328.2895405687693 264.54725203329747 117.86161442491498
    vertex 339.6157423496472 245.9658106920434 117.86161442491498
    vertex 331.5997899869789 264.11144942975295 117.86161442491498
  endloop
endfacet
facet normal -0.0 -0.0 1.0
  outer loop
    vertex 331.5997899869789 264.11144942975295 117.86161442491498
    vertex 339.6157423496472 245.9658106920434 117.86161442491498
    vertex 334.6844513777839 262.8337408463527 117.86161442491498
  endloop
endfacet
facet normal -0.0 -0.0 1.0
  outer loop
    vertex 334.6844513777839 262.8337408463527 117.86161442491498
    vertex 339.6157423496472 245.9658106920434 117.86161442491498
    vertex 337.3333101650443 260.8012000115429 117.86161442491498
  endloop
endfacet
facet normal -0.0 -0.0 1.0
  outer loop
    vertex 337.3333101650443 260.8012000115429 117.86161442491498
    vertex 339.6157423496472 245.9658106920434 117.86161442491498
    vertex 339.3658509998541 258.1523412242827 117.86161442491498
  endloop
endfacet
facet normal -0.0 -0.0 1.0
  outer loop
    vertex 339.3658509998541 258.1523412242827 117.86161442491498
    vertex 339.6157423496472 245.9658106920434 117.86161442491498
    vertex 340.196991777566 256.43056007895973 117.86161442491498
  endloop
endfacet
facet normal -0.0 -0.0 1.0
  outer loop
    vertex 340.196991777566 256.43056007895973 117.86161442491498
    vertex 339.6157423496472 245.9658106920434 117.86161442491498
    vertex 340.1969917775662 247.0843007515764 117.86161442491498
  endloop
endfacet
facet normal -0.0 -0.0 1.0
  outer loop
    vertex 340.196991777566 256.43056007895973 117.86161442491498
    vertex 340.1969917775662 247.0843007515764 117.86161442491498
    vertex 340.8581746011397 254.13544927639896 117.86161442491498
  endloop
endfacet
facet normal -0.0 -0.0 1.0
  outer loop
    vertex 340.8581746011397 254.13544927639896 117.86161442491498
    vertex 340.1969917775662 247.0843007515764 117.86161442491498
    vertex 340.8581746011397 249.37941155413714 117.86161442491498
  endloop
endfacet
facet normal -0.0 -0.0 1.0
  outer loop
    vertex 340.8581746011397 254.13544927639896 117.86161442491498
    vertex 340.8581746011397 249.37941155413714 117.86161442491498
    vertex 341.0811602919927 251.75743041526798 117.86161442491498
  endloop
endfacet
facet normal 0.9956324195960307 -0.09335997562849739 -0.0
  outer loop
    vertex 341.0811602919927 251.75743041526798 106.86161442491513
    vertex 340.8581746011397 249.37941155413714 115.86161442491506
    vertex 340.8581746011397 249.37941155413714 106.86161442491513
  endloop
endfacet
facet normal 0.9956324195960307 -0.09335997562849739 -0.0
  outer loop
    vertex 340.8581746011397 249.37941155413714 115.86161442491506
    vertex 341.0811602919927 251.75743041526798 106.86161442491513
    vertex 341.0811602919927 251.75743041526798 115.86161442491506
  endloop
endfacet
facet normal 0.13052619222007536 0.9914448613738073 -0.0
  outer loop
    vertex 328.2895405687693 256.3472520332973 106.86161442491513
    vertex 329.53187198526115 256.1836959994848 101.861614424915
    vertex 328.2895405687693 256.3472520332973 101.861614424915
  endloop
endfacet
facet normal 0.13052619222007536 0.9914448613738073 -0.0
  outer loop
    vertex 329.53187198526115 256.1836959994848 101.861614424915
    vertex 328.2895405687693 256.3472520332973 106.86161442491513
    vertex 329.53187198526115 256.1836959994848 106.86161442491513
  endloop
endfacet
facet normal -0.1305261922200254 0.991444861373814 -0.0
  outer loop
    vertex 324.4571863816789 266.0599709540878 117.86161442491498
    vertex 328.2895405687693 266.5645099544577 115.86161442491506
    vertex 324.4571863816789 266.0599709540878 115.86161442491506
  endloop
endfacet
facet normal -0.1305261922200254 0.991444861373814 -0.0
  outer loop
    vertex 328.2895405687693 266.5645099544577 115.86161442491506
    vertex 324.4571863816789 266.0599709540878 117.86161442491498
    vertex 328.2895405687693 266.5645099544577 117.86161442491498
  endloop
endfacet
facet normal -0.991444861373807 0.13052619222007736 0.0
  outer loop
    vertex 313.9870000299494 255.58978460235818 117.86161442491498
    vertex 313.4824610295793 251.75743041526798 115.86161442491506
    vertex 313.4824610295793 251.75743041526798 117.86161442491498
  endloop
endfacet
facet normal -0.991444861373807 0.13052619222007736 0.0
  outer loop
    vertex 313.4824610295793 251.75743041526798 115.86161442491506
    vertex 313.9870000299494 255.58978460235818 117.86161442491498
    vertex 313.9870000299494 255.58978460235818 115.86161442491506
  endloop
endfacet
facet normal 0.9956324195960405 -0.09335997562839192 -0.0
  outer loop
    vertex 343.08993377167826 251.75743041526798 115.86161442491506
    vertex 342.8319307998379 249.00597165162336 117.86161442491498
    vertex 342.8319307998379 249.00597165162336 115.86161442491506
  endloop
endfacet
facet normal 0.9956324195960405 -0.09335997562839192 -0.0
  outer loop
    vertex 342.8319307998379 249.00597165162336 117.86161442491498
    vertex 343.08993377167826 251.75743041526798 115.86161442491506
    vertex 343.08993377167826 251.75743041526798 117.86161442491498
  endloop
endfacet
facet normal 0.9005647239892268 0.4347219547092233 -0.0
  outer loop
    vertex 341.07765053033603 259.2068399063503 115.86161442491506
    vertex 342.07187016583225 257.1472265789668 117.86161442491498
    vertex 342.07187016583225 257.1472265789668 115.86161442491506
  endloop
endfacet
facet normal 0.9005647239892268 0.4347219547092233 -0.0
  outer loop
    vertex 342.07187016583225 257.1472265789668 117.86161442491498
    vertex 341.07765053033603 259.2068399063503 115.86161442491506
    vertex 341.07765053033603 259.2068399063503 117.86161442491498
  endloop
endfacet
facet normal 0.38268343236509034 0.9238795325112867 -0.0
  outer loop
    vertex 332.1218947558592 266.0599709540878 117.86161442491498
    vertex 335.6930803383639 264.58073745206315 115.86161442491506
    vertex 332.1218947558592 266.0599709540878 115.86161442491506
  endloop
endfacet
facet normal 0.38268343236509034 0.9238795325112867 -0.0
  outer loop
    vertex 335.6930803383639 264.58073745206315 115.86161442491506
    vertex 332.1218947558592 266.0599709540878 117.86161442491498
    vertex 335.6930803383639 264.58073745206315 117.86161442491498
  endloop
endfacet
facet normal 0.9914448613738123 0.13052619222003808 -0.0
  outer loop
    vertex 332.9259845349567 252.78958344978946 101.861614424915
    vertex 333.08954056876917 251.5472520332973 106.86161442491513
    vertex 333.08954056876917 251.5472520332973 101.861614424915
  endloop
endfacet
facet normal 0.9914448613738123 0.13052619222003808 -0.0
  outer loop
    vertex 333.08954056876917 251.5472520332973 106.86161442491513
    vertex 332.9259845349567 252.78958344978946 101.861614424915
    vertex 332.9259845349567 252.78958344978946 106.86161442491513
  endloop
endfacet
facet normal -0.0 -0.0 1.0
  outer loop
    vertex 313.9870000299494 247.92507622817791 117.86161442491498
    vertex 313.9870000299494 255.58978460235818 117.86161442491498
    vertex 313.4824610295793 251.75743041526798 117.86161442491498
  endloop
endfacet
facet normal -0.0 -0.0 1.0
  outer loop
    vertex 313.9870000299494 255.58978460235818 117.86161442491498
    vertex 313.9870000299494 247.92507622817791 117.86161442491498
    vertex 315.6269815120525 243.9658106920433 117.86161442491498
  endloop
endfacet
facet normal -0.0 -0.0 1.0
  outer loop
    vertex 313.9870000299494 255.58978460235818 117.86161442491498
    vertex 315.6269815120525 243.9658106920433 117.86161442491498
    vertex 315.49971895073975 251.75743041526798 117.86161442491498
  endloop
endfacet
facet normal -0.0 -0.0 1.0
  outer loop
    vertex 313.9870000299494 255.58978460235818 117.86161442491498
    vertex 315.49971895073975 251.75743041526798 117.86161442491498
    vertex 315.4662335319739 259.1609701848627 117.86161442491498
  endloop
endfacet
facet normal -0.0 -0.0 1.0
  outer loop
    vertex 315.49971895073975 251.75743041526798 117.86161442491498
    vertex 315.6269815120525 243.9658106920433 117.86161442491498
    vertex 315.93552155428426 248.447180997058 117.86161442491498
  endloop
endfacet
facet normal -0.0 -0.0 1.0
  outer loop
    vertex 315.93552155428426 248.447180997058 117.86161442491498
    vertex 315.6269815120525 243.9658106920433 117.86161442491498
    vertex 316.96333878789136 245.9658106920434 117.86161442491498
  endloop
endfacet
facet normal -0.0 -0.0 1.0
  outer loop
    vertex 316.96333878789136 245.9658106920434 117.86161442491498
    vertex 315.6269815120525 243.9658106920433 117.86161442491498
    vertex 340.8303348175103 243.9658106920433 117.86161442491498
  endloop
endfacet
facet normal -0.0 -0.0 1.0
  outer loop
    vertex 316.96333878789136 245.9658106920434 117.86161442491498
    vertex 340.8303348175103 243.9658106920433 117.86161442491498
    vertex 339.6157423496472 245.9658106920434 117.86161442491498
  endloop
endfacet
facet normal -0.0 -0.0 1.0
  outer loop
    vertex 339.6157423496472 245.9658106920434 117.86161442491498
    vertex 340.8303348175103 243.9658106920433 117.86161442491498
    vertex 340.1969917775662 247.0843007515764 117.86161442491498
  endloop
endfacet
facet normal -0.0 -0.0 1.0
  outer loop
    vertex 340.1969917775662 247.0843007515764 117.86161442491498
    vertex 340.8303348175103 243.9658106920433 117.86161442491498
    vertex 340.8581746011397 249.37941155413714 117.86161442491498
  endloop
endfacet
facet normal -0.0 -0.0 1.0
  outer loop
    vertex 340.8581746011397 249.37941155413714 117.86161442491498
    vertex 340.8303348175103 243.9658106920433 117.86161442491498
    vertex 342.06362505851155 246.3390136731072 117.86161442491498
  endloop
endfacet
facet normal -0.0 -0.0 1.0
  outer loop
    vertex 340.8581746011397 249.37941155413714 117.86161442491498
    vertex 342.06362505851155 246.3390136731072 117.86161442491498
    vertex 341.0811602919927 251.75743041526798 117.86161442491498
  endloop
endfacet
facet normal -0.0 -0.0 1.0
  outer loop
    vertex 315.4662335319739 259.1609701848627 117.86161442491498
    vertex 315.93552155428426 255.0676798334779 117.86161442491498
    vertex 317.8193542170394 262.2276167669975 117.86161442491498
  endloop
endfacet
facet normal -0.0 -0.0 1.0
  outer loop
    vertex 315.93552155428426 255.0676798334779 117.86161442491498
    vertex 315.4662335319739 259.1609701848627 117.86161442491498
    vertex 315.49971895073975 251.75743041526798 117.86161442491498
  endloop
endfacet
facet normal -0.0 -0.0 1.0
  outer loop
    vertex 317.8193542170394 262.2276167669975 117.86161442491498
    vertex 315.93552155428426 255.0676798334779 117.86161442491498
    vertex 317.2132301376842 258.1523412242827 117.86161442491498
  endloop
endfacet
facet normal -0.0 -0.0 1.0
  outer loop
    vertex 317.8193542170394 262.2276167669975 117.86161442491498
    vertex 317.2132301376842 258.1523412242827 117.86161442491498
    vertex 319.24577097249426 260.80120001154273 117.86161442491498
  endloop
endfacet
facet normal -0.0 -0.0 1.0
  outer loop
    vertex 317.8193542170394 262.2276167669975 117.86161442491498
    vertex 319.24577097249426 260.80120001154273 117.86161442491498
    vertex 320.88600079917427 264.580737452063 117.86161442491498
  endloop
endfacet
facet normal -0.0 -0.0 1.0
  outer loop
    vertex 320.88600079917427 264.580737452063 117.86161442491498
    vertex 319.24577097249426 260.80120001154273 117.86161442491498
    vertex 321.8946297597544 262.8337408463527 117.86161442491498
  endloop
endfacet
facet normal -0.0 -0.0 1.0
  outer loop
    vertex 320.88600079917427 264.580737452063 117.86161442491498
    vertex 321.8946297597544 262.8337408463527 117.86161442491498
    vertex 324.4571863816789 266.0599709540878 117.86161442491498
  endloop
endfacet
facet normal -0.0 -0.0 1.0
  outer loop
    vertex 324.4571863816789 266.0599709540878 117.86161442491498
    vertex 321.8946297597544 262.8337408463527 117.86161442491498
    vertex 324.9792911505592 264.11144942975295 117.86161442491498
  endloop
endfacet
facet normal -0.0 -0.0 1.0
  outer loop
    vertex 324.4571863816789 266.0599709540878 117.86161442491498
    vertex 324.9792911505592 264.11144942975295 117.86161442491498
    vertex 328.2895405687693 266.5645099544577 117.86161442491498
  endloop
endfacet
facet normal -0.0 -0.0 1.0
  outer loop
    vertex 328.2895405687693 266.5645099544577 117.86161442491498
    vertex 324.9792911505592 264.11144942975295 117.86161442491498
    vertex 328.2895405687693 264.54725203329747 117.86161442491498
  endloop
endfacet
facet normal -0.0 -0.0 1.0
  outer loop
    vertex 328.2895405687693 266.5645099544577 117.86161442491498
    vertex 328.2895405687693 264.54725203329747 117.86161442491498
    vertex 331.5997899869789 264.11144942975295 117.86161442491498
  endloop
endfacet
facet normal -0.0 -0.0 1.0
  outer loop
    vertex 328.2895405687693 266.5645099544577 117.86161442491498
    vertex 331.5997899869789 264.11144942975295 117.86161442491498
    vertex 332.1218947558592 266.0599709540878 117.86161442491498
  endloop
endfacet
facet normal -0.0 -0.0 1.0
  outer loop
    vertex 332.1218947558592 266.0599709540878 117.86161442491498
    vertex 331.5997899869789 264.11144942975295 117.86161442491498
    vertex 334.6844513777839 262.8337408463527 117.86161442491498
  endloop
endfacet
facet normal -0.0 -0.0 1.0
  outer loop
    vertex 332.1218947558592 266.0599709540878 117.86161442491498
    vertex 334.6844513777839 262.8337408463527 117.86161442491498
    vertex 335.6930803383639 264.58073745206315 117.86161442491498
  endloop
endfacet
facet normal -0.0 -0.0 1.0
  outer loop
    vertex 335.6930803383639 264.58073745206315 117.86161442491498
    vertex 334.6844513777839 262.8337408463527 117.86161442491498
    vertex 337.3333101650443 260.8012000115429 117.86161442491498
  endloop
endfacet
facet normal -0.0 -0.0 1.0
  outer loop
    vertex 335.6930803383639 264.58073745206315 117.86161442491498
    vertex 337.3333101650443 260.8012000115429 117.86161442491498
    vertex 338.7597269204989 262.2276167669975 117.86161442491498
  endloop
endfacet
facet normal -0.0 -0.0 1.0
  outer loop
    vertex 338.7597269204989 262.2276167669975 117.86161442491498
    vertex 337.3333101650443 260.8012000115429 117.86161442491498
    vertex 339.3658509998541 258.1523412242827 117.86161442491498
  endloop
endfacet
facet normal -0.0 -0.0 1.0
  outer loop
    vertex 338.7597269204989 262.2276167669975 117.86161442491498
    vertex 339.3658509998541 258.1523412242827 117.86161442491498
    vertex 341.07765053033603 259.2068399063503 117.86161442491498
  endloop
endfacet
facet normal -0.0 -0.0 1.0
  outer loop
    vertex 341.07765053033603 259.2068399063503 117.86161442491498
    vertex 339.3658509998541 258.1523412242827 117.86161442491498
    vertex 340.196991777566 256.43056007895973 117.86161442491498
  endloop
endfacet
facet normal -0.0 -0.0 1.0
  outer loop
    vertex 341.07765053033603 259.2068399063503 117.86161442491498
    vertex 340.196991777566 256.43056007895973 117.86161442491498
    vertex 340.8581746011397 254.13544927639896 117.86161442491498
  endloop
endfacet
facet normal -0.0 -0.0 1.0
  outer loop
    vertex 341.07765053033603 259.2068399063503 117.86161442491498
    vertex 340.8581746011397 254.13544927639896 117.86161442491498
    vertex 341.0811602919927 251.75743041526798 117.86161442491498
  endloop
endfacet
facet normal -0.0 -0.0 1.0
  outer loop
    vertex 341.07765053033603 259.2068399063503 117.86161442491498
    vertex 341.0811602919927 251.75743041526798 117.86161442491498
    vertex 342.07187016583225 257.1472265789668 117.86161442491498
  endloop
endfacet
facet normal -0.0 -0.0 1.0
  outer loop
    vertex 342.07187016583225 257.1472265789668 117.86161442491498
    vertex 341.0811602919927 251.75743041526798 117.86161442491498
    vertex 342.06362505851155 246.3390136731072 117.86161442491498
  endloop
endfacet
facet normal -0.0 -0.0 1.0
  outer loop
    vertex 342.07187016583225 257.1472265789668 117.86161442491498
    vertex 342.06362505851155 246.3390136731072 117.86161442491498
    vertex 342.8319307998379 249.00597165162336 117.86161442491498
  endloop
endfacet
facet normal -0.0 -0.0 1.0
  outer loop
    vertex 342.07187016583225 257.1472265789668 117.86161442491498
    vertex 342.8319307998379 249.00597165162336 117.86161442491498
    vertex 342.8319307998379 254.50888917891274 117.86161442491498
  endloop
endfacet
facet normal -0.0 -0.0 1.0
  outer loop
    vertex 342.8319307998379 254.50888917891274 117.86161442491498
    vertex 342.8319307998379 249.00597165162336 117.86161442491498
    vertex 343.08993377167826 251.75743041526798 117.86161442491498
  endloop
endfacet
facet normal -0.9914448613738105 0.130526192220051 0.0
  outer loop
    vertex 315.93552155428426 255.0676798334779 115.86161442491506
    vertex 315.49971895073975 251.75743041526798 106.86161442491513
    vertex 315.49971895073975 251.75743041526798 115.86161442491506
  endloop
endfacet
facet normal -0.9914448613738105 0.130526192220051 0.0
  outer loop
    vertex 315.49971895073975 251.75743041526798 106.86161442491513
    vertex 315.93552155428426 255.0676798334779 115.86161442491506
    vertex 315.93552155428426 255.0676798334779 106.86161442491513
  endloop
endfacet
facet normal -0.608761429008725 0.793353340291232 -0.0
  outer loop
    vertex 319.24577097249426 260.80120001154273 115.86161442491506
    vertex 321.8946297597544 262.8337408463527 106.86161442491513
    vertex 319.24577097249426 260.80120001154273 106.86161442491513
  endloop
endfacet
facet normal -0.608761429008725 0.793353340291232 -0.0
  outer loop
    vertex 321.8946297597544 262.8337408463527 106.86161442491513
    vertex 319.24577097249426 260.80120001154273 115.86161442491506
    vertex 321.8946297597544 262.8337408463527 115.86161442491506
  endloop
endfacet
facet normal 0.7933533402912581 0.608761429008691 -0.0
  outer loop
    vertex 337.3333101650443 260.8012000115429 106.86161442491513
    vertex 339.3658509998541 258.1523412242827 115.86161442491506
    vertex 339.3658509998541 258.1523412242827 106.86161442491513
  endloop
endfacet
facet normal 0.7933533402912581 0.608761429008691 -0.0
  outer loop
    vertex 339.3658509998541 258.1523412242827 115.86161442491506
    vertex 337.3333101650443 260.8012000115429 106.86161442491513
    vertex 337.3333101650443 260.8012000115429 115.86161442491506
  endloop
endfacet
facet normal -0.13052619222001943 -0.9914448613738147 0.0
  outer loop
    vertex 328.2895405687693 246.74725203329731 106.86161442491513
    vertex 327.047209152277 246.91080806710977 101.861614424915
    vertex 328.2895405687693 246.74725203329731 101.861614424915
  endloop
endfacet
facet normal -0.13052619222001943 -0.9914448613738147 0.0
  outer loop
    vertex 327.047209152277 246.91080806710977 101.861614424915
    vertex 328.2895405687693 246.74725203329731 106.86161442491513
    vertex 327.047209152277 246.91080806710977 106.86161442491513
  endloop
endfacet
facet normal 0.608761429008717 0.793353340291238 -0.0
  outer loop
    vertex 335.6930803383639 264.58073745206315 117.86161442491498
    vertex 338.7597269204989 262.2276167669975 115.86161442491506
    vertex 335.6930803383639 264.58073745206315 115.86161442491506
  endloop
endfacet
facet normal 0.608761429008717 0.793353340291238 -0.0
  outer loop
    vertex 338.7597269204989 262.2276167669975 115.86161442491506
    vertex 335.6930803383639 264.58073745206315 117.86161442491498
    vertex 338.7597269204989 262.2276167669975 117.86161442491498
  endloop
endfacet
facet normal 0.8873354281645898 -0.4611245362415277 -0.0
  outer loop
    vertex 342.06362505851155 246.3390136731072 115.86161442491506
    vertex 340.8303348175103 243.9658106920433 117.86161442491498
    vertex 340.8303348175103 243.9658106920433 115.86161442491506
  endloop
endfacet
facet normal 0.8873354281645898 -0.4611245362415277 -0.0
  outer loop
    vertex 340.8303348175103 243.9658106920433 117.86161442491498
    vertex 342.06362505851155 246.3390136731072 115.86161442491506
    vertex 342.06362505851155 246.3390136731072 117.86161442491498
  endloop
endfacet
facet normal 0.7933533402912304 0.608761429008727 -0.0
  outer loop
    vertex 331.6836531184645 254.94136458299266 101.861614424915
    vertex 332.4464625069344 253.9472520332973 106.86161442491513
    vertex 332.4464625069344 253.9472520332973 101.861614424915
  endloop
endfacet
facet normal 0.7933533402912304 0.608761429008727 -0.0
  outer loop
    vertex 332.4464625069344 253.9472520332973 106.86161442491513
    vertex 331.6836531184645 254.94136458299266 101.861614424915
    vertex 331.6836531184645 254.94136458299266 106.86161442491513
  endloop
endfacet
facet normal 0.13052619222007536 -0.9914448613738073 0.0
  outer loop
    vertex 329.53187198526115 246.91080806710977 106.86161442491513
    vertex 328.2895405687693 246.74725203329731 101.861614424915
    vertex 329.53187198526115 246.91080806710977 101.861614424915
  endloop
endfacet
facet normal 0.13052619222007536 -0.9914448613738073 0.0
  outer loop
    vertex 328.2895405687693 246.74725203329731 101.861614424915
    vertex 329.53187198526115 246.91080806710977 106.86161442491513
    vertex 328.2895405687693 246.74725203329731 106.86161442491513
  endloop
endfacet
facet normal -0.9238795325113024 0.382683432365052 0.0
  outer loop
    vertex 324.13261863060376 253.9472520332973 106.86161442491513
    vertex 323.6530966025816 252.78958344978946 101.861614424915
    vertex 323.6530966025816 252.78958344978946 106.86161442491513
  endloop
endfacet
facet normal -0.9238795325113024 0.382683432365052 0.0
  outer loop
    vertex 323.6530966025816 252.78958344978946 101.861614424915
    vertex 324.13261863060376 253.9472520332973 106.86161442491513
    vertex 324.13261863060376 253.9472520332973 101.861614424915
  endloop
endfacet
facet normal -0.923879532511294 0.38268343236507263 0.0
  outer loop
    vertex 317.2132301376842 258.1523412242827 115.86161442491506
    vertex 315.93552155428426 255.0676798334779 106.86161442491513
    vertex 315.93552155428426 255.0676798334779 115.86161442491506
  endloop
endfacet
facet normal -0.923879532511294 0.38268343236507263 0.0
  outer loop
    vertex 315.93552155428426 255.0676798334779 106.86161442491513
    vertex 317.2132301376842 258.1523412242827 115.86161442491506
    vertex 317.2132301376842 258.1523412242827 106.86161442491513
  endloop
endfacet
facet normal -0.9914448613738123 -0.13052619222003808 0.0
  outer loop
    vertex 323.4895405687692 251.5472520332973 106.86161442491513
    vertex 323.6530966025816 250.30492061680513 101.861614424915
    vertex 323.6530966025816 250.30492061680513 106.86161442491513
  endloop
endfacet
facet normal -0.9914448613738123 -0.13052619222003808 0.0
  outer loop
    vertex 323.6530966025816 250.30492061680513 101.861614424915
    vertex 323.4895405687692 251.5472520332973 106.86161442491513
    vertex 323.4895405687692 251.5472520332973 101.861614424915
  endloop
endfacet
facet normal -0.9914448613738064 -0.1305261922200834 0.0
  outer loop
    vertex 313.4824610295793 251.75743041526798 117.86161442491498
    vertex 313.9870000299494 247.92507622817791 115.86161442491506
    vertex 313.9870000299494 247.92507622817791 117.86161442491498
  endloop
endfacet
facet normal -0.9914448613738064 -0.1305261922200834 0.0
  outer loop
    vertex 313.9870000299494 247.92507622817791 115.86161442491506
    vertex 313.4824610295793 251.75743041526798 117.86161442491498
    vertex 313.4824610295793 251.75743041526798 115.86161442491506
  endloop
endfacet
facet normal 0.6087614290086575 -0.7933533402912838 0.0
  outer loop
    vertex 331.6836531184645 248.15313948360193 106.86161442491513
    vertex 330.68954056876896 247.39033009513207 101.861614424915
    vertex 331.6836531184645 248.15313948360193 101.861614424915
  endloop
endfacet
facet normal 0.6087614290086575 -0.7933533402912838 0.0
  outer loop
    vertex 330.68954056876896 247.39033009513207 101.861614424915
    vertex 331.6836531184645 248.15313948360193 106.86161442491513
    vertex 330.68954056876896 247.39033009513207 106.86161442491513
  endloop
endfacet
facet normal -0.9238795325112706 -0.38268343236512875 0.0
  outer loop
    vertex 315.93552155428426 248.447180997058 115.86161442491506
    vertex 316.96333878789136 245.9658106920434 106.86161442491513
    vertex 316.96333878789136 245.9658106920434 115.86161442491506
  endloop
endfacet
facet normal -0.9238795325112706 -0.38268343236512875 0.0
  outer loop
    vertex 316.96333878789136 245.9658106920434 106.86161442491513
    vertex 315.93552155428426 248.447180997058 115.86161442491506
    vertex 315.93552155428426 248.447180997058 106.86161442491513
  endloop
endfacet
facet normal 0.9609203522077046 0.27682499293420265 -0.0
  outer loop
    vertex 340.196991777566 256.43056007895973 106.86161442491513
    vertex 340.8581746011397 254.13544927639896 115.86161442491506
    vertex 340.8581746011397 254.13544927639896 106.86161442491513
  endloop
endfacet
facet normal 0.9609203522077046 0.27682499293420265 -0.0
  outer loop
    vertex 340.8581746011397 254.13544927639896 115.86161442491506
    vertex 340.196991777566 256.43056007895973 106.86161442491513
    vertex 340.196991777566 256.43056007895973 115.86161442491506
  endloop
endfacet
facet normal 0.13052619222006492 0.9914448613738086 -0.0
  outer loop
    vertex 328.2895405687693 264.54725203329747 115.86161442491506
    vertex 331.5997899869789 264.11144942975295 106.86161442491513
    vertex 328.2895405687693 264.54725203329747 106.86161442491513
  endloop
endfacet
facet normal 0.13052619222006492 0.9914448613738086 -0.0
  outer loop
    vertex 331.5997899869789 264.11144942975295 106.86161442491513
    vertex 328.2895405687693 264.54725203329747 115.86161442491506
    vertex 331.5997899869789 264.11144942975295 115.86161442491506
  endloop
endfacet
facet normal 0.9956324195960412 0.09335997562838583 -0.0
  outer loop
    vertex 342.8319307998379 254.50888917891274 115.86161442491506
    vertex 343.08993377167826 251.75743041526798 117.86161442491498
    vertex 343.08993377167826 251.75743041526798 115.86161442491506
  endloop
endfacet
facet normal 0.9956324195960412 0.09335997562838583 -0.0
  outer loop
    vertex 343.08993377167826 251.75743041526798 117.86161442491498
    vertex 342.8319307998379 254.50888917891274 115.86161442491506
    vertex 342.8319307998379 254.50888917891274 117.86161442491498
  endloop
endfacet
facet normal -0.9238795325113026 -0.38268343236505187 0.0
  outer loop
    vertex 313.9870000299494 247.92507622817791 117.86161442491498
    vertex 315.6269815120525 243.9658106920433 115.86161442491506
    vertex 315.6269815120525 243.9658106920433 117.86161442491498
  endloop
endfacet
facet normal -0.9238795325113026 -0.38268343236505187 0.0
  outer loop
    vertex 315.6269815120525 243.9658106920433 115.86161442491506
    vertex 313.9870000299494 247.92507622817791 117.86161442491498
    vertex 313.9870000299494 247.92507622817791 115.86161442491506
  endloop
endfacet
facet normal 0.13052619222004358 0.9914448613738116 -0.0
  outer loop
    vertex 328.2895405687693 266.5645099544577 117.86161442491498
    vertex 332.1218947558592 266.0599709540878 115.86161442491506
    vertex 328.2895405687693 266.5645099544577 115.86161442491506
  endloop
endfacet
facet normal 0.13052619222004358 0.9914448613738116 -0.0
  outer loop
    vertex 332.1218947558592 266.0599709540878 115.86161442491506
    vertex 328.2895405687693 266.5645099544577 117.86161442491498
    vertex 332.1218947558592 266.0599709540878 117.86161442491498
  endloop
endfacet
facet normal 0.9609203522077067 -0.27682499293419527 -0.0
  outer loop
    vertex 342.8319307998379 249.00597165162336 115.86161442491506
    vertex 342.06362505851155 246.3390136731072 117.86161442491498
    vertex 342.06362505851155 246.3390136731072 115.86161442491506
  endloop
endfacet
facet normal 0.9609203522077067 -0.27682499293419527 -0.0
  outer loop
    vertex 342.06362505851155 246.3390136731072 117.86161442491498
    vertex 342.8319307998379 249.00597165162336 115.86161442491506
    vertex 342.8319307998379 249.00597165162336 117.86161442491498
  endloop
endfacet
facet normal -0.7933533402912304 -0.608761429008727 0.0
  outer loop
    vertex 324.13261863060376 249.1472520332973 106.86161442491513
    vertex 324.8954280190736 248.15313948360193 101.861614424915
    vertex 324.8954280190736 248.15313948360193 106.86161442491513
  endloop
endfacet
facet normal -0.7933533402912304 -0.608761429008727 0.0
  outer loop
    vertex 324.8954280190736 248.15313948360193 101.861614424915
    vertex 324.13261863060376 249.1472520332973 106.86161442491513
    vertex 324.13261863060376 249.1472520332973 101.861614424915
  endloop
endfacet
facet normal 0.8873354281645834 -0.4611245362415401 -0.0
  outer loop
    vertex 340.1969917775662 247.0843007515764 106.86161442491513
    vertex 339.6157423496472 245.9658106920434 115.86161442491506
    vertex 339.6157423496472 245.9658106920434 106.86161442491513
  endloop
endfacet
facet normal 0.8873354281645834 -0.4611245362415401 -0.0
  outer loop
    vertex 339.6157423496472 245.9658106920434 115.86161442491506
    vertex 340.1969917775662 247.0843007515764 106.86161442491513
    vertex 340.1969917775662 247.0843007515764 115.86161442491506
  endloop
endfacet
facet normal 0.6087614290087482 0.7933533402912142 -0.0
  outer loop
    vertex 330.68954056876896 255.7041739714627 106.86161442491513
    vertex 331.6836531184645 254.94136458299266 101.861614424915
    vertex 330.68954056876896 255.7041739714627 101.861614424915
  endloop
endfacet
facet normal 0.6087614290087482 0.7933533402912142 -0.0
  outer loop
    vertex 331.6836531184645 254.94136458299266 101.861614424915
    vertex 330.68954056876896 255.7041739714627 106.86161442491513
    vertex 331.6836531184645 254.94136458299266 106.86161442491513
  endloop
endfacet
facet normal 0.9238795325112517 0.38268343236517505 -0.0
  outer loop
    vertex 332.4464625069344 253.9472520332973 101.861614424915
    vertex 332.9259845349567 252.78958344978946 106.86161442491513
    vertex 332.9259845349567 252.78958344978946 101.861614424915
  endloop
endfacet
facet normal 0.9238795325112517 0.38268343236517505 -0.0
  outer loop
    vertex 332.9259845349567 252.78958344978946 106.86161442491513
    vertex 332.4464625069344 253.9472520332973 101.861614424915
    vertex 332.4464625069344 253.9472520332973 106.86161442491513
  endloop
endfacet
facet normal -0.38268343236500113 0.9238795325113235 -0.0
  outer loop
    vertex 325.889540568769 255.7041739714627 106.86161442491513
    vertex 327.047209152277 256.1836959994848 101.861614424915
    vertex 325.889540568769 255.7041739714627 101.861614424915
  endloop
endfacet
facet normal -0.38268343236500113 0.9238795325113235 -0.0
  outer loop
    vertex 327.047209152277 256.1836959994848 101.861614424915
    vertex 325.889540568769 255.7041739714627 106.86161442491513
    vertex 327.047209152277 256.1836959994848 106.86161442491513
  endloop
endfacet
facet normal -0.38268343236512414 -0.9238795325112727 0.0
  outer loop
    vertex 327.047209152277 246.91080806710977 106.86161442491513
    vertex 325.889540568769 247.39033009513207 101.861614424915
    vertex 327.047209152277 246.91080806710977 101.861614424915
  endloop
endfacet
facet normal -0.38268343236512414 -0.9238795325112727 0.0
  outer loop
    vertex 325.889540568769 247.39033009513207 101.861614424915
    vertex 327.047209152277 246.91080806710977 106.86161442491513
    vertex 325.889540568769 247.39033009513207 106.86161442491513
  endloop
endfacet
facet normal 0.9956324195960313 0.09335997562849035 -0.0
  outer loop
    vertex 340.8581746011397 254.13544927639896 106.86161442491513
    vertex 341.0811602919927 251.75743041526798 115.86161442491506
    vertex 341.0811602919927 251.75743041526798 106.86161442491513
  endloop
endfacet
facet normal 0.9956324195960313 0.09335997562849035 -0.0
  outer loop
    vertex 341.0811602919927 251.75743041526798 115.86161442491506
    vertex 340.8581746011397 254.13544927639896 106.86161442491513
    vertex 340.8581746011397 254.13544927639896 115.86161442491506
  endloop
endfacet
facet normal -0.38268343236513 0.9238795325112701 -0.0
  outer loop
    vertex 320.88600079917427 264.580737452063 117.86161442491498
    vertex 324.4571863816789 266.0599709540878 115.86161442491506
    vertex 320.88600079917427 264.580737452063 115.86161442491506
  endloop
endfacet
facet normal -0.38268343236513 0.9238795325112701 -0.0
  outer loop
    vertex 324.4571863816789 266.0599709540878 115.86161442491506
    vertex 320.88600079917427 264.580737452063 117.86161442491498
    vertex 324.4571863816789 266.0599709540878 117.86161442491498
  endloop
endfacet
facet normal -0.9914448613738123 0.13052619222003808 0.0
  outer loop
    vertex 323.6530966025816 252.78958344978946 106.86161442491513
    vertex 323.4895405687692 251.5472520332973 101.861614424915
    vertex 323.4895405687692 251.5472520332973 106.86161442491513
  endloop
endfacet
facet normal -0.9914448613738123 0.13052619222003808 0.0
  outer loop
    vertex 323.4895405687692 251.5472520332973 101.861614424915
    vertex 323.6530966025816 252.78958344978946 106.86161442491513
    vertex 323.6530966025816 252.78958344978946 101.861614424915
  endloop
endfacet
facet normal -0.793353340291212 0.6087614290087512 0.0
  outer loop
    vertex 319.24577097249426 260.80120001154273 115.86161442491506
    vertex 317.2132301376842 258.1523412242827 106.86161442491513
    vertex 317.2132301376842 258.1523412242827 115.86161442491506
  endloop
endfacet
facet normal -0.793353340291212 0.6087614290087512 0.0
  outer loop
    vertex 317.2132301376842 258.1523412242827 106.86161442491513
    vertex 319.24577097249426 260.80120001154273 115.86161442491506
    vertex 319.24577097249426 260.80120001154273 106.86161442491513
  endloop
endfacet
facet normal 0.0 0.0 -1.0
  outer loop
    vertex 315.4662335319739 259.1609701848627 115.86161442491506
    vertex 315.93552155428426 255.0676798334779 115.86161442491506
    vertex 315.49971895073975 251.75743041526798 115.86161442491506
  endloop
endfacet
facet normal 0.0 0.0 -1.0
  outer loop
    vertex 315.93552155428426 255.0676798334779 115.86161442491506
    vertex 315.4662335319739 259.1609701848627 115.86161442491506
    vertex 317.8193542170394 262.2276167669975 115.86161442491506
  endloop
endfacet
facet normal 0.0 0.0 -1.0
  outer loop
    vertex 315.93552155428426 255.0676798334779 115.86161442491506
    vertex 317.8193542170394 262.2276167669975 115.86161442491506
    vertex 317.2132301376842 258.1523412242827 115.86161442491506
  endloop
endfacet
facet normal 0.0 0.0 -1.0
  outer loop
    vertex 317.2132301376842 258.1523412242827 115.86161442491506
    vertex 317.8193542170394 262.2276167669975 115.86161442491506
    vertex 319.24577097249426 260.80120001154273 115.86161442491506
  endloop
endfacet
facet normal 0.0 0.0 -1.0
  outer loop
    vertex 319.24577097249426 260.80120001154273 115.86161442491506
    vertex 317.8193542170394 262.2276167669975 115.86161442491506
    vertex 320.88600079917427 264.580737452063 115.86161442491506
  endloop
endfacet
facet normal 0.0 0.0 -1.0
  outer loop
    vertex 319.24577097249426 260.80120001154273 115.86161442491506
    vertex 320.88600079917427 264.580737452063 115.86161442491506
    vertex 321.8946297597544 262.8337408463527 115.86161442491506
  endloop
endfacet
facet normal 0.0 0.0 -1.0
  outer loop
    vertex 321.8946297597544 262.8337408463527 115.86161442491506
    vertex 320.88600079917427 264.580737452063 115.86161442491506
    vertex 324.4571863816789 266.0599709540878 115.86161442491506
  endloop
endfacet
facet normal 0.0 0.0 -1.0
  outer loop
    vertex 321.8946297597544 262.8337408463527 115.86161442491506
    vertex 324.4571863816789 266.0599709540878 115.86161442491506
    vertex 324.9792911505592 264.11144942975295 115.86161442491506
  endloop
endfacet
facet normal 0.0 0.0 -1.0
  outer loop
    vertex 324.9792911505592 264.11144942975295 115.86161442491506
    vertex 324.4571863816789 266.0599709540878 115.86161442491506
    vertex 328.2895405687693 266.5645099544577 115.86161442491506
  endloop
endfacet
facet normal 0.0 0.0 -1.0
  outer loop
    vertex 324.9792911505592 264.11144942975295 115.86161442491506
    vertex 328.2895405687693 266.5645099544577 115.86161442491506
    vertex 328.2895405687693 264.54725203329747 115.86161442491506
  endloop
endfacet
facet normal 0.0 0.0 -1.0
  outer loop
    vertex 328.2895405687693 264.54725203329747 115.86161442491506
    vertex 328.2895405687693 266.5645099544577 115.86161442491506
    vertex 332.1218947558592 266.0599709540878 115.86161442491506
  endloop
endfacet
facet normal 0.0 0.0 -1.0
  outer loop
    vertex 328.2895405687693 264.54725203329747 115.86161442491506
    vertex 332.1218947558592 266.0599709540878 115.86161442491506
    vertex 331.5997899869789 264.11144942975295 115.86161442491506
  endloop
endfacet
facet normal 0.0 0.0 -1.0
  outer loop
    vertex 331.5997899869789 264.11144942975295 115.86161442491506
    vertex 332.1218947558592 266.0599709540878 115.86161442491506
    vertex 334.6844513777839 262.8337408463527 115.86161442491506
  endloop
endfacet
facet normal 0.0 0.0 -1.0
  outer loop
    vertex 334.6844513777839 262.8337408463527 115.86161442491506
    vertex 332.1218947558592 266.0599709540878 115.86161442491506
    vertex 335.6930803383639 264.58073745206315 115.86161442491506
  endloop
endfacet
facet normal 0.0 0.0 -1.0
  outer loop
    vertex 334.6844513777839 262.8337408463527 115.86161442491506
    vertex 335.6930803383639 264.58073745206315 115.86161442491506
    vertex 337.3333101650443 260.8012000115429 115.86161442491506
  endloop
endfacet
facet normal 0.0 0.0 -1.0
  outer loop
    vertex 337.3333101650443 260.8012000115429 115.86161442491506
    vertex 335.6930803383639 264.58073745206315 115.86161442491506
    vertex 338.7597269204989 262.2276167669975 115.86161442491506
  endloop
endfacet
facet normal 0.0 0.0 -1.0
  outer loop
    vertex 337.3333101650443 260.8012000115429 115.86161442491506
    vertex 338.7597269204989 262.2276167669975 115.86161442491506
    vertex 339.3658509998541 258.1523412242827 115.86161442491506
  endloop
endfacet
facet normal 0.0 0.0 -1.0
  outer loop
    vertex 339.3658509998541 258.1523412242827 115.86161442491506
    vertex 338.7597269204989 262.2276167669975 115.86161442491506
    vertex 341.07765053033603 259.2068399063503 115.86161442491506
  endloop
endfacet
facet normal 0.0 0.0 -1.0
  outer loop
    vertex 339.3658509998541 258.1523412242827 115.86161442491506
    vertex 341.07765053033603 259.2068399063503 115.86161442491506
    vertex 340.196991777566 256.43056007895973 115.86161442491506
  endloop
endfacet
facet normal 0.0 0.0 -1.0
  outer loop
    vertex 340.196991777566 256.43056007895973 115.86161442491506
    vertex 341.07765053033603 259.2068399063503 115.86161442491506
    vertex 340.8581746011397 254.13544927639896 115.86161442491506
  endloop
endfacet
facet normal 0.0 0.0 -1.0
  outer loop
    vertex 340.8581746011397 254.13544927639896 115.86161442491506
    vertex 341.07765053033603 259.2068399063503 115.86161442491506
    vertex 341.0811602919927 251.75743041526798 115.86161442491506
  endloop
endfacet
facet normal 0.0 0.0 -1.0
  outer loop
    vertex 341.0811602919927 251.75743041526798 115.86161442491506
    vertex 341.07765053033603 259.2068399063503 115.86161442491506
    vertex 342.07187016583225 257.1472265789668 115.86161442491506
  endloop
endfacet
facet normal 0.0 0.0 -1.0
  outer loop
    vertex 341.0811602919927 251.75743041526798 115.86161442491506
    vertex 342.07187016583225 257.1472265789668 115.86161442491506
    vertex 342.06362505851155 246.3390136731072 115.86161442491506
  endloop
endfacet
facet normal 0.0 0.0 -1.0
  outer loop
    vertex 342.06362505851155 246.3390136731072 115.86161442491506
    vertex 342.07187016583225 257.1472265789668 115.86161442491506
    vertex 342.8319307998379 249.00597165162336 115.86161442491506
  endloop
endfacet
facet normal 0.0 0.0 -1.0
  outer loop
    vertex 342.8319307998379 249.00597165162336 115.86161442491506
    vertex 342.07187016583225 257.1472265789668 115.86161442491506
    vertex 342.8319307998379 254.50888917891274 115.86161442491506
  endloop
endfacet
facet normal 0.0 0.0 -1.0
  outer loop
    vertex 342.8319307998379 249.00597165162336 115.86161442491506
    vertex 342.8319307998379 254.50888917891274 115.86161442491506
    vertex 343.08993377167826 251.75743041526798 115.86161442491506
  endloop
endfacet
facet normal 0.0 0.0 -1.0
  outer loop
    vertex 340.1969917775662 247.0843007515764 115.86161442491506
    vertex 339.6157423496472 243.9658106920433 115.86161442491506
    vertex 339.6157423496472 245.9658106920434 115.86161442491506
  endloop
endfacet
facet normal 0.0 0.0 -1.0
  outer loop
    vertex 339.6157423496472 243.9658106920433 115.86161442491506
    vertex 340.1969917775662 247.0843007515764 115.86161442491506
    vertex 340.8303348175103 243.9658106920433 115.86161442491506
  endloop
endfacet
facet normal 0.0 0.0 -1.0
  outer loop
    vertex 340.8303348175103 243.9658106920433 115.86161442491506
    vertex 340.1969917775662 247.0843007515764 115.86161442491506
    vertex 340.8581746011397 249.37941155413714 115.86161442491506
  endloop
endfacet
facet normal 0.0 0.0 -1.0
  outer loop
    vertex 340.8303348175103 243.9658106920433 115.86161442491506
    vertex 340.8581746011397 249.37941155413714 115.86161442491506
    vertex 342.06362505851155 246.3390136731072 115.86161442491506
  endloop
endfacet
facet normal 0.0 0.0 -1.0
  outer loop
    vertex 342.06362505851155 246.3390136731072 115.86161442491506
    vertex 340.8581746011397 249.37941155413714 115.86161442491506
    vertex 341.0811602919927 251.75743041526798 115.86161442491506
  endloop
endfacet
facet normal 0.0 0.0 -1.0
  outer loop
    vertex 313.9870000299494 255.58978460235818 115.86161442491506
    vertex 313.9870000299494 247.92507622817791 115.86161442491506
    vertex 313.4824610295793 251.75743041526798 115.86161442491506
  endloop
endfacet
facet normal 0.0 0.0 -1.0
  outer loop
    vertex 313.9870000299494 247.92507622817791 115.86161442491506
    vertex 313.9870000299494 255.58978460235818 115.86161442491506
    vertex 315.4662335319739 259.1609701848627 115.86161442491506
  endloop
endfacet
facet normal 0.0 0.0 -1.0
  outer loop
    vertex 313.9870000299494 247.92507622817791 115.86161442491506
    vertex 315.4662335319739 259.1609701848627 115.86161442491506
    vertex 315.49971895073975 251.75743041526798 115.86161442491506
  endloop
endfacet
facet normal 0.0 0.0 -1.0
  outer loop
    vertex 313.9870000299494 247.92507622817791 115.86161442491506
    vertex 315.49971895073975 251.75743041526798 115.86161442491506
    vertex 315.6269815120525 243.9658106920433 115.86161442491506
  endloop
endfacet
facet normal 0.0 0.0 -1.0
  outer loop
    vertex 315.6269815120525 243.9658106920433 115.86161442491506
    vertex 315.49971895073975 251.75743041526798 115.86161442491506
    vertex 315.93552155428426 248.447180997058 115.86161442491506
  endloop
endfacet
facet normal 0.0 0.0 -1.0
  outer loop
    vertex 315.6269815120525 243.9658106920433 115.86161442491506
    vertex 315.93552155428426 248.447180997058 115.86161442491506
    vertex 316.96333878789136 243.9658106920433 115.86161442491506
  endloop
endfacet
facet normal 0.0 0.0 -1.0
  outer loop
    vertex 316.96333878789136 243.9658106920433 115.86161442491506
    vertex 315.93552155428426 248.447180997058 115.86161442491506
    vertex 316.96333878789136 245.9658106920434 115.86161442491506
  endloop
endfacet
endsolid IoBlaster_sketchup
