solid IoBlaster_sketchup
facet normal 6.44131301271872e-30 1.0 2.529660241962062e-30
  outer loop
    vertex 179.30939882673167 257.39775703737917 92.70489131807476
    vertex 192.94413549813456 257.39775703737917 92.29090176005373
    vertex 180.20601083907363 257.39775703737917 91.2772419607595
  endloop
endfacet
facet normal 6.44131301271872e-30 1.0 2.529660241962062e-30
  outer loop
    vertex 192.94413549813456 257.39775703737917 92.29090176005373
    vertex 179.30939882673167 257.39775703737917 92.70489131807476
    vertex 192.94413549813456 257.39775703737917 92.70489131807476
  endloop
endfacet
facet normal 6.44131301271872e-30 1.0 2.529660241962062e-30
  outer loop
    vertex 180.20601083907363 257.39775703737917 75.13254067539002
    vertex 189.47908863047894 257.39775703737917 73.70489131807476
    vertex 179.30939882673167 257.39775703737917 73.70489131807466
  endloop
endfacet
facet normal 6.44131301271872e-30 1.0 2.529660241962062e-30
  outer loop
    vertex 189.47908863047894 257.39775703737917 73.70489131807476
    vertex 180.20601083907363 257.39775703737917 75.13254067539002
    vertex 194.30939882673115 257.39775703737917 73.70489131807476
  endloop
endfacet
facet normal 6.44131301271872e-30 1.0 2.529660241962062e-30
  outer loop
    vertex 194.30939882673115 257.39775703737917 73.70489131807476
    vertex 180.20601083907363 257.39775703737917 75.13254067539002
    vertex 194.38840090560123 257.39775703737917 75.30904437035302
  endloop
endfacet
facet normal 6.44131301271872e-30 1.0 2.529660241962062e-30
  outer loop
    vertex 194.38840090560123 257.39775703737917 75.30904437035302
    vertex 180.20601083907363 257.39775703737917 75.13254067539002
    vertex 182.4356754535793 257.39775703737917 75.52856249233585
  endloop
endfacet
facet normal 6.44131301271872e-30 1.0 2.529660241962062e-30
  outer loop
    vertex 182.4356754535793 257.39775703737917 75.52856249233585
    vertex 180.20601083907363 257.39775703737917 75.13254067539002
    vertex 180.9526558869095 257.39775703737917 76.64403561770845
  endloop
endfacet
facet normal 6.44131301271872e-30 1.0 2.529660241962062e-30
  outer loop
    vertex 182.4356754535793 257.39775703737917 75.52856249233585
    vertex 180.9526558869095 257.39775703737917 76.64403561770845
    vertex 182.6289278486287 257.39775703737917 75.91977920040607
  endloop
endfacet
facet normal 6.44131301271872e-30 1.0 2.529660241962062e-30
  outer loop
    vertex 182.6289278486287 257.39775703737917 75.91977920040607
    vertex 180.9526558869095 257.39775703737917 76.64403561770845
    vertex 183.28286222118882 257.39775703737917 77.67379761456247
  endloop
endfacet
facet normal 6.44131301271872e-30 1.0 2.529660241962062e-30
  outer loop
    vertex 183.28286222118882 257.39775703737917 77.67379761456247
    vertex 180.9526558869095 257.39775703737917 76.64403561770845
    vertex 181.5415787458252 257.39775703737917 78.22367660678191
  endloop
endfacet
facet normal 6.44131301271872e-30 1.0 2.529660241962062e-30
  outer loop
    vertex 183.28286222118882 257.39775703737917 77.67379761456247
    vertex 181.5415787458252 257.39775703737917 78.22367660678191
    vertex 183.75487110619125 257.39775703737917 79.48526618268346
  endloop
endfacet
facet normal 6.44131301271872e-30 1.0 2.529660241962062e-30
  outer loop
    vertex 183.75487110619125 257.39775703737917 79.48526618268346
    vertex 181.5415787458252 257.39775703737917 78.22367660678191
    vertex 181.9666624142404 257.39775703737917 79.85505628759242
  endloop
endfacet
facet normal 6.44131301271872e-30 1.0 2.529660241962062e-30
  outer loop
    vertex 183.75487110619125 257.39775703737917 79.48526618268346
    vertex 181.9666624142404 257.39775703737917 79.85505628759242
    vertex 184.04005185968438 257.39775703737917 81.33536961185959
  endloop
endfacet
facet normal 6.44131301271872e-30 1.0 2.529660241962062e-30
  outer loop
    vertex 184.04005185968438 257.39775703737917 81.33536961185959
    vertex 181.9666624142404 257.39775703737917 79.85505628759242
    vertex 182.2234916492568 257.39775703737917 81.5212299076441
  endloop
endfacet
facet normal 6.44131301271872e-30 1.0 2.529660241962062e-30
  outer loop
    vertex 184.04005185968438 257.39775703737917 81.33536961185959
    vertex 182.2234916492568 257.39775703737917 81.5212299076441
    vertex 184.1354423770501 257.39775703737917 83.20489131807476
  endloop
endfacet
facet normal 6.44131301271872e-30 1.0 2.529660241962062e-30
  outer loop
    vertex 184.1354423770501 257.39775703737917 83.20489131807476
    vertex 182.2234916492568 257.39775703737917 81.5212299076441
    vertex 182.30939882673098 257.39775703737917 83.20489131807476
  endloop
endfacet
facet normal 6.44131301271872e-30 1.0 2.529660241962062e-30
  outer loop
    vertex 184.1354423770501 257.39775703737917 83.20489131807476
    vertex 182.30939882673098 257.39775703737917 83.20489131807476
    vertex 182.2234916492568 257.39775703737917 84.88855272850533
  endloop
endfacet
facet normal 6.44131301271872e-30 1.0 2.529660241962062e-30
  outer loop
    vertex 184.1354423770501 257.39775703737917 83.20489131807476
    vertex 182.2234916492568 257.39775703737917 84.88855272850533
    vertex 184.04005185968438 257.39775703737917 85.07441302428984
  endloop
endfacet
facet normal 6.44131301271872e-30 1.0 2.529660241962062e-30
  outer loop
    vertex 184.04005185968438 257.39775703737917 85.07441302428984
    vertex 182.2234916492568 257.39775703737917 84.88855272850533
    vertex 181.9666624142404 257.39775703737917 86.55472634855711
  endloop
endfacet
facet normal 6.44131301271872e-30 1.0 2.529660241962062e-30
  outer loop
    vertex 184.04005185968438 257.39775703737917 85.07441302428984
    vertex 181.9666624142404 257.39775703737917 86.55472634855711
    vertex 183.75487110619125 257.39775703737917 86.92451645346605
  endloop
endfacet
facet normal 6.44131301271872e-30 1.0 2.529660241962062e-30
  outer loop
    vertex 183.75487110619125 257.39775703737917 86.92451645346605
    vertex 181.9666624142404 257.39775703737917 86.55472634855711
    vertex 181.5415787458252 257.39775703737917 88.18610602936752
  endloop
endfacet
facet normal 6.44131301271872e-30 1.0 2.529660241962062e-30
  outer loop
    vertex 183.75487110619125 257.39775703737917 86.92451645346605
    vertex 181.5415787458252 257.39775703737917 88.18610602936752
    vertex 183.28286222118882 257.39775703737917 88.73598502158696
  endloop
endfacet
facet normal 6.44131301271872e-30 1.0 2.529660241962062e-30
  outer loop
    vertex 183.28286222118882 257.39775703737917 88.73598502158696
    vertex 181.5415787458252 257.39775703737917 88.18610602936752
    vertex 180.9526558869095 257.39775703737917 89.76574701844098
  endloop
endfacet
facet normal 6.44131301271872e-30 1.0 2.529660241962062e-30
  outer loop
    vertex 183.28286222118882 257.39775703737917 88.73598502158696
    vertex 180.9526558869095 257.39775703737917 89.76574701844098
    vertex 182.6289278486287 257.39775703737917 90.49000343574346
  endloop
endfacet
facet normal 6.44131301271872e-30 1.0 2.529660241962062e-30
  outer loop
    vertex 182.6289278486287 257.39775703737917 90.49000343574346
    vertex 180.9526558869095 257.39775703737917 89.76574701844098
    vertex 180.20601083907363 257.39775703737917 91.2772419607595
  endloop
endfacet
facet normal 6.44131301271872e-30 1.0 2.529660241962062e-30
  outer loop
    vertex 182.6289278486287 257.39775703737917 90.49000343574346
    vertex 180.20601083907363 257.39775703737917 91.2772419607595
    vertex 198.1892919823207 257.39775703737917 90.83172661461461
  endloop
endfacet
facet normal 6.44131301271872e-30 1.0 2.529660241962062e-30
  outer loop
    vertex 198.1892919823207 257.39775703737917 90.83172661461461
    vertex 180.20601083907363 257.39775703737917 91.2772419607595
    vertex 198.86037784756442 257.39775703737917 92.29090176005373
  endloop
endfacet
facet normal 6.44131301271872e-30 1.0 2.529660241962062e-30
  outer loop
    vertex 198.86037784756442 257.39775703737917 92.29090176005373
    vertex 180.20601083907363 257.39775703737917 91.2772419607595
    vertex 192.94413549813456 257.39775703737917 92.29090176005373
  endloop
endfacet
facet normal 6.44131301271872e-30 1.0 2.529660241962062e-30
  outer loop
    vertex 194.38840090560123 257.39775703737917 75.30904437035302
    vertex 192.57675468058753 257.39775703737917 75.52856249233585
    vertex 194.5230307498634 257.39775703737917 76.90948904250953
  endloop
endfacet
facet normal 6.44131301271872e-30 1.0 2.529660241962062e-30
  outer loop
    vertex 192.57675468058753 257.39775703737917 75.52856249233585
    vertex 194.38840090560123 257.39775703737917 75.30904437035302
    vertex 182.4356754535793 257.39775703737917 75.52856249233585
  endloop
endfacet
facet normal 6.44131301271872e-30 1.0 2.529660241962062e-30
  outer loop
    vertex 192.57675468058753 257.39775703737917 75.52856249233585
    vertex 182.4356754535793 257.39775703737917 75.52856249233585
    vertex 189.47908863047894 257.39775703737917 75.52856249233585
  endloop
endfacet
facet normal 6.44131301271872e-30 1.0 2.529660241962062e-30
  outer loop
    vertex 194.5230307498634 257.39775703737917 76.90948904250953
    vertex 192.57675468058753 257.39775703737917 75.52856249233585
    vertex 192.7084314741818 257.39775703737917 77.09390206405685
  endloop
endfacet
facet normal 6.44131301271872e-30 1.0 2.529660241962062e-30
  outer loop
    vertex 194.5230307498634 257.39775703737917 76.90948904250953
    vertex 192.7084314741818 257.39775703737917 77.09390206405685
    vertex 194.71312613865825 257.39775703737917 78.50429689512318
  endloop
endfacet
facet normal 6.44131301271872e-30 1.0 2.529660241962062e-30
  outer loop
    vertex 194.71312613865825 257.39775703737917 78.50429689512318
    vertex 192.7084314741818 257.39775703737917 77.09390206405685
    vertex 192.90602052963135 257.39775703737917 78.75157813507433
  endloop
endfacet
facet normal 6.44131301271872e-30 1.0 2.529660241962062e-30
  outer loop
    vertex 194.71312613865825 257.39775703737917 78.50429689512318
    vertex 192.90602052963135 257.39775703737917 78.75157813507433
    vertex 194.95845801850177 257.39775703737917 80.09154628080047
  endloop
endfacet
facet normal 6.44131301271872e-30 1.0 2.529660241962062e-30
  outer loop
    vertex 194.95845801850177 257.39775703737917 80.09154628080047
    vertex 192.90602052963135 257.39775703737917 78.75157813507433
    vertex 193.1610235295257 257.39775703737917 80.40139778015734
  endloop
endfacet
facet normal 6.44131301271872e-30 1.0 2.529660241962062e-30
  outer loop
    vertex 194.95845801850177 257.39775703737917 80.09154628080047
    vertex 193.1610235295257 257.39775703737917 80.40139778015734
    vertex 195.25873077924916 257.39775703737917 81.66932465964567
  endloop
endfacet
facet normal 6.44131301271872e-30 1.0 2.529660241962062e-30
  outer loop
    vertex 195.25873077924916 257.39775703737917 81.66932465964567
    vertex 193.1610235295257 257.39775703737917 80.40139778015734
    vertex 193.47313321061137 257.39775703737917 82.04137306601653
  endloop
endfacet
facet normal 6.44131301271872e-30 1.0 2.529660241962062e-30
  outer loop
    vertex 195.25873077924916 257.39775703737917 81.66932465964567
    vertex 193.47313321061137 257.39775703737917 82.04137306601653
    vertex 195.61358261032046 257.39775703737917 83.23573090375567
  endloop
endfacet
facet normal 6.44131301271872e-30 1.0 2.529660241962062e-30
  outer loop
    vertex 195.61358261032046 257.39775703737917 83.23573090375567
    vertex 193.47313321061137 257.39775703737917 82.04137306601653
    vertex 193.84197349952478 257.39775703737917 83.66952792122258
  endloop
endfacet
facet normal 6.44131301271872e-30 1.0 2.529660241962062e-30
  outer loop
    vertex 195.61358261032046 257.39775703737917 83.23573090375567
    vertex 193.84197349952478 257.39775703737917 83.66952792122258
    vertex 196.02258593662538 257.39775703737917 84.78887758796446
  endloop
endfacet
facet normal 6.44131301271872e-30 1.0 2.529660241962062e-30
  outer loop
    vertex 196.02258593662538 257.39775703737917 84.78887758796446
    vertex 193.84197349952478 257.39775703737917 83.66952792122258
    vertex 194.2670999659358 257.39775703737917 85.2839005172529
  endloop
endfacet
facet normal 6.44131301271872e-30 1.0 2.529660241962062e-30
  outer loop
    vertex 196.02258593662538 257.39775703737917 84.78887758796446
    vertex 194.2670999659358 257.39775703737917 85.2839005172529
    vertex 196.485247933803 257.39775703737917 86.32689326407737
  endloop
endfacet
facet normal 6.44131301271872e-30 1.0 2.529660241962062e-30
  outer loop
    vertex 196.485247933803 257.39775703737917 86.32689326407737
    vertex 194.2670999659358 257.39775703737917 85.2839005172529
    vertex 194.7480003580618 257.39775703737917 86.88254563237686
  endloop
endfacet
facet normal 6.44131301271872e-30 1.0 2.529660241962062e-30
  outer loop
    vertex 196.485247933803 257.39775703737917 86.32689326407737
    vertex 194.7480003580618 257.39775703737917 86.88254563237686
    vertex 197.00101112201128 257.39775703737917 87.84792471585253
  endloop
endfacet
facet normal 6.44131301271872e-30 1.0 2.529660241962062e-30
  outer loop
    vertex 197.00101112201128 257.39775703737917 87.84792471585253
    vertex 194.7480003580618 257.39775703737917 86.88254563237686
    vertex 195.28409521989894 257.39775703737917 88.46353699553126
  endloop
endfacet
facet normal 6.44131301271872e-30 1.0 2.529660241962062e-30
  outer loop
    vertex 197.00101112201128 257.39775703737917 87.84792471585253
    vertex 195.28409521989894 257.39775703737917 88.46353699553126
    vertex 197.56925403767713 257.39775703737917 89.35013919201575
  endloop
endfacet
facet normal 6.44131301271872e-30 1.0 2.529660241962062e-30
  outer loop
    vertex 197.56925403767713 257.39775703737917 89.35013919201575
    vertex 195.28409521989894 257.39775703737917 88.46353699553126
    vertex 195.87473858943181 257.39775703737917 90.02496960736023
  endloop
endfacet
facet normal 6.44131301271872e-30 1.0 2.529660241962062e-30
  outer loop
    vertex 197.56925403767713 257.39775703737917 89.35013919201575
    vertex 195.87473858943181 257.39775703737917 90.02496960736023
    vertex 198.1892919823207 257.39775703737917 90.83172661461461
  endloop
endfacet
facet normal 6.44131301271872e-30 1.0 2.529660241962062e-30
  outer loop
    vertex 198.1892919823207 257.39775703737917 90.83172661461461
    vertex 195.87473858943181 257.39775703737917 90.02496960736023
    vertex 196.0598229009477 257.39775703737917 90.46723058579255
  endloop
endfacet
facet normal 6.44131301271872e-30 1.0 2.529660241962062e-30
  outer loop
    vertex 198.1892919823207 257.39775703737917 90.83172661461461
    vertex 196.0598229009477 257.39775703737917 90.46723058579255
    vertex 182.6289278486287 257.39775703737917 90.49000343574346
  endloop
endfacet
facet normal 0.9353197545982822 -0.0 -0.3538035565934992
  outer loop
    vertex 197.00101112201128 257.39775703737917 87.84792471585253
    vertex 197.56925403767713 252.39775703737894 89.35013919201575
    vertex 197.00101112201128 252.39775703737894 87.84792471585253
  endloop
endfacet
facet normal 0.9353197545982822 -0.0 -0.3538035565934992
  outer loop
    vertex 197.56925403767713 252.39775703737894 89.35013919201575
    vertex 197.00101112201128 257.39775703737917 87.84792471585253
    vertex 197.56925403767713 257.39775703737917 89.35013919201575
  endloop
endfacet
facet normal 0.9987894957762092 -0.0 -0.04918885165467867
  outer loop
    vertex 194.30939882673115 257.39775703737917 73.70489131807476
    vertex 194.38840090560123 252.39775703737894 75.30904437035302
    vertex 194.30939882673115 252.39775703737894 73.70489131807476
  endloop
endfacet
facet normal 0.9987894957762092 -0.0 -0.04918885165467867
  outer loop
    vertex 194.38840090560123 252.39775703737894 75.30904437035302
    vertex 194.30939882673115 257.39775703737917 73.70489131807476
    vertex 194.38840090560123 257.39775703737917 75.30904437035302
  endloop
endfacet
facet normal 0.9224767877752188 -0.0 -0.38605255602821004
  outer loop
    vertex 197.56925403767713 257.39775703737917 89.35013919201575
    vertex 198.1892919823207 252.39775703737894 90.83172661461461
    vertex 197.56925403767713 252.39775703737894 89.35013919201575
  endloop
endfacet
facet normal 0.9224767877752188 -0.0 -0.38605255602821004
  outer loop
    vertex 198.1892919823207 252.39775703737894 90.83172661461461
    vertex 197.56925403767713 257.39775703737917 89.35013919201575
    vertex 198.1892919823207 257.39775703737917 90.83172661461461
  endloop
endfacet
facet normal 0.9964805570456268 -0.0 -0.08382421744363366
  outer loop
    vertex 194.38840090560123 257.39775703737917 75.30904437035302
    vertex 194.5230307498634 252.39775703737894 76.90948904250953
    vertex 194.38840090560123 252.39775703737894 75.30904437035302
  endloop
endfacet
facet normal 0.9964805570456268 -0.0 -0.08382421744363366
  outer loop
    vertex 194.5230307498634 252.39775703737894 76.90948904250953
    vertex 194.38840090560123 257.39775703737917 75.30904437035302
    vertex 194.5230307498634 257.39775703737917 76.90948904250953
  endloop
endfacet
facet normal 0.9670315381595925 -0.0 -0.2546566398205491
  outer loop
    vertex 195.61358261032046 257.39775703737917 83.23573090375567
    vertex 196.02258593662538 252.39775703737894 84.78887758796446
    vertex 195.61358261032046 252.39775703737894 83.23573090375567
  endloop
endfacet
facet normal 0.9670315381595925 -0.0 -0.2546566398205491
  outer loop
    vertex 196.02258593662538 252.39775703737894 84.78887758796446
    vertex 195.61358261032046 257.39775703737917 83.23573090375567
    vertex 196.02258593662538 257.39775703737917 84.78887758796446
  endloop
endfacet
facet normal 0.9929709192709205 -0.0 -0.1183585800956699
  outer loop
    vertex 194.5230307498634 257.39775703737917 76.90948904250953
    vertex 194.71312613865825 252.39775703737894 78.50429689512318
    vertex 194.5230307498634 252.39775703737894 76.90948904250953
  endloop
endfacet
facet normal 0.9929709192709205 -0.0 -0.1183585800956699
  outer loop
    vertex 194.71312613865825 252.39775703737894 78.50429689512318
    vertex 194.5230307498634 257.39775703737917 76.90948904250953
    vertex 194.71312613865825 257.39775703737917 78.50429689512318
  endloop
endfacet
facet normal 0.9470357174588214 -0.0 -0.3211282451875815
  outer loop
    vertex 196.485247933803 257.39775703737917 86.32689326407737
    vertex 197.00101112201128 252.39775703737894 87.84792471585253
    vertex 196.485247933803 252.39775703737894 86.32689326407737
  endloop
endfacet
facet normal 0.9470357174588214 -0.0 -0.3211282451875815
  outer loop
    vertex 197.00101112201128 252.39775703737894 87.84792471585253
    vertex 196.485247933803 257.39775703737917 86.32689326407737
    vertex 197.00101112201128 257.39775703737917 87.84792471585253
  endloop
endfacet
facet normal 0.9752873022388778 -0.0 -0.22094044014532926
  outer loop
    vertex 195.25873077924916 257.39775703737917 81.66932465964567
    vertex 195.61358261032046 252.39775703737894 83.23573090375567
    vertex 195.25873077924916 252.39775703737894 81.66932465964567
  endloop
endfacet
facet normal 0.9752873022388778 -0.0 -0.22094044014532926
  outer loop
    vertex 195.61358261032046 252.39775703737894 83.23573090375567
    vertex 195.25873077924916 257.39775703737917 81.66932465964567
    vertex 195.61358261032046 257.39775703737917 83.23573090375567
  endloop
endfacet
facet normal 0.9576105593281377 -0.0 -0.2880659935904474
  outer loop
    vertex 196.02258593662538 257.39775703737917 84.78887758796446
    vertex 196.485247933803 252.39775703737894 86.32689326407737
    vertex 196.02258593662538 252.39775703737894 84.78887758796446
  endloop
endfacet
facet normal 0.9576105593281377 -0.0 -0.2880659935904474
  outer loop
    vertex 196.485247933803 252.39775703737894 86.32689326407737
    vertex 196.02258593662538 257.39775703737917 84.78887758796446
    vertex 196.485247933803 257.39775703737917 86.32689326407737
  endloop
endfacet
facet normal 0.9882648113531778 -0.0 -0.15275032779365214
  outer loop
    vertex 194.71312613865825 257.39775703737917 78.50429689512318
    vertex 194.95845801850177 252.39775703737894 80.09154628080047
    vertex 194.71312613865825 252.39775703737894 78.50429689512318
  endloop
endfacet
facet normal 0.9882648113531778 -0.0 -0.15275032779365214
  outer loop
    vertex 194.95845801850177 252.39775703737894 80.09154628080047
    vertex 194.71312613865825 257.39775703737917 78.50429689512318
    vertex 194.95845801850177 257.39775703737917 80.09154628080047
  endloop
endfacet
facet normal 0.9085222919927133 -0.0 -0.4178363853858434
  outer loop
    vertex 198.1892919823207 257.39775703737917 90.83172661461461
    vertex 198.86037784756442 252.39775703737894 92.29090176005373
    vertex 198.1892919823207 252.39775703737894 90.83172661461461
  endloop
endfacet
facet normal 0.9085222919927133 -0.0 -0.4178363853858434
  outer loop
    vertex 198.86037784756442 252.39775703737894 92.29090176005373
    vertex 198.1892919823207 257.39775703737917 90.83172661461461
    vertex 198.86037784756442 257.39775703737917 92.29090176005373
  endloop
endfacet
facet normal 0.9823679038703207 -0.0 -0.18695802054320307
  outer loop
    vertex 194.95845801850177 257.39775703737917 80.09154628080047
    vertex 195.25873077924916 252.39775703737894 81.66932465964567
    vertex 194.95845801850177 252.39775703737894 80.09154628080047
  endloop
endfacet
facet normal 0.9823679038703207 -0.0 -0.18695802054320307
  outer loop
    vertex 195.25873077924916 252.39775703737894 81.66932465964567
    vertex 194.95845801850177 257.39775703737917 80.09154628080047
    vertex 195.25873077924916 257.39775703737917 81.66932465964567
  endloop
endfacet
facet normal 0.0 0.0 -1.0
  outer loop
    vertex 193.94413549813433 254.89775703737902 106.20489131807476
    vertex 192.94413549813456 252.39775703737885 106.20489131807476
    vertex 192.94413549813456 254.89775703737902 106.20489131807476
  endloop
endfacet
facet normal 0.0 0.0 -1.0
  outer loop
    vertex 192.94413549813456 252.39775703737885 106.20489131807476
    vertex 193.94413549813433 254.89775703737902 106.20489131807476
    vertex 193.94413549813433 252.39775703737885 106.20489131807476
  endloop
endfacet
facet normal 0.0 0.0 -1.0
  outer loop
    vertex 179.30939882673167 254.89775703737902 106.20489131807476
    vertex 164.30939882673218 246.89775703737894 106.20489131807476
    vertex 164.30939882673218 254.89775703737902 106.20489131807476
  endloop
endfacet
facet normal 0.0 0.0 -1.0
  outer loop
    vertex 164.30939882673218 246.89775703737894 106.20489131807476
    vertex 179.30939882673167 254.89775703737902 106.20489131807476
    vertex 179.30939882673167 252.39775703737885 106.20489131807476
  endloop
endfacet
facet normal 0.0 0.0 -1.0
  outer loop
    vertex 164.30939882673218 246.89775703737894 106.20489131807476
    vertex 179.30939882673167 252.39775703737885 106.20489131807476
    vertex 193.94413549813433 246.89775703737894 106.20489131807476
  endloop
endfacet
facet normal 0.0 0.0 -1.0
  outer loop
    vertex 193.94413549813433 246.89775703737894 106.20489131807476
    vertex 179.30939882673167 252.39775703737885 106.20489131807476
    vertex 192.94413549813456 252.39775703737885 106.20489131807476
  endloop
endfacet
facet normal 0.0 0.0 -1.0
  outer loop
    vertex 193.94413549813433 246.89775703737894 106.20489131807476
    vertex 192.94413549813456 252.39775703737885 106.20489131807476
    vertex 193.94413549813433 252.39775703737885 106.20489131807476
  endloop
endfacet
facet normal 0.0 0.0 -1.0
  outer loop
    vertex 193.94413549813433 262.8977570373791 106.20489131807476
    vertex 164.30939882673218 254.89775703737902 106.20489131807476
    vertex 164.30939882673218 262.8977570373791 106.20489131807476
  endloop
endfacet
facet normal 0.0 0.0 -1.0
  outer loop
    vertex 164.30939882673218 254.89775703737902 106.20489131807476
    vertex 193.94413549813433 262.8977570373791 106.20489131807476
    vertex 179.30939882673167 257.39775703737917 106.20489131807476
  endloop
endfacet
facet normal 0.0 0.0 -1.0
  outer loop
    vertex 179.30939882673167 257.39775703737917 106.20489131807476
    vertex 193.94413549813433 262.8977570373791 106.20489131807476
    vertex 192.94413549813456 257.39775703737917 106.20489131807476
  endloop
endfacet
facet normal 0.0 0.0 -1.0
  outer loop
    vertex 192.94413549813456 257.39775703737917 106.20489131807476
    vertex 193.94413549813433 262.8977570373791 106.20489131807476
    vertex 193.94413549813433 257.39775703737917 106.20489131807476
  endloop
endfacet
facet normal 0.0 0.0 -1.0
  outer loop
    vertex 179.30939882673167 254.89775703737902 106.20489131807476
    vertex 164.30939882673218 254.89775703737902 106.20489131807476
    vertex 179.30939882673167 257.39775703737917 106.20489131807476
  endloop
endfacet
facet normal -0.0 -0.0 1.0
  outer loop
    vertex 198.86037784756442 252.39775703737894 92.29090176005373
    vertex 192.94413549813456 257.39775703737917 92.29090176005373
    vertex 192.94413549813456 252.39775703737894 92.29090176005373
  endloop
endfacet
facet normal -0.0 -0.0 1.0
  outer loop
    vertex 192.94413549813456 257.39775703737917 92.29090176005373
    vertex 198.86037784756442 252.39775703737894 92.29090176005373
    vertex 198.86037784756442 257.39775703737917 92.29090176005373
  endloop
endfacet
facet normal 0.0 0.0 -1.0
  outer loop
    vertex 194.30939882673115 257.39775703737917 73.70489131807476
    vertex 189.47908863047894 252.39775703737885 73.70489131807476
    vertex 189.47908863047894 257.39775703737917 73.70489131807476
  endloop
endfacet
facet normal 0.0 0.0 -1.0
  outer loop
    vertex 189.47908863047894 252.39775703737885 73.70489131807476
    vertex 194.30939882673115 257.39775703737917 73.70489131807476
    vertex 194.30939882673115 252.39775703737894 73.70489131807476
  endloop
endfacet
facet normal -0.0 1.0 -0.0
  outer loop
    vertex 164.30939882673218 262.8977570373791 106.20489131807476
    vertex 166.68639058825678 262.8977570373791 108.08188307959892
    vertex 193.94413549813433 262.8977570373791 106.20489131807476
  endloop
endfacet
facet normal -0.0 1.0 -0.0
  outer loop
    vertex 166.68639058825678 262.8977570373791 108.08188307959892
    vertex 164.30939882673218 262.8977570373791 106.20489131807476
    vertex 164.30939882673218 262.8977570373791 115.70489131807477
  endloop
endfacet
facet normal -0.0 1.0 -0.0
  outer loop
    vertex 193.94413549813433 262.8977570373791 106.20489131807476
    vertex 166.68639058825678 262.8977570373791 108.08188307959892
    vertex 193.94413549813433 262.8977570373791 107.18561403602584
  endloop
endfacet
facet normal -0.0 1.0 -0.0
  outer loop
    vertex 166.68639058825678 262.8977570373791 108.08188307959892
    vertex 164.30939882673218 262.8977570373791 115.70489131807477
    vertex 166.68639058825678 262.8977570373791 113.32789955655053
  endloop
endfacet
facet normal -0.0 1.0 -0.0
  outer loop
    vertex 166.68639058825678 262.8977570373791 113.32789955655053
    vertex 164.30939882673218 262.8977570373791 115.70489131807477
    vertex 178.89866039218026 262.8977570373791 113.32789955655053
  endloop
endfacet
facet normal -0.0 1.0 -0.0
  outer loop
    vertex 178.89866039218026 262.8977570373791 113.32789955655053
    vertex 164.30939882673218 262.8977570373791 115.70489131807477
    vertex 185.16311846021276 262.8977570373791 113.32789955655053
  endloop
endfacet
facet normal -0.0 1.0 -0.0
  outer loop
    vertex 185.16311846021276 262.8977570373791 113.32789955655053
    vertex 164.30939882673218 262.8977570373791 115.70489131807477
    vertex 195.54421550588154 262.8977570373791 113.32789955655053
  endloop
endfacet
facet normal -0.0 1.0 -0.0
  outer loop
    vertex 195.54421550588154 262.8977570373791 113.32789955655053
    vertex 164.30939882673218 262.8977570373791 115.70489131807477
    vertex 199.3093988267329 262.8977570373791 114.41153608202016
  endloop
endfacet
facet normal -0.0 1.0 -0.0
  outer loop
    vertex 199.3093988267329 262.8977570373791 114.41153608202016
    vertex 164.30939882673218 262.8977570373791 115.70489131807477
    vertex 199.3093988267329 262.8977570373791 115.70489131807477
  endloop
endfacet
facet normal -0.0 1.0 -0.0
  outer loop
    vertex 193.94413549813433 262.8977570373791 107.18561403602584
    vertex 191.64903650369115 262.8977570373791 108.08188307959892
    vertex 199.3093988267329 262.8977570373791 114.41153608202016
  endloop
endfacet
facet normal -0.0 1.0 -0.0
  outer loop
    vertex 191.64903650369115 262.8977570373791 108.08188307959892
    vertex 193.94413549813433 262.8977570373791 107.18561403602584
    vertex 166.68639058825678 262.8977570373791 108.08188307959892
  endloop
endfacet
facet normal -0.0 1.0 -0.0
  outer loop
    vertex 191.64903650369115 262.8977570373791 108.08188307959892
    vertex 166.68639058825678 262.8977570373791 108.08188307959892
    vertex 178.89866039218026 262.8977570373791 108.08188307959892
  endloop
endfacet
facet normal -0.0 1.0 -0.0
  outer loop
    vertex 191.64903650369115 262.8977570373791 108.08188307959892
    vertex 178.89866039218026 262.8977570373791 108.08188307959892
    vertex 185.16311846021276 262.8977570373791 108.08188307959892
  endloop
endfacet
facet normal -0.0 1.0 -0.0
  outer loop
    vertex 199.3093988267329 262.8977570373791 114.41153608202016
    vertex 191.64903650369115 262.8977570373791 108.08188307959892
    vertex 195.54421550588154 262.8977570373791 113.32789955655053
  endloop
endfacet
facet normal -0.0 0.6087614290087408 0.7933533402912197
  outer loop
    vertex 166.68639058825968 254.1906502561924 109.99778453688813
    vertex 164.30939882673218 254.39775703737894 109.83886591429025
    vertex 164.30939882673218 254.1906502561924 109.99778453688813
  endloop
endfacet
facet normal -0.0 0.6087614290087408 0.7933533402912197
  outer loop
    vertex 164.30939882673218 254.39775703737894 109.83886591429025
    vertex 166.68639058825968 254.1906502561924 109.99778453688813
    vertex 166.68639058825968 254.39775703737894 109.83886591429025
  endloop
endfacet
facet normal 0.0 -1.0 0.0
  outer loop
    vertex 199.3093988267329 246.89775703737894 114.41153608202016
    vertex 191.64903650369115 246.89775703737823 108.08188307959892
    vertex 193.94413549813433 246.89775703737894 107.18561403602584
  endloop
endfacet
facet normal 0.0 -1.0 0.0
  outer loop
    vertex 191.64903650369115 246.89775703737823 108.08188307959892
    vertex 199.3093988267329 246.89775703737894 114.41153608202016
    vertex 195.54421550588154 246.89775703737823 113.32789955655053
  endloop
endfacet
facet normal 0.0 -1.0 0.0
  outer loop
    vertex 195.54421550588154 246.89775703737823 113.32789955655053
    vertex 199.3093988267329 246.89775703737894 114.41153608202016
    vertex 185.16311846021276 246.89775703737823 113.32789955655053
  endloop
endfacet
facet normal 0.0 -1.0 0.0
  outer loop
    vertex 185.16311846021276 246.89775703737823 113.32789955655053
    vertex 199.3093988267329 246.89775703737894 114.41153608202016
    vertex 178.89866039218026 246.89775703737823 113.32789955655053
  endloop
endfacet
facet normal 0.0 -1.0 0.0
  outer loop
    vertex 178.89866039218026 246.89775703737823 113.32789955655053
    vertex 199.3093988267329 246.89775703737894 114.41153608202016
    vertex 166.68639058825678 246.89775703737823 113.32789955655053
  endloop
endfacet
facet normal 0.0 -1.0 0.0
  outer loop
    vertex 193.94413549813433 246.89775703737894 107.18561403602584
    vertex 164.30939882673218 246.89775703737894 106.20489131807476
    vertex 193.94413549813433 246.89775703737894 106.20489131807476
  endloop
endfacet
facet normal 0.0 -1.0 0.0
  outer loop
    vertex 164.30939882673218 246.89775703737894 106.20489131807476
    vertex 193.94413549813433 246.89775703737894 107.18561403602584
    vertex 166.68639058825678 246.89775703737823 108.08188307959892
  endloop
endfacet
facet normal 0.0 -1.0 0.0
  outer loop
    vertex 164.30939882673218 246.89775703737894 106.20489131807476
    vertex 166.68639058825678 246.89775703737823 108.08188307959892
    vertex 164.30939882673218 246.89775703737894 115.70489131807477
  endloop
endfacet
facet normal 0.0 -1.0 0.0
  outer loop
    vertex 166.68639058825678 246.89775703737823 108.08188307959892
    vertex 193.94413549813433 246.89775703737894 107.18561403602584
    vertex 191.64903650369115 246.89775703737823 108.08188307959892
  endloop
endfacet
facet normal 0.0 -1.0 0.0
  outer loop
    vertex 166.68639058825678 246.89775703737823 108.08188307959892
    vertex 191.64903650369115 246.89775703737823 108.08188307959892
    vertex 185.16311846021276 246.89775703737823 108.08188307959892
  endloop
endfacet
facet normal 0.0 -1.0 0.0
  outer loop
    vertex 166.68639058825678 246.89775703737823 108.08188307959892
    vertex 185.16311846021276 246.89775703737823 108.08188307959892
    vertex 178.89866039218026 246.89775703737823 108.08188307959892
  endloop
endfacet
facet normal 0.0 -1.0 0.0
  outer loop
    vertex 164.30939882673218 246.89775703737894 115.70489131807477
    vertex 166.68639058825678 246.89775703737823 108.08188307959892
    vertex 166.68639058825678 246.89775703737823 113.32789955655053
  endloop
endfacet
facet normal 0.0 -1.0 0.0
  outer loop
    vertex 164.30939882673218 246.89775703737894 115.70489131807477
    vertex 166.68639058825678 246.89775703737823 113.32789955655053
    vertex 199.3093988267329 246.89775703737894 114.41153608202016
  endloop
endfacet
facet normal 0.0 -1.0 0.0
  outer loop
    vertex 164.30939882673218 246.89775703737894 115.70489131807477
    vertex 199.3093988267329 246.89775703737894 114.41153608202016
    vertex 199.3093988267329 246.89775703737894 115.70489131807477
  endloop
endfacet
facet normal 1.0 -0.0 -0.0
  outer loop
    vertex 192.94413549813456 254.89775703737902 92.70489131807476
    vertex 192.94413549813456 252.39775703737885 106.20489131807476
    vertex 192.94413549813456 252.39775703737885 92.70489131807476
  endloop
endfacet
facet normal 1.0 -0.0 -0.0
  outer loop
    vertex 192.94413549813456 252.39775703737885 106.20489131807476
    vertex 192.94413549813456 254.89775703737902 92.70489131807476
    vertex 192.94413549813456 254.89775703737902 106.20489131807476
  endloop
endfacet
facet normal 0.0 0.0 -1.0
  outer loop
    vertex 193.94413549813433 257.39775703737917 106.20489131807476
    vertex 192.94413549813456 254.89775703737902 106.20489131807476
    vertex 192.94413549813456 257.39775703737917 106.20489131807476
  endloop
endfacet
facet normal 0.0 0.0 -1.0
  outer loop
    vertex 192.94413549813456 254.89775703737902 106.20489131807476
    vertex 193.94413549813433 257.39775703737917 106.20489131807476
    vertex 193.94413549813433 254.89775703737902 106.20489131807476
  endloop
endfacet
facet normal -0.0 0.9914448613738197 0.13052619221998146
  outer loop
    vertex 164.30939882673218 253.89775703737897 110.70489131807473
    vertex 166.68639058825968 253.93183121108987 110.4460722729722
    vertex 164.30939882673218 253.93183121108987 110.4460722729722
  endloop
endfacet
facet normal -0.0 0.9914448613738197 0.13052619221998146
  outer loop
    vertex 166.68639058825968 253.93183121108987 110.4460722729722
    vertex 164.30939882673218 253.89775703737897 110.70489131807473
    vertex 166.68639058825968 253.89775703737897 110.70489131807473
  endloop
endfacet
facet normal 0.0 -0.7933533402913477 0.6087614290085739
  outer loop
    vertex 166.68639058825968 255.7637824411635 110.20489131807476
    vertex 164.30939882673218 255.6048638185656 109.99778453688813
    vertex 166.68639058825968 255.6048638185656 109.99778453688813
  endloop
endfacet
facet normal 0.0 -0.7933533402913477 0.6087614290085739
  outer loop
    vertex 164.30939882673218 255.6048638185656 109.99778453688813
    vertex 166.68639058825968 255.7637824411635 110.20489131807476
    vertex 164.30939882673218 255.7637824411635 110.20489131807476
  endloop
endfacet
facet normal -0.0 0.9914448613738197 -0.13052619221998146
  outer loop
    vertex 164.30939882673218 253.93183121108987 110.96371036317727
    vertex 166.68639058825968 253.89775703737897 110.70489131807473
    vertex 164.30939882673218 253.89775703737897 110.70489131807473
  endloop
endfacet
facet normal -0.0 0.9914448613738197 -0.13052619221998146
  outer loop
    vertex 166.68639058825968 253.89775703737897 110.70489131807473
    vertex 164.30939882673218 253.93183121108987 110.96371036317727
    vertex 166.68639058825968 253.93183121108987 110.96371036317727
  endloop
endfacet
facet normal -0.0 0.7933533402912197 -0.6087614290087408
  outer loop
    vertex 164.30939882673218 254.1906502561924 111.41199809926133
    vertex 166.68639058825968 254.03173163359452 111.2048913180748
    vertex 164.30939882673218 254.03173163359452 111.2048913180748
  endloop
endfacet
facet normal -0.0 0.7933533402912197 -0.6087614290087408
  outer loop
    vertex 166.68639058825968 254.03173163359452 111.2048913180748
    vertex 164.30939882673218 254.1906502561924 111.41199809926133
    vertex 166.68639058825968 254.1906502561924 111.41199809926133
  endloop
endfacet
facet normal 0.0 -0.9914448613738197 0.13052619221998146
  outer loop
    vertex 166.68639058825968 255.89775703737905 110.70489131807473
    vertex 164.30939882673218 255.86368286366815 110.4460722729722
    vertex 166.68639058825968 255.86368286366815 110.4460722729722
  endloop
endfacet
facet normal 0.0 -0.9914448613738197 0.13052619221998146
  outer loop
    vertex 164.30939882673218 255.86368286366815 110.4460722729722
    vertex 166.68639058825968 255.89775703737905 110.70489131807473
    vertex 164.30939882673218 255.89775703737905 110.70489131807473
  endloop
endfacet
facet normal 0.0 0.13052619221998146 -0.9914448613738197
  outer loop
    vertex 166.68639058825968 254.89775703737902 111.70489131807477
    vertex 164.30939882673218 254.63893799227648 111.67081714436387
    vertex 164.30939882673218 254.89775703737902 111.70489131807477
  endloop
endfacet
facet normal 0.0 0.13052619221998146 -0.9914448613738197
  outer loop
    vertex 164.30939882673218 254.63893799227648 111.67081714436387
    vertex 166.68639058825968 254.89775703737902 111.70489131807477
    vertex 166.68639058825968 254.63893799227648 111.67081714436387
  endloop
endfacet
facet normal 0.0 0.6087614290085739 -0.7933533402913477
  outer loop
    vertex 166.68639058825968 254.39775703737902 111.5709167218592
    vertex 164.30939882673218 254.1906502561924 111.41199809926133
    vertex 164.30939882673218 254.39775703737902 111.5709167218592
  endloop
endfacet
facet normal 0.0 0.6087614290085739 -0.7933533402913477
  outer loop
    vertex 164.30939882673218 254.1906502561924 111.41199809926133
    vertex 166.68639058825968 254.39775703737902 111.5709167218592
    vertex 166.68639058825968 254.1906502561924 111.41199809926133
  endloop
endfacet
facet normal 0.0 -0.9914448613738197 -0.13052619221998146
  outer loop
    vertex 166.68639058825968 255.86368286366815 110.96371036317727
    vertex 164.30939882673218 255.89775703737905 110.70489131807473
    vertex 166.68639058825968 255.89775703737905 110.70489131807473
  endloop
endfacet
facet normal 0.0 -0.9914448613738197 -0.13052619221998146
  outer loop
    vertex 164.30939882673218 255.89775703737905 110.70489131807473
    vertex 166.68639058825968 255.86368286366815 110.96371036317727
    vertex 164.30939882673218 255.86368286366815 110.96371036317727
  endloop
endfacet
facet normal 0.0 -0.38268343236508334 -0.9238795325112895
  outer loop
    vertex 166.68639058825968 255.39775703737908 111.5709167218592
    vertex 164.30939882673218 255.15657608248154 111.67081714436387
    vertex 164.30939882673218 255.39775703737908 111.5709167218592
  endloop
endfacet
facet normal 0.0 -0.38268343236508334 -0.9238795325112895
  outer loop
    vertex 164.30939882673218 255.15657608248154 111.67081714436387
    vertex 166.68639058825968 255.39775703737908 111.5709167218592
    vertex 166.68639058825968 255.15657608248154 111.67081714436387
  endloop
endfacet
facet normal 1.0 -0.0 -0.0
  outer loop
    vertex 192.94413549813456 252.39775703737894 92.29090176005373
    vertex 192.94413549813456 254.89775703737902 92.70489131807476
    vertex 192.94413549813456 252.39775703737885 92.70489131807476
  endloop
endfacet
facet normal 1.0 -0.0 -0.0
  outer loop
    vertex 192.94413549813456 254.89775703737902 92.70489131807476
    vertex 192.94413549813456 252.39775703737894 92.29090176005373
    vertex 192.94413549813456 257.39775703737917 92.29090176005373
  endloop
endfacet
facet normal 1.0 -0.0 -0.0
  outer loop
    vertex 192.94413549813456 254.89775703737902 92.70489131807476
    vertex 192.94413549813456 257.39775703737917 92.29090176005373
    vertex 192.94413549813456 257.39775703737917 92.70489131807476
  endloop
endfacet
facet normal 0.0 -0.6087614290087408 -0.7933533402912197
  outer loop
    vertex 166.68639058825968 255.6048638185656 111.41199809926133
    vertex 164.30939882673218 255.39775703737908 111.5709167218592
    vertex 164.30939882673218 255.6048638185656 111.41199809926133
  endloop
endfacet
facet normal 0.0 -0.6087614290087408 -0.7933533402912197
  outer loop
    vertex 164.30939882673218 255.39775703737908 111.5709167218592
    vertex 166.68639058825968 255.6048638185656 111.41199809926133
    vertex 166.68639058825968 255.39775703737908 111.5709167218592
  endloop
endfacet
facet normal -0.0 0.9238795325112895 -0.38268343236508334
  outer loop
    vertex 164.30939882673218 254.03173163359452 111.2048913180748
    vertex 166.68639058825968 253.93183121108987 110.96371036317727
    vertex 164.30939882673218 253.93183121108987 110.96371036317727
  endloop
endfacet
facet normal -0.0 0.9238795325112895 -0.38268343236508334
  outer loop
    vertex 166.68639058825968 253.93183121108987 110.96371036317727
    vertex 164.30939882673218 254.03173163359452 111.2048913180748
    vertex 166.68639058825968 254.03173163359452 111.2048913180748
  endloop
endfacet
facet normal 0.0 -0.13052619221998146 -0.9914448613738197
  outer loop
    vertex 166.68639058825968 255.15657608248154 111.67081714436387
    vertex 164.30939882673218 254.89775703737902 111.70489131807477
    vertex 164.30939882673218 255.15657608248154 111.67081714436387
  endloop
endfacet
facet normal 0.0 -0.13052619221998146 -0.9914448613738197
  outer loop
    vertex 164.30939882673218 254.89775703737902 111.70489131807477
    vertex 166.68639058825968 255.15657608248154 111.67081714436387
    vertex 166.68639058825968 254.89775703737902 111.70489131807477
  endloop
endfacet
facet normal 0.0 -0.9238795325112895 -0.38268343236508334
  outer loop
    vertex 166.68639058825968 255.7637824411635 111.2048913180748
    vertex 164.30939882673218 255.86368286366815 110.96371036317727
    vertex 166.68639058825968 255.86368286366815 110.96371036317727
  endloop
endfacet
facet normal 0.0 -0.9238795325112895 -0.38268343236508334
  outer loop
    vertex 164.30939882673218 255.86368286366815 110.96371036317727
    vertex 166.68639058825968 255.7637824411635 111.2048913180748
    vertex 164.30939882673218 255.7637824411635 111.2048913180748
  endloop
endfacet
facet normal -0.0 -0.38268343236520547 0.9238795325112388
  outer loop
    vertex 166.68639058825968 255.15657608248154 109.7389654917856
    vertex 164.30939882673218 255.397757037379 109.83886591429025
    vertex 164.30939882673218 255.15657608248154 109.7389654917856
  endloop
endfacet
facet normal -0.0 -0.38268343236520547 0.9238795325112388
  outer loop
    vertex 164.30939882673218 255.397757037379 109.83886591429025
    vertex 166.68639058825968 255.15657608248154 109.7389654917856
    vertex 166.68639058825968 255.397757037379 109.83886591429025
  endloop
endfacet
facet normal 0.0 -0.7933533402912197 -0.6087614290087408
  outer loop
    vertex 166.68639058825968 255.6048638185656 111.41199809926133
    vertex 164.30939882673218 255.7637824411635 111.2048913180748
    vertex 166.68639058825968 255.7637824411635 111.2048913180748
  endloop
endfacet
facet normal 0.0 -0.7933533402912197 -0.6087614290087408
  outer loop
    vertex 164.30939882673218 255.7637824411635 111.2048913180748
    vertex 166.68639058825968 255.6048638185656 111.41199809926133
    vertex 164.30939882673218 255.6048638185656 111.41199809926133
  endloop
endfacet
facet normal 0.0 0.38268343236520547 -0.9238795325112388
  outer loop
    vertex 166.68639058825968 254.63893799227648 111.67081714436387
    vertex 164.30939882673218 254.39775703737902 111.5709167218592
    vertex 164.30939882673218 254.63893799227648 111.67081714436387
  endloop
endfacet
facet normal 0.0 0.38268343236520547 -0.9238795325112388
  outer loop
    vertex 164.30939882673218 254.39775703737902 111.5709167218592
    vertex 166.68639058825968 254.63893799227648 111.67081714436387
    vertex 166.68639058825968 254.39775703737902 111.5709167218592
  endloop
endfacet
facet normal -0.0 -0.13052619221998146 0.9914448613738197
  outer loop
    vertex 166.68639058825968 254.89775703737902 109.70489131807469
    vertex 164.30939882673218 255.15657608248154 109.7389654917856
    vertex 164.30939882673218 254.89775703737902 109.70489131807469
  endloop
endfacet
facet normal -0.0 -0.13052619221998146 0.9914448613738197
  outer loop
    vertex 164.30939882673218 255.15657608248154 109.7389654917856
    vertex 166.68639058825968 254.89775703737902 109.70489131807469
    vertex 166.68639058825968 255.15657608248154 109.7389654917856
  endloop
endfacet
facet normal -0.0 0.13052619221998146 0.9914448613738197
  outer loop
    vertex 166.68639058825968 254.63893799227648 109.7389654917856
    vertex 164.30939882673218 254.89775703737902 109.70489131807469
    vertex 164.30939882673218 254.63893799227648 109.7389654917856
  endloop
endfacet
facet normal -0.0 0.13052619221998146 0.9914448613738197
  outer loop
    vertex 164.30939882673218 254.89775703737902 109.70489131807469
    vertex 166.68639058825968 254.63893799227648 109.7389654917856
    vertex 166.68639058825968 254.89775703737902 109.70489131807469
  endloop
endfacet
facet normal -0.0 0.38268343236508334 0.9238795325112895
  outer loop
    vertex 166.68639058825968 254.39775703737894 109.83886591429025
    vertex 164.30939882673218 254.63893799227648 109.7389654917856
    vertex 164.30939882673218 254.39775703737894 109.83886591429025
  endloop
endfacet
facet normal -0.0 0.38268343236508334 0.9238795325112895
  outer loop
    vertex 164.30939882673218 254.63893799227648 109.7389654917856
    vertex 166.68639058825968 254.39775703737894 109.83886591429025
    vertex 166.68639058825968 254.63893799227648 109.7389654917856
  endloop
endfacet
facet normal -0.0 -0.6087614290085739 0.7933533402913477
  outer loop
    vertex 166.68639058825968 255.397757037379 109.83886591429025
    vertex 164.30939882673218 255.6048638185656 109.99778453688813
    vertex 164.30939882673218 255.397757037379 109.83886591429025
  endloop
endfacet
facet normal -0.0 -0.6087614290085739 0.7933533402913477
  outer loop
    vertex 164.30939882673218 255.6048638185656 109.99778453688813
    vertex 166.68639058825968 255.397757037379 109.83886591429025
    vertex 166.68639058825968 255.6048638185656 109.99778453688813
  endloop
endfacet
facet normal -0.0 0.7933533402913477 0.6087614290085739
  outer loop
    vertex 164.30939882673218 254.03173163359452 110.20489131807476
    vertex 166.68639058825968 254.1906502561924 109.99778453688813
    vertex 164.30939882673218 254.1906502561924 109.99778453688813
  endloop
endfacet
facet normal -0.0 0.7933533402913477 0.6087614290085739
  outer loop
    vertex 166.68639058825968 254.1906502561924 109.99778453688813
    vertex 164.30939882673218 254.03173163359452 110.20489131807476
    vertex 166.68639058825968 254.03173163359452 110.20489131807476
  endloop
endfacet
facet normal -0.0 0.9238795325112388 0.38268343236520547
  outer loop
    vertex 164.30939882673218 253.93183121108987 110.4460722729722
    vertex 166.68639058825968 254.03173163359452 110.20489131807476
    vertex 164.30939882673218 254.03173163359452 110.20489131807476
  endloop
endfacet
facet normal -0.0 0.9238795325112388 0.38268343236520547
  outer loop
    vertex 166.68639058825968 254.03173163359452 110.20489131807476
    vertex 164.30939882673218 253.93183121108987 110.4460722729722
    vertex 166.68639058825968 253.93183121108987 110.4460722729722
  endloop
endfacet
facet normal 1.0 -0.0 -0.0
  outer loop
    vertex 192.94413549813456 257.39775703737917 92.70489131807476
    vertex 192.94413549813456 254.89775703737902 106.20489131807476
    vertex 192.94413549813456 254.89775703737902 92.70489131807476
  endloop
endfacet
facet normal 1.0 -0.0 -0.0
  outer loop
    vertex 192.94413549813456 254.89775703737902 106.20489131807476
    vertex 192.94413549813456 257.39775703737917 92.70489131807476
    vertex 192.94413549813456 257.39775703737917 106.20489131807476
  endloop
endfacet
facet normal 0.0 -0.9238795325112388 0.38268343236520547
  outer loop
    vertex 166.68639058825968 255.86368286366815 110.4460722729722
    vertex 164.30939882673218 255.7637824411635 110.20489131807476
    vertex 166.68639058825968 255.7637824411635 110.20489131807476
  endloop
endfacet
facet normal 0.0 -0.9238795325112388 0.38268343236520547
  outer loop
    vertex 164.30939882673218 255.7637824411635 110.20489131807476
    vertex 166.68639058825968 255.86368286366815 110.4460722729722
    vertex 164.30939882673218 255.86368286366815 110.4460722729722
  endloop
endfacet
facet normal -0.9676887525354861 0.0 -0.2521477309362804
  outer loop
    vertex 181.5415787458252 257.39775703737917 88.18610602936752
    vertex 181.9666624142404 252.39775703737885 86.55472634855711
    vertex 181.5415787458252 252.39775703737885 88.18610602936752
  endloop
endfacet
facet normal -0.9676887525354861 0.0 -0.2521477309362804
  outer loop
    vertex 181.9666624142404 252.39775703737885 86.55472634855711
    vertex 181.5415787458252 257.39775703737917 88.18610602936752
    vertex 181.9666624142404 257.39775703737917 86.55472634855711
  endloop
endfacet
facet normal -0.8965764821036951 0.0 -0.44288893837909576
  outer loop
    vertex 180.20601083907363 257.39775703737917 91.2772419607595
    vertex 180.9526558869095 252.39775703737885 89.76574701844098
    vertex 180.20601083907363 252.39775703737885 91.2772419607595
  endloop
endfacet
facet normal -0.8965764821036951 0.0 -0.44288893837909576
  outer loop
    vertex 180.9526558869095 252.39775703737885 89.76574701844098
    vertex 180.20601083907363 257.39775703737917 91.2772419607595
    vertex 180.9526558869095 257.39775703737917 89.76574701844098
  endloop
endfacet
facet normal -0.9369988091374574 0.0 0.34933255169678473
  outer loop
    vertex 181.5415787458252 257.39775703737917 78.22367660678191
    vertex 180.9526558869095 252.39775703737885 76.64403561770845
    vertex 181.5415787458252 252.39775703737885 78.22367660678191
  endloop
endfacet
facet normal -0.9369988091374574 0.0 0.34933255169678473
  outer loop
    vertex 180.9526558869095 252.39775703737885 76.64403561770845
    vertex 181.5415787458252 257.39775703737917 78.22367660678191
    vertex 180.9526558869095 257.39775703737917 76.64403561770845
  endloop
endfacet
facet normal -0.9883275431591467 0.0 0.15234391170311024
  outer loop
    vertex 182.2234916492568 257.39775703737917 81.5212299076441
    vertex 181.9666624142404 252.39775703737885 79.85505628759242
    vertex 182.2234916492568 252.39775703737885 81.5212299076441
  endloop
endfacet
facet normal -0.9883275431591467 0.0 0.15234391170311024
  outer loop
    vertex 181.9666624142404 252.39775703737885 79.85505628759242
    vertex 182.2234916492568 257.39775703737917 81.5212299076441
    vertex 181.9666624142404 257.39775703737917 79.85505628759242
  endloop
endfacet
facet normal -0.9369988091374574 0.0 -0.34933255169678473
  outer loop
    vertex 180.9526558869095 257.39775703737917 89.76574701844098
    vertex 181.5415787458252 252.39775703737885 88.18610602936752
    vertex 180.9526558869095 252.39775703737885 89.76574701844098
  endloop
endfacet
facet normal -0.9369988091374574 0.0 -0.34933255169678473
  outer loop
    vertex 181.5415787458252 252.39775703737885 88.18610602936752
    vertex 180.9526558869095 257.39775703737917 89.76574701844098
    vertex 181.5415787458252 257.39775703737917 88.18610602936752
  endloop
endfacet
facet normal 1.0 -0.0 -0.0
  outer loop
    vertex 185.16311846021276 262.8977570373791 108.08188307959892
    vertex 185.16311846021276 246.89775703737823 113.32789955655053
    vertex 185.16311846021276 246.89775703737823 108.08188307959892
  endloop
endfacet
facet normal 1.0 -0.0 -0.0
  outer loop
    vertex 185.16311846021276 246.89775703737823 113.32789955655053
    vertex 185.16311846021276 262.8977570373791 108.08188307959892
    vertex 185.16311846021276 262.8977570373791 113.32789955655053
  endloop
endfacet
facet normal -0.9987008108022203 0.0 -0.050957732514193825
  outer loop
    vertex 182.2234916492568 257.39775703737917 84.88855272850533
    vertex 182.30939882673098 252.39775703737885 83.20489131807476
    vertex 182.2234916492568 252.39775703737885 84.88855272850533
  endloop
endfacet
facet normal -0.9987008108022203 0.0 -0.050957732514193825
  outer loop
    vertex 182.30939882673098 252.39775703737885 83.20489131807476
    vertex 182.2234916492568 257.39775703737917 84.88855272850533
    vertex 182.30939882673098 257.39775703737917 83.20489131807476
  endloop
endfacet
facet normal -0.0 1.0 -0.0
  outer loop
    vertex 179.30939882673167 257.39775703737917 106.20489131807476
    vertex 192.94413549813456 257.39775703737917 92.70489131807476
    vertex 179.30939882673167 257.39775703737917 92.70489131807476
  endloop
endfacet
facet normal -0.0 1.0 -0.0
  outer loop
    vertex 192.94413549813456 257.39775703737917 92.70489131807476
    vertex 179.30939882673167 257.39775703737917 106.20489131807476
    vertex 192.94413549813456 257.39775703737917 106.20489131807476
  endloop
endfacet
facet normal -0.9987008108022203 0.0 0.05095773251419109
  outer loop
    vertex 182.30939882673098 257.39775703737917 83.20489131807476
    vertex 182.2234916492568 252.39775703737885 81.5212299076441
    vertex 182.30939882673098 252.39775703737885 83.20489131807476
  endloop
endfacet
facet normal -0.9987008108022203 0.0 0.05095773251419109
  outer loop
    vertex 182.2234916492568 252.39775703737885 81.5212299076441
    vertex 182.30939882673098 257.39775703737917 83.20489131807476
    vertex 182.2234916492568 257.39775703737917 81.5212299076441
  endloop
endfacet
facet normal 1.0 -0.0 -0.0
  outer loop
    vertex 199.3093988267329 262.8977570373791 114.41153608202016
    vertex 199.3093988267329 246.89775703737894 115.70489131807477
    vertex 199.3093988267329 246.89775703737894 114.41153608202016
  endloop
endfacet
facet normal 1.0 -0.0 -0.0
  outer loop
    vertex 199.3093988267329 246.89775703737894 115.70489131807477
    vertex 199.3093988267329 262.8977570373791 114.41153608202016
    vertex 199.3093988267329 262.8977570373791 115.70489131807477
  endloop
endfacet
facet normal 1.0 -0.0 -0.0
  outer loop
    vertex 166.68639058825678 246.89775703737823 108.08188307959892
    vertex 166.68639058825968 254.39775703737894 109.83886591429025
    vertex 166.68639058825678 246.89775703737823 113.32789955655053
  endloop
endfacet
facet normal 1.0 -0.0 -0.0
  outer loop
    vertex 166.68639058825968 254.39775703737894 109.83886591429025
    vertex 166.68639058825678 246.89775703737823 108.08188307959892
    vertex 166.68639058825968 254.63893799227648 109.7389654917856
  endloop
endfacet
facet normal 1.0 -0.0 -0.0
  outer loop
    vertex 166.68639058825968 254.63893799227648 109.7389654917856
    vertex 166.68639058825678 246.89775703737823 108.08188307959892
    vertex 166.68639058825678 262.8977570373791 108.08188307959892
  endloop
endfacet
facet normal 1.0 -0.0 -0.0
  outer loop
    vertex 166.68639058825678 246.89775703737823 113.32789955655053
    vertex 166.68639058825968 254.39775703737894 109.83886591429025
    vertex 166.68639058825968 254.1906502561924 109.99778453688813
  endloop
endfacet
facet normal 1.0 -0.0 -0.0
  outer loop
    vertex 166.68639058825678 246.89775703737823 113.32789955655053
    vertex 166.68639058825968 254.1906502561924 109.99778453688813
    vertex 166.68639058825968 254.03173163359452 110.20489131807476
  endloop
endfacet
facet normal 1.0 -0.0 -0.0
  outer loop
    vertex 166.68639058825678 246.89775703737823 113.32789955655053
    vertex 166.68639058825968 254.03173163359452 110.20489131807476
    vertex 166.68639058825968 253.93183121108987 110.4460722729722
  endloop
endfacet
facet normal 1.0 -0.0 -0.0
  outer loop
    vertex 166.68639058825678 246.89775703737823 113.32789955655053
    vertex 166.68639058825968 253.93183121108987 110.4460722729722
    vertex 166.68639058825968 253.89775703737897 110.70489131807473
  endloop
endfacet
facet normal 1.0 -0.0 -0.0
  outer loop
    vertex 166.68639058825968 254.63893799227648 109.7389654917856
    vertex 166.68639058825678 262.8977570373791 108.08188307959892
    vertex 166.68639058825968 254.89775703737902 109.70489131807469
  endloop
endfacet
facet normal 1.0 -0.0 -0.0
  outer loop
    vertex 166.68639058825968 254.89775703737902 109.70489131807469
    vertex 166.68639058825678 262.8977570373791 108.08188307959892
    vertex 166.68639058825968 255.15657608248154 109.7389654917856
  endloop
endfacet
facet normal 1.0 -0.0 -0.0
  outer loop
    vertex 166.68639058825968 255.15657608248154 109.7389654917856
    vertex 166.68639058825678 262.8977570373791 108.08188307959892
    vertex 166.68639058825968 255.397757037379 109.83886591429025
  endloop
endfacet
facet normal 1.0 -0.0 -0.0
  outer loop
    vertex 166.68639058825968 255.397757037379 109.83886591429025
    vertex 166.68639058825678 262.8977570373791 108.08188307959892
    vertex 166.68639058825968 255.6048638185656 109.99778453688813
  endloop
endfacet
facet normal 1.0 -0.0 -0.0
  outer loop
    vertex 166.68639058825968 255.6048638185656 109.99778453688813
    vertex 166.68639058825678 262.8977570373791 108.08188307959892
    vertex 166.68639058825968 255.7637824411635 110.20489131807476
  endloop
endfacet
facet normal 1.0 -0.0 -0.0
  outer loop
    vertex 166.68639058825968 255.7637824411635 110.20489131807476
    vertex 166.68639058825678 262.8977570373791 108.08188307959892
    vertex 166.68639058825968 255.86368286366815 110.4460722729722
  endloop
endfacet
facet normal 1.0 -0.0 -0.0
  outer loop
    vertex 166.68639058825968 255.86368286366815 110.4460722729722
    vertex 166.68639058825678 262.8977570373791 108.08188307959892
    vertex 166.68639058825968 255.89775703737905 110.70489131807473
  endloop
endfacet
facet normal 1.0 -0.0 -0.0
  outer loop
    vertex 166.68639058825678 246.89775703737823 113.32789955655053
    vertex 166.68639058825968 254.63893799227648 111.67081714436387
    vertex 166.68639058825678 262.8977570373791 113.32789955655053
  endloop
endfacet
facet normal 1.0 -0.0 -0.0
  outer loop
    vertex 166.68639058825968 254.63893799227648 111.67081714436387
    vertex 166.68639058825678 246.89775703737823 113.32789955655053
    vertex 166.68639058825968 254.39775703737902 111.5709167218592
  endloop
endfacet
facet normal 1.0 -0.0 -0.0
  outer loop
    vertex 166.68639058825968 254.39775703737902 111.5709167218592
    vertex 166.68639058825678 246.89775703737823 113.32789955655053
    vertex 166.68639058825968 254.1906502561924 111.41199809926133
  endloop
endfacet
facet normal 1.0 -0.0 -0.0
  outer loop
    vertex 166.68639058825968 254.1906502561924 111.41199809926133
    vertex 166.68639058825678 246.89775703737823 113.32789955655053
    vertex 166.68639058825968 254.03173163359452 111.2048913180748
  endloop
endfacet
facet normal 1.0 -0.0 -0.0
  outer loop
    vertex 166.68639058825968 254.03173163359452 111.2048913180748
    vertex 166.68639058825678 246.89775703737823 113.32789955655053
    vertex 166.68639058825968 253.93183121108987 110.96371036317727
  endloop
endfacet
facet normal 1.0 -0.0 -0.0
  outer loop
    vertex 166.68639058825968 253.93183121108987 110.96371036317727
    vertex 166.68639058825678 246.89775703737823 113.32789955655053
    vertex 166.68639058825968 253.89775703737897 110.70489131807473
  endloop
endfacet
facet normal 1.0 -0.0 -0.0
  outer loop
    vertex 166.68639058825678 262.8977570373791 113.32789955655053
    vertex 166.68639058825968 254.63893799227648 111.67081714436387
    vertex 166.68639058825968 254.89775703737902 111.70489131807477
  endloop
endfacet
facet normal 1.0 -0.0 -0.0
  outer loop
    vertex 166.68639058825678 262.8977570373791 113.32789955655053
    vertex 166.68639058825968 254.89775703737902 111.70489131807477
    vertex 166.68639058825968 255.15657608248154 111.67081714436387
  endloop
endfacet
facet normal 1.0 -0.0 -0.0
  outer loop
    vertex 166.68639058825678 262.8977570373791 113.32789955655053
    vertex 166.68639058825968 255.15657608248154 111.67081714436387
    vertex 166.68639058825968 255.39775703737908 111.5709167218592
  endloop
endfacet
facet normal 1.0 -0.0 -0.0
  outer loop
    vertex 166.68639058825678 262.8977570373791 113.32789955655053
    vertex 166.68639058825968 255.39775703737908 111.5709167218592
    vertex 166.68639058825968 255.6048638185656 111.41199809926133
  endloop
endfacet
facet normal 1.0 -0.0 -0.0
  outer loop
    vertex 166.68639058825678 262.8977570373791 113.32789955655053
    vertex 166.68639058825968 255.6048638185656 111.41199809926133
    vertex 166.68639058825968 255.7637824411635 111.2048913180748
  endloop
endfacet
facet normal 1.0 -0.0 -0.0
  outer loop
    vertex 166.68639058825678 262.8977570373791 113.32789955655053
    vertex 166.68639058825968 255.7637824411635 111.2048913180748
    vertex 166.68639058825968 255.86368286366815 110.96371036317727
  endloop
endfacet
facet normal 1.0 -0.0 -0.0
  outer loop
    vertex 166.68639058825678 262.8977570373791 113.32789955655053
    vertex 166.68639058825968 255.86368286366815 110.96371036317727
    vertex 166.68639058825968 255.89775703737905 110.70489131807473
  endloop
endfacet
facet normal 1.0 -0.0 -0.0
  outer loop
    vertex 166.68639058825678 262.8977570373791 113.32789955655053
    vertex 166.68639058825968 255.89775703737905 110.70489131807473
    vertex 166.68639058825678 262.8977570373791 108.08188307959892
  endloop
endfacet
facet normal -0.8468416285234023 0.0 -0.5318451430631215
  outer loop
    vertex 179.30939882673167 254.89775703737902 92.70489131807476
    vertex 180.20601083907363 252.39775703737885 91.2772419607595
    vertex 179.30939882673167 252.39775703737885 92.70489131807476
  endloop
endfacet
facet normal -0.8468416285234023 0.0 -0.5318451430631215
  outer loop
    vertex 180.20601083907363 252.39775703737885 91.2772419607595
    vertex 179.30939882673167 254.89775703737902 92.70489131807476
    vertex 180.20601083907363 257.39775703737917 91.2772419607595
  endloop
endfacet
facet normal -0.8468416285234023 0.0 -0.5318451430631215
  outer loop
    vertex 180.20601083907363 257.39775703737917 91.2772419607595
    vertex 179.30939882673167 254.89775703737902 92.70489131807476
    vertex 179.30939882673167 257.39775703737917 92.70489131807476
  endloop
endfacet
facet normal -0.8965764821036848 0.0 0.4428889383791171
  outer loop
    vertex 180.9526558869095 257.39775703737917 76.64403561770845
    vertex 180.20601083907363 252.39775703737885 75.13254067539002
    vertex 180.9526558869095 252.39775703737885 76.64403561770845
  endloop
endfacet
facet normal -0.8965764821036848 0.0 0.4428889383791171
  outer loop
    vertex 180.20601083907363 252.39775703737885 75.13254067539002
    vertex 180.9526558869095 257.39775703737917 76.64403561770845
    vertex 180.20601083907363 257.39775703737917 75.13254067539002
  endloop
endfacet
facet normal -0.80288022733265 0.0 0.5961403698444455
  outer loop
    vertex 195.54421550588154 262.8977570373791 113.32789955655053
    vertex 191.64903650369115 246.89775703737823 108.08188307959892
    vertex 195.54421550588154 246.89775703737823 113.32789955655053
  endloop
endfacet
facet normal -0.80288022733265 0.0 0.5961403698444455
  outer loop
    vertex 191.64903650369115 246.89775703737823 108.08188307959892
    vertex 195.54421550588154 262.8977570373791 113.32789955655053
    vertex 191.64903650369115 262.8977570373791 108.08188307959892
  endloop
endfacet
facet normal 0.8028802273327453 -0.0 -0.5961403698443172
  outer loop
    vertex 193.94413549813433 262.8977570373791 107.18561403602584
    vertex 199.3093988267329 246.89775703737894 114.41153608202016
    vertex 193.94413549813433 246.89775703737894 107.18561403602584
  endloop
endfacet
facet normal 0.8028802273327453 -0.0 -0.5961403698443172
  outer loop
    vertex 199.3093988267329 246.89775703737894 114.41153608202016
    vertex 193.94413549813433 262.8977570373791 107.18561403602584
    vertex 199.3093988267329 262.8977570373791 114.41153608202016
  endloop
endfacet
facet normal -1.0 0.0 0.0
  outer loop
    vertex 164.30939882673218 246.89775703737894 115.70489131807477
    vertex 164.30939882673218 254.39775703737902 111.5709167218592
    vertex 164.30939882673218 246.89775703737894 106.20489131807476
  endloop
endfacet
facet normal -1.0 0.0 0.0
  outer loop
    vertex 164.30939882673218 254.39775703737902 111.5709167218592
    vertex 164.30939882673218 246.89775703737894 115.70489131807477
    vertex 164.30939882673218 262.8977570373791 115.70489131807477
  endloop
endfacet
facet normal -1.0 0.0 0.0
  outer loop
    vertex 164.30939882673218 246.89775703737894 106.20489131807476
    vertex 164.30939882673218 254.39775703737902 111.5709167218592
    vertex 164.30939882673218 254.1906502561924 111.41199809926133
  endloop
endfacet
facet normal -1.0 0.0 0.0
  outer loop
    vertex 164.30939882673218 246.89775703737894 106.20489131807476
    vertex 164.30939882673218 254.1906502561924 111.41199809926133
    vertex 164.30939882673218 254.03173163359452 111.2048913180748
  endloop
endfacet
facet normal -1.0 0.0 0.0
  outer loop
    vertex 164.30939882673218 246.89775703737894 106.20489131807476
    vertex 164.30939882673218 254.03173163359452 111.2048913180748
    vertex 164.30939882673218 253.93183121108987 110.96371036317727
  endloop
endfacet
facet normal -1.0 0.0 0.0
  outer loop
    vertex 164.30939882673218 246.89775703737894 106.20489131807476
    vertex 164.30939882673218 253.93183121108987 110.96371036317727
    vertex 164.30939882673218 253.89775703737897 110.70489131807473
  endloop
endfacet
facet normal -1.0 0.0 0.0
  outer loop
    vertex 164.30939882673218 254.39775703737902 111.5709167218592
    vertex 164.30939882673218 262.8977570373791 115.70489131807477
    vertex 164.30939882673218 254.63893799227648 111.67081714436387
  endloop
endfacet
facet normal -1.0 0.0 0.0
  outer loop
    vertex 164.30939882673218 254.63893799227648 111.67081714436387
    vertex 164.30939882673218 262.8977570373791 115.70489131807477
    vertex 164.30939882673218 254.89775703737902 111.70489131807477
  endloop
endfacet
facet normal -1.0 0.0 0.0
  outer loop
    vertex 164.30939882673218 254.89775703737902 111.70489131807477
    vertex 164.30939882673218 262.8977570373791 115.70489131807477
    vertex 164.30939882673218 255.15657608248154 111.67081714436387
  endloop
endfacet
facet normal -1.0 0.0 0.0
  outer loop
    vertex 164.30939882673218 255.15657608248154 111.67081714436387
    vertex 164.30939882673218 262.8977570373791 115.70489131807477
    vertex 164.30939882673218 255.39775703737908 111.5709167218592
  endloop
endfacet
facet normal -1.0 0.0 0.0
  outer loop
    vertex 164.30939882673218 255.39775703737908 111.5709167218592
    vertex 164.30939882673218 262.8977570373791 115.70489131807477
    vertex 164.30939882673218 255.6048638185656 111.41199809926133
  endloop
endfacet
facet normal -1.0 0.0 0.0
  outer loop
    vertex 164.30939882673218 255.6048638185656 111.41199809926133
    vertex 164.30939882673218 262.8977570373791 115.70489131807477
    vertex 164.30939882673218 255.7637824411635 111.2048913180748
  endloop
endfacet
facet normal -1.0 0.0 0.0
  outer loop
    vertex 164.30939882673218 255.7637824411635 111.2048913180748
    vertex 164.30939882673218 262.8977570373791 115.70489131807477
    vertex 164.30939882673218 255.86368286366815 110.96371036317727
  endloop
endfacet
facet normal -1.0 0.0 0.0
  outer loop
    vertex 164.30939882673218 255.86368286366815 110.96371036317727
    vertex 164.30939882673218 262.8977570373791 115.70489131807477
    vertex 164.30939882673218 255.89775703737905 110.70489131807473
  endloop
endfacet
facet normal -1.0 0.0 0.0
  outer loop
    vertex 164.30939882673218 246.89775703737894 106.20489131807476
    vertex 164.30939882673218 253.93183121108987 110.4460722729722
    vertex 164.30939882673218 254.89775703737902 106.20489131807476
  endloop
endfacet
facet normal -1.0 0.0 0.0
  outer loop
    vertex 164.30939882673218 253.93183121108987 110.4460722729722
    vertex 164.30939882673218 246.89775703737894 106.20489131807476
    vertex 164.30939882673218 253.89775703737897 110.70489131807473
  endloop
endfacet
facet normal -1.0 0.0 0.0
  outer loop
    vertex 164.30939882673218 254.89775703737902 106.20489131807476
    vertex 164.30939882673218 253.93183121108987 110.4460722729722
    vertex 164.30939882673218 254.03173163359452 110.20489131807476
  endloop
endfacet
facet normal -1.0 0.0 0.0
  outer loop
    vertex 164.30939882673218 254.89775703737902 106.20489131807476
    vertex 164.30939882673218 254.03173163359452 110.20489131807476
    vertex 164.30939882673218 254.1906502561924 109.99778453688813
  endloop
endfacet
facet normal -1.0 0.0 0.0
  outer loop
    vertex 164.30939882673218 254.89775703737902 106.20489131807476
    vertex 164.30939882673218 254.1906502561924 109.99778453688813
    vertex 164.30939882673218 254.39775703737894 109.83886591429025
  endloop
endfacet
facet normal -1.0 0.0 0.0
  outer loop
    vertex 164.30939882673218 254.89775703737902 106.20489131807476
    vertex 164.30939882673218 254.39775703737894 109.83886591429025
    vertex 164.30939882673218 254.63893799227648 109.7389654917856
  endloop
endfacet
facet normal -1.0 0.0 0.0
  outer loop
    vertex 164.30939882673218 254.89775703737902 106.20489131807476
    vertex 164.30939882673218 254.63893799227648 109.7389654917856
    vertex 164.30939882673218 254.89775703737902 109.70489131807469
  endloop
endfacet
facet normal -1.0 0.0 0.0
  outer loop
    vertex 164.30939882673218 254.89775703737902 106.20489131807476
    vertex 164.30939882673218 254.89775703737902 109.70489131807469
    vertex 164.30939882673218 255.15657608248154 109.7389654917856
  endloop
endfacet
facet normal -1.0 0.0 0.0
  outer loop
    vertex 164.30939882673218 254.89775703737902 106.20489131807476
    vertex 164.30939882673218 255.15657608248154 109.7389654917856
    vertex 164.30939882673218 262.8977570373791 106.20489131807476
  endloop
endfacet
facet normal -1.0 0.0 0.0
  outer loop
    vertex 164.30939882673218 262.8977570373791 106.20489131807476
    vertex 164.30939882673218 255.15657608248154 109.7389654917856
    vertex 164.30939882673218 255.397757037379 109.83886591429025
  endloop
endfacet
facet normal -1.0 0.0 0.0
  outer loop
    vertex 164.30939882673218 262.8977570373791 106.20489131807476
    vertex 164.30939882673218 255.397757037379 109.83886591429025
    vertex 164.30939882673218 255.6048638185656 109.99778453688813
  endloop
endfacet
facet normal -1.0 0.0 0.0
  outer loop
    vertex 164.30939882673218 262.8977570373791 106.20489131807476
    vertex 164.30939882673218 255.6048638185656 109.99778453688813
    vertex 164.30939882673218 255.7637824411635 110.20489131807476
  endloop
endfacet
facet normal -1.0 0.0 0.0
  outer loop
    vertex 164.30939882673218 262.8977570373791 106.20489131807476
    vertex 164.30939882673218 255.7637824411635 110.20489131807476
    vertex 164.30939882673218 255.86368286366815 110.4460722729722
  endloop
endfacet
facet normal -1.0 0.0 0.0
  outer loop
    vertex 164.30939882673218 262.8977570373791 106.20489131807476
    vertex 164.30939882673218 255.86368286366815 110.4460722729722
    vertex 164.30939882673218 255.89775703737905 110.70489131807473
  endloop
endfacet
facet normal -1.0 0.0 0.0
  outer loop
    vertex 164.30939882673218 262.8977570373791 106.20489131807476
    vertex 164.30939882673218 255.89775703737905 110.70489131807473
    vertex 164.30939882673218 262.8977570373791 115.70489131807477
  endloop
endfacet
facet normal 5.529340273407547e-15 -1.0 -8.226045530480922e-16
  outer loop
    vertex 194.38840090560123 252.39775703737894 75.30904437035302
    vertex 189.47908863047894 252.39775703737885 73.70489131807476
    vertex 194.30939882673115 252.39775703737894 73.70489131807476
  endloop
endfacet
facet normal 5.529340273407547e-15 -1.0 -8.226045530480922e-16
  outer loop
    vertex 189.47908863047894 252.39775703737885 73.70489131807476
    vertex 194.38840090560123 252.39775703737894 75.30904437035302
    vertex 180.20601083907363 252.39775703737885 75.13254067539002
  endloop
endfacet
facet normal 5.529340273407547e-15 -1.0 -8.226045530480922e-16
  outer loop
    vertex 180.20601083907363 252.39775703737885 75.13254067539002
    vertex 194.38840090560123 252.39775703737894 75.30904437035302
    vertex 180.9526558869095 252.39775703737885 76.64403561770845
  endloop
endfacet
facet normal 5.529340273407547e-15 -1.0 -8.226045530480922e-16
  outer loop
    vertex 180.9526558869095 252.39775703737885 76.64403561770845
    vertex 194.38840090560123 252.39775703737894 75.30904437035302
    vertex 194.5230307498634 252.39775703737894 76.90948904250953
  endloop
endfacet
facet normal 5.529340273407547e-15 -1.0 -8.226045530480922e-16
  outer loop
    vertex 180.9526558869095 252.39775703737885 76.64403561770845
    vertex 194.5230307498634 252.39775703737894 76.90948904250953
    vertex 181.5415787458252 252.39775703737885 78.22367660678191
  endloop
endfacet
facet normal 5.529340273407547e-15 -1.0 -8.226045530480922e-16
  outer loop
    vertex 181.5415787458252 252.39775703737885 78.22367660678191
    vertex 194.5230307498634 252.39775703737894 76.90948904250953
    vertex 194.71312613865825 252.39775703737894 78.50429689512318
  endloop
endfacet
facet normal 5.529340273407547e-15 -1.0 -8.226045530480922e-16
  outer loop
    vertex 181.5415787458252 252.39775703737885 78.22367660678191
    vertex 194.71312613865825 252.39775703737894 78.50429689512318
    vertex 181.9666624142404 252.39775703737885 79.85505628759242
  endloop
endfacet
facet normal 5.529340273407547e-15 -1.0 -8.226045530480922e-16
  outer loop
    vertex 181.9666624142404 252.39775703737885 79.85505628759242
    vertex 194.71312613865825 252.39775703737894 78.50429689512318
    vertex 194.95845801850177 252.39775703737894 80.09154628080047
  endloop
endfacet
facet normal 5.529340273407547e-15 -1.0 -8.226045530480922e-16
  outer loop
    vertex 181.9666624142404 252.39775703737885 79.85505628759242
    vertex 194.95845801850177 252.39775703737894 80.09154628080047
    vertex 182.2234916492568 252.39775703737885 81.5212299076441
  endloop
endfacet
facet normal 5.529340273407547e-15 -1.0 -8.226045530480922e-16
  outer loop
    vertex 182.2234916492568 252.39775703737885 81.5212299076441
    vertex 194.95845801850177 252.39775703737894 80.09154628080047
    vertex 195.25873077924916 252.39775703737894 81.66932465964567
  endloop
endfacet
facet normal 5.529340273407547e-15 -1.0 -8.226045530480922e-16
  outer loop
    vertex 182.2234916492568 252.39775703737885 81.5212299076441
    vertex 195.25873077924916 252.39775703737894 81.66932465964567
    vertex 182.30939882673098 252.39775703737885 83.20489131807476
  endloop
endfacet
facet normal 5.529340273407547e-15 -1.0 -8.226045530480922e-16
  outer loop
    vertex 182.30939882673098 252.39775703737885 83.20489131807476
    vertex 195.25873077924916 252.39775703737894 81.66932465964567
    vertex 195.61358261032046 252.39775703737894 83.23573090375567
  endloop
endfacet
facet normal 5.529340273407547e-15 -1.0 -8.226045530480922e-16
  outer loop
    vertex 182.30939882673098 252.39775703737885 83.20489131807476
    vertex 195.61358261032046 252.39775703737894 83.23573090375567
    vertex 182.2234916492568 252.39775703737885 84.88855272850533
  endloop
endfacet
facet normal 5.529340273407547e-15 -1.0 -8.226045530480922e-16
  outer loop
    vertex 182.2234916492568 252.39775703737885 84.88855272850533
    vertex 195.61358261032046 252.39775703737894 83.23573090375567
    vertex 196.02258593662538 252.39775703737894 84.78887758796446
  endloop
endfacet
facet normal 5.529340273407547e-15 -1.0 -8.226045530480922e-16
  outer loop
    vertex 182.2234916492568 252.39775703737885 84.88855272850533
    vertex 196.02258593662538 252.39775703737894 84.78887758796446
    vertex 196.485247933803 252.39775703737894 86.32689326407737
  endloop
endfacet
facet normal 5.529340273407547e-15 -1.0 -8.226045530480922e-16
  outer loop
    vertex 182.2234916492568 252.39775703737885 84.88855272850533
    vertex 196.485247933803 252.39775703737894 86.32689326407737
    vertex 181.9666624142404 252.39775703737885 86.55472634855711
  endloop
endfacet
facet normal 5.529340273407547e-15 -1.0 -8.226045530480922e-16
  outer loop
    vertex 181.9666624142404 252.39775703737885 86.55472634855711
    vertex 196.485247933803 252.39775703737894 86.32689326407737
    vertex 197.00101112201128 252.39775703737894 87.84792471585253
  endloop
endfacet
facet normal 5.529340273407547e-15 -1.0 -8.226045530480922e-16
  outer loop
    vertex 181.9666624142404 252.39775703737885 86.55472634855711
    vertex 197.00101112201128 252.39775703737894 87.84792471585253
    vertex 181.5415787458252 252.39775703737885 88.18610602936752
  endloop
endfacet
facet normal 5.529340273407547e-15 -1.0 -8.226045530480922e-16
  outer loop
    vertex 181.5415787458252 252.39775703737885 88.18610602936752
    vertex 197.00101112201128 252.39775703737894 87.84792471585253
    vertex 197.56925403767713 252.39775703737894 89.35013919201575
  endloop
endfacet
facet normal 5.529340273407547e-15 -1.0 -8.226045530480922e-16
  outer loop
    vertex 181.5415787458252 252.39775703737885 88.18610602936752
    vertex 197.56925403767713 252.39775703737894 89.35013919201575
    vertex 180.9526558869095 252.39775703737885 89.76574701844098
  endloop
endfacet
facet normal 5.529340273407547e-15 -1.0 -8.226045530480922e-16
  outer loop
    vertex 180.9526558869095 252.39775703737885 89.76574701844098
    vertex 197.56925403767713 252.39775703737894 89.35013919201575
    vertex 198.1892919823207 252.39775703737894 90.83172661461461
  endloop
endfacet
facet normal 5.529340273407547e-15 -1.0 -8.226045530480922e-16
  outer loop
    vertex 180.9526558869095 252.39775703737885 89.76574701844098
    vertex 198.1892919823207 252.39775703737894 90.83172661461461
    vertex 180.20601083907363 252.39775703737885 91.2772419607595
  endloop
endfacet
facet normal 5.529340273407547e-15 -1.0 -8.226045530480922e-16
  outer loop
    vertex 180.20601083907363 252.39775703737885 91.2772419607595
    vertex 198.1892919823207 252.39775703737894 90.83172661461461
    vertex 198.86037784756442 252.39775703737894 92.29090176005373
  endloop
endfacet
facet normal 5.529340273407547e-15 -1.0 -8.226045530480922e-16
  outer loop
    vertex 180.20601083907363 252.39775703737885 91.2772419607595
    vertex 198.86037784756442 252.39775703737894 92.29090176005373
    vertex 192.94413549813456 252.39775703737894 92.29090176005373
  endloop
endfacet
facet normal 5.529340273407547e-15 -1.0 -8.226045530480922e-16
  outer loop
    vertex 180.20601083907363 252.39775703737885 91.2772419607595
    vertex 192.94413549813456 252.39775703737894 92.29090176005373
    vertex 179.30939882673167 252.39775703737885 92.70489131807476
  endloop
endfacet
facet normal 5.529340273407547e-15 -1.0 -8.226045530480922e-16
  outer loop
    vertex 179.30939882673167 252.39775703737885 92.70489131807476
    vertex 192.94413549813456 252.39775703737894 92.29090176005373
    vertex 192.94413549813456 252.39775703737885 92.70489131807476
  endloop
endfacet
facet normal 5.529340273407547e-15 -1.0 -8.226045530480922e-16
  outer loop
    vertex 179.30939882673167 252.39775703737885 92.70489131807476
    vertex 192.94413549813456 252.39775703737885 92.70489131807476
    vertex 192.94413549813456 252.39775703737885 106.20489131807476
  endloop
endfacet
facet normal 5.529340273407547e-15 -1.0 -8.226045530480922e-16
  outer loop
    vertex 179.30939882673167 252.39775703737885 92.70489131807476
    vertex 192.94413549813456 252.39775703737885 106.20489131807476
    vertex 179.30939882673167 252.39775703737885 106.20489131807476
  endloop
endfacet
facet normal 5.529340273407547e-15 -1.0 -8.226045530480922e-16
  outer loop
    vertex 180.20601083907363 252.39775703737885 75.13254067539002
    vertex 179.30939882673167 252.39775703737885 73.70489131807466
    vertex 189.47908863047894 252.39775703737885 73.70489131807476
  endloop
endfacet
facet normal -0.0 -0.0 1.0
  outer loop
    vertex 199.3093988267329 246.89775703737894 115.70489131807477
    vertex 164.30939882673218 262.8977570373791 115.70489131807477
    vertex 164.30939882673218 246.89775703737894 115.70489131807477
  endloop
endfacet
facet normal -0.0 -0.0 1.0
  outer loop
    vertex 164.30939882673218 262.8977570373791 115.70489131807477
    vertex 199.3093988267329 246.89775703737894 115.70489131807477
    vertex 199.3093988267329 262.8977570373791 115.70489131807477
  endloop
endfacet
facet normal 0.0 0.0 -1.0
  outer loop
    vertex 178.89866039218026 262.8977570373791 113.32789955655053
    vertex 166.68639058825678 246.89775703737823 113.32789955655053
    vertex 166.68639058825678 262.8977570373791 113.32789955655053
  endloop
endfacet
facet normal 0.0 0.0 -1.0
  outer loop
    vertex 166.68639058825678 246.89775703737823 113.32789955655053
    vertex 178.89866039218026 262.8977570373791 113.32789955655053
    vertex 178.89866039218026 246.89775703737823 113.32789955655053
  endloop
endfacet
facet normal -0.9676887525354895 0.0 0.2521477309362673
  outer loop
    vertex 181.9666624142404 257.39775703737917 79.85505628759242
    vertex 181.5415787458252 252.39775703737885 78.22367660678191
    vertex 181.9666624142404 252.39775703737885 79.85505628759242
  endloop
endfacet
facet normal -0.9676887525354895 0.0 0.2521477309362673
  outer loop
    vertex 181.5415787458252 252.39775703737885 78.22367660678191
    vertex 181.9666624142404 257.39775703737917 79.85505628759242
    vertex 181.5415787458252 257.39775703737917 78.22367660678191
  endloop
endfacet
facet normal 1.0 -0.0 -0.0
  outer loop
    vertex 193.94413549813433 252.39775703737885 106.20489131807476
    vertex 193.94413549813433 246.89775703737894 107.18561403602584
    vertex 193.94413549813433 246.89775703737894 106.20489131807476
  endloop
endfacet
facet normal 1.0 -0.0 -0.0
  outer loop
    vertex 193.94413549813433 246.89775703737894 107.18561403602584
    vertex 193.94413549813433 252.39775703737885 106.20489131807476
    vertex 193.94413549813433 262.8977570373791 107.18561403602584
  endloop
endfacet
facet normal 1.0 -0.0 -0.0
  outer loop
    vertex 193.94413549813433 262.8977570373791 107.18561403602584
    vertex 193.94413549813433 252.39775703737885 106.20489131807476
    vertex 193.94413549813433 254.89775703737902 106.20489131807476
  endloop
endfacet
facet normal 1.0 -0.0 -0.0
  outer loop
    vertex 193.94413549813433 262.8977570373791 107.18561403602584
    vertex 193.94413549813433 254.89775703737902 106.20489131807476
    vertex 193.94413549813433 257.39775703737917 106.20489131807476
  endloop
endfacet
facet normal 1.0 -0.0 -0.0
  outer loop
    vertex 193.94413549813433 262.8977570373791 107.18561403602584
    vertex 193.94413549813433 257.39775703737917 106.20489131807476
    vertex 193.94413549813433 262.8977570373791 106.20489131807476
  endloop
endfacet
facet normal 8.873321525331284e-15 0.0 -1.0
  outer loop
    vertex 189.47908863047894 257.39775703737917 73.70489131807476
    vertex 179.30939882673167 252.39775703737885 73.70489131807466
    vertex 179.30939882673167 257.39775703737917 73.70489131807466
  endloop
endfacet
facet normal 8.873321525331284e-15 0.0 -1.0
  outer loop
    vertex 179.30939882673167 252.39775703737885 73.70489131807466
    vertex 189.47908863047894 257.39775703737917 73.70489131807476
    vertex 189.47908863047894 252.39775703737885 73.70489131807476
  endloop
endfacet
facet normal -0.8468416285234174 0.0 0.5318451430630974
  outer loop
    vertex 180.20601083907363 257.39775703737917 75.13254067539002
    vertex 179.30939882673167 252.39775703737885 73.70489131807466
    vertex 180.20601083907363 252.39775703737885 75.13254067539002
  endloop
endfacet
facet normal -0.8468416285234174 0.0 0.5318451430630974
  outer loop
    vertex 179.30939882673167 252.39775703737885 73.70489131807466
    vertex 180.20601083907363 257.39775703737917 75.13254067539002
    vertex 179.30939882673167 257.39775703737917 73.70489131807466
  endloop
endfacet
facet normal -1.0 0.0 0.0
  outer loop
    vertex 179.30939882673167 254.89775703737902 106.20489131807476
    vertex 179.30939882673167 252.39775703737885 92.70489131807476
    vertex 179.30939882673167 252.39775703737885 106.20489131807476
  endloop
endfacet
facet normal -1.0 0.0 0.0
  outer loop
    vertex 179.30939882673167 252.39775703737885 92.70489131807476
    vertex 179.30939882673167 254.89775703737902 106.20489131807476
    vertex 179.30939882673167 254.89775703737902 92.70489131807476
  endloop
endfacet
facet normal 0.0 -1.0 0.0
  outer loop
    vertex 185.16311846021276 246.89775703737823 113.32789955655053
    vertex 178.89866039218026 246.89775703737823 108.08188307959892
    vertex 185.16311846021276 246.89775703737823 108.08188307959892
  endloop
endfacet
facet normal 0.0 -1.0 0.0
  outer loop
    vertex 178.89866039218026 246.89775703737823 108.08188307959892
    vertex 185.16311846021276 246.89775703737823 113.32789955655053
    vertex 178.89866039218026 246.89775703737823 113.32789955655053
  endloop
endfacet
facet normal -0.9883275431591481 0.0 -0.15234391170310219
  outer loop
    vertex 181.9666624142404 257.39775703737917 86.55472634855711
    vertex 182.2234916492568 252.39775703737885 84.88855272850533
    vertex 181.9666624142404 252.39775703737885 86.55472634855711
  endloop
endfacet
facet normal -0.9883275431591481 0.0 -0.15234391170310219
  outer loop
    vertex 182.2234916492568 252.39775703737885 84.88855272850533
    vertex 181.9666624142404 257.39775703737917 86.55472634855711
    vertex 182.2234916492568 257.39775703737917 84.88855272850533
  endloop
endfacet
facet normal -0.0 1.0 -0.0
  outer loop
    vertex 178.89866039218026 262.8977570373791 113.32789955655053
    vertex 185.16311846021276 262.8977570373791 108.08188307959892
    vertex 178.89866039218026 262.8977570373791 108.08188307959892
  endloop
endfacet
facet normal -0.0 1.0 -0.0
  outer loop
    vertex 185.16311846021276 262.8977570373791 108.08188307959892
    vertex 178.89866039218026 262.8977570373791 113.32789955655053
    vertex 185.16311846021276 262.8977570373791 113.32789955655053
  endloop
endfacet
facet normal -0.0 -0.0 1.0
  outer loop
    vertex 191.64903650369115 246.89775703737823 108.08188307959892
    vertex 185.16311846021276 262.8977570373791 108.08188307959892
    vertex 185.16311846021276 246.89775703737823 108.08188307959892
  endloop
endfacet
facet normal -0.0 -0.0 1.0
  outer loop
    vertex 185.16311846021276 262.8977570373791 108.08188307959892
    vertex 191.64903650369115 246.89775703737823 108.08188307959892
    vertex 191.64903650369115 262.8977570373791 108.08188307959892
  endloop
endfacet
facet normal -1.0 0.0 0.0
  outer loop
    vertex 178.89866039218026 262.8977570373791 113.32789955655053
    vertex 178.89866039218026 246.89775703737823 108.08188307959892
    vertex 178.89866039218026 246.89775703737823 113.32789955655053
  endloop
endfacet
facet normal -1.0 0.0 0.0
  outer loop
    vertex 178.89866039218026 246.89775703737823 108.08188307959892
    vertex 178.89866039218026 262.8977570373791 113.32789955655053
    vertex 178.89866039218026 262.8977570373791 108.08188307959892
  endloop
endfacet
facet normal -0.0 -0.0 1.0
  outer loop
    vertex 178.89866039218026 246.89775703737823 108.08188307959892
    vertex 166.68639058825678 262.8977570373791 108.08188307959892
    vertex 166.68639058825678 246.89775703737823 108.08188307959892
  endloop
endfacet
facet normal -0.0 -0.0 1.0
  outer loop
    vertex 166.68639058825678 262.8977570373791 108.08188307959892
    vertex 178.89866039218026 246.89775703737823 108.08188307959892
    vertex 178.89866039218026 262.8977570373791 108.08188307959892
  endloop
endfacet
facet normal -1.0 0.0 0.0
  outer loop
    vertex 179.30939882673167 257.39775703737917 106.20489131807476
    vertex 179.30939882673167 254.89775703737902 92.70489131807476
    vertex 179.30939882673167 254.89775703737902 106.20489131807476
  endloop
endfacet
facet normal -1.0 0.0 0.0
  outer loop
    vertex 179.30939882673167 254.89775703737902 92.70489131807476
    vertex 179.30939882673167 257.39775703737917 106.20489131807476
    vertex 179.30939882673167 257.39775703737917 92.70489131807476
  endloop
endfacet
facet normal 0.0 0.0 -1.0
  outer loop
    vertex 195.54421550588154 262.8977570373791 113.32789955655053
    vertex 185.16311846021276 246.89775703737823 113.32789955655053
    vertex 185.16311846021276 262.8977570373791 113.32789955655053
  endloop
endfacet
facet normal 0.0 0.0 -1.0
  outer loop
    vertex 185.16311846021276 246.89775703737823 113.32789955655053
    vertex 195.54421550588154 262.8977570373791 113.32789955655053
    vertex 195.54421550588154 246.89775703737823 113.32789955655053
  endloop
endfacet
facet normal -0.0 1.0 -0.0
  outer loop
    vertex 182.6289278486287 257.39775703737917 75.91977920040607
    vertex 189.47908863047894 257.39775703737917 75.52856249233585
    vertex 182.4356754535793 257.39775703737917 75.52856249233585
  endloop
endfacet
facet normal -0.0 1.0 -0.0
  outer loop
    vertex 189.47908863047894 257.39775703737917 75.52856249233585
    vertex 182.6289278486287 257.39775703737917 75.91977920040607
    vertex 192.57675468058753 257.39775703737917 75.52856249233585
  endloop
endfacet
facet normal -0.0 1.0 -0.0
  outer loop
    vertex 192.57675468058753 257.39775703737917 75.52856249233585
    vertex 182.6289278486287 257.39775703737917 75.91977920040607
    vertex 192.7084314741818 257.39775703737917 77.09390206405685
  endloop
endfacet
facet normal -0.0 1.0 -0.0
  outer loop
    vertex 192.7084314741818 257.39775703737917 77.09390206405685
    vertex 182.6289278486287 257.39775703737917 75.91977920040607
    vertex 183.28286222118882 257.39775703737917 77.67379761456247
  endloop
endfacet
facet normal -0.0 1.0 -0.0
  outer loop
    vertex 192.7084314741818 257.39775703737917 77.09390206405685
    vertex 183.28286222118882 257.39775703737917 77.67379761456247
    vertex 192.90602052963135 257.39775703737917 78.75157813507433
  endloop
endfacet
facet normal -0.0 1.0 -0.0
  outer loop
    vertex 192.90602052963135 257.39775703737917 78.75157813507433
    vertex 183.28286222118882 257.39775703737917 77.67379761456247
    vertex 183.75487110619125 257.39775703737917 79.48526618268346
  endloop
endfacet
facet normal -0.0 1.0 -0.0
  outer loop
    vertex 192.90602052963135 257.39775703737917 78.75157813507433
    vertex 183.75487110619125 257.39775703737917 79.48526618268346
    vertex 193.1610235295257 257.39775703737917 80.40139778015734
  endloop
endfacet
facet normal -0.0 1.0 -0.0
  outer loop
    vertex 193.1610235295257 257.39775703737917 80.40139778015734
    vertex 183.75487110619125 257.39775703737917 79.48526618268346
    vertex 184.04005185968438 257.39775703737917 81.33536961185959
  endloop
endfacet
facet normal -0.0 1.0 -0.0
  outer loop
    vertex 193.1610235295257 257.39775703737917 80.40139778015734
    vertex 184.04005185968438 257.39775703737917 81.33536961185959
    vertex 193.47313321061137 257.39775703737917 82.04137306601653
  endloop
endfacet
facet normal -0.0 1.0 -0.0
  outer loop
    vertex 193.47313321061137 257.39775703737917 82.04137306601653
    vertex 184.04005185968438 257.39775703737917 81.33536961185959
    vertex 184.1354423770501 257.39775703737917 83.20489131807476
  endloop
endfacet
facet normal -0.0 1.0 -0.0
  outer loop
    vertex 193.47313321061137 257.39775703737917 82.04137306601653
    vertex 184.1354423770501 257.39775703737917 83.20489131807476
    vertex 193.84197349952478 257.39775703737917 83.66952792122258
  endloop
endfacet
facet normal -0.0 1.0 -0.0
  outer loop
    vertex 193.84197349952478 257.39775703737917 83.66952792122258
    vertex 184.1354423770501 257.39775703737917 83.20489131807476
    vertex 184.04005185968438 257.39775703737917 85.07441302428984
  endloop
endfacet
facet normal -0.0 1.0 -0.0
  outer loop
    vertex 193.84197349952478 257.39775703737917 83.66952792122258
    vertex 184.04005185968438 257.39775703737917 85.07441302428984
    vertex 194.2670999659358 257.39775703737917 85.2839005172529
  endloop
endfacet
facet normal -0.0 1.0 -0.0
  outer loop
    vertex 194.2670999659358 257.39775703737917 85.2839005172529
    vertex 184.04005185968438 257.39775703737917 85.07441302428984
    vertex 183.75487110619125 257.39775703737917 86.92451645346605
  endloop
endfacet
facet normal -0.0 1.0 -0.0
  outer loop
    vertex 194.2670999659358 257.39775703737917 85.2839005172529
    vertex 183.75487110619125 257.39775703737917 86.92451645346605
    vertex 194.7480003580618 257.39775703737917 86.88254563237686
  endloop
endfacet
facet normal -0.0 1.0 -0.0
  outer loop
    vertex 194.7480003580618 257.39775703737917 86.88254563237686
    vertex 183.75487110619125 257.39775703737917 86.92451645346605
    vertex 195.28409521989894 257.39775703737917 88.46353699553126
  endloop
endfacet
facet normal -0.0 1.0 -0.0
  outer loop
    vertex 195.28409521989894 257.39775703737917 88.46353699553126
    vertex 183.75487110619125 257.39775703737917 86.92451645346605
    vertex 183.28286222118882 257.39775703737917 88.73598502158696
  endloop
endfacet
facet normal -0.0 1.0 -0.0
  outer loop
    vertex 195.28409521989894 257.39775703737917 88.46353699553126
    vertex 183.28286222118882 257.39775703737917 88.73598502158696
    vertex 195.87473858943181 257.39775703737917 90.02496960736023
  endloop
endfacet
facet normal -0.0 1.0 -0.0
  outer loop
    vertex 195.87473858943181 257.39775703737917 90.02496960736023
    vertex 183.28286222118882 257.39775703737917 88.73598502158696
    vertex 182.6289278486287 257.39775703737917 90.49000343574346
  endloop
endfacet
facet normal -0.0 1.0 -0.0
  outer loop
    vertex 195.87473858943181 257.39775703737917 90.02496960736023
    vertex 182.6289278486287 257.39775703737917 90.49000343574346
    vertex 196.0598229009477 257.39775703737917 90.46723058579255
  endloop
endfacet
endsolid IoBlaster_sketchup
